<svg xmlns="http://www.w3.org/2000/svg" viewBox="0 0 542.7 689.9">
	<g id="Layer_6" data-name="Layer 6">
		<path d="M486.72,156.12A6.45,6.45,0,1,0,485.2,161a14.81,14.81,0,0,0-9.44-15.31,11.84,11.84,0,0,0-5.52,13.69L480,163c1.35-3.41,2.67-7,2.33-10.66s-2.83-7.38-6.47-7.89c-4.35-.6-8.15,3.75-8.47,8.13s1.89,8.53,4.36,12.15c2.26,3.33,5.53,6.79,9.53,6.34,5.78-.64,7.36-8.77,5-14.12-3.87-8.94-16.56-14-23.93-7.62-4.49,3.88-5.61,10.9-3.15,16.3,2.85,6.22,10.38,10.06,17,8.21s11.06-9.53,8.95-16-10.76-10.06-16.61-6.52-6.42,13.39-.78,17.26c4.25,2.91,10.57,1.82,14-2s4-9.8,1.84-14.48a15,15,0,0,0-28,10.78l6.07,3.66" transform="translate(-28.12 -38.45)" style="fill:none;stroke:#818e91;stroke-miterlimit:10"/>
		<path d="M443,178a98.17,98.17,0,0,1-11.74-52.51c-5.89,11.08-2.46,24.67,1.91,36.43s9.69,24.12,7.15,36.41a7.7,7.7,0,0,1,12.2-9.4l-7.58,12.31c1.63-2.75,4.43-4.55,6.74-6.75s4.27-5.38,3.4-8.45-5.89-4.4-7.21-1.49l-2.11,14.94,15.3-4.82L448,220a19.39,19.39,0,0,1,34.26-17.11l-19.1-2.29a132.44,132.44,0,0,0,67-3.08A129.12,129.12,0,0,1,476,207.05a69.42,69.42,0,0,0,46.81-7.32,133.67,133.67,0,0,1-67.38,11.5,91.74,91.74,0,0,0,55.58-7,92,92,0,0,1-54.1,13.6,62.56,62.56,0,0,0,44.66-7.21,114.19,114.19,0,0,1-44.13,14.14c5.6,8.13,20.12,7.09,24.51-1.75-1.73,7.84-10.52,13.36-18.33,11.51l20.37-10.93a10,10,0,0,1-1,13.12,18.93,18.93,0,0,1,11.38,18" transform="translate(-28.12 -38.45)" style="fill:none;stroke:#818e91;stroke-miterlimit:10"/>
		<path d="M79,134.36a224.09,224.09,0,0,1,38.92,71.86,391.92,391.92,0,0,1-40.5-90,139.17,139.17,0,0,1,26.65,51A215.61,215.61,0,0,1,89.1,105c-4.25,40.83,17.55,80.59,46.61,109.59a663.68,663.68,0,0,0,17-81.63l3.31,5.19a267.28,267.28,0,0,0,28.87-69.23q-12.51,18.93-24.12,38.45L169,86.91A135.78,135.78,0,0,0,153,125.42l21.23-41.24A74.89,74.89,0,0,1,165,108.54a49.69,49.69,0,0,1,19.86-39.72,409.66,409.66,0,0,0-29.62,67.24" transform="translate(-28.12 -38.45)" style="fill:none;stroke:#818e91;stroke-miterlimit:10"/>
		<path d="M181,116a35.73,35.73,0,0,1-2.1,21.34l.39-21.06,5.41-.12.3,15.48V110.56l-.3,21.14-7-.19c-4.4-8.93,6.27-20.73,15.59-17.26a43.05,43.05,0,0,1-8.38,21.67" transform="translate(-28.12 -38.45)" style="fill:none;stroke:#818e91;stroke-miterlimit:10"/>
		<path d="M173.32,195.88l9.48,27.05a25.42,25.42,0,0,1-13.63-24.43c-1.49,10.64,7.32,21.6,18,22.42l-20,2.94,20.17-3.51c.13,10.26-9.65,19.54-19.89,18.88a18.32,18.32,0,0,1,16.45-16.12,67.58,67.58,0,0,1-28.27,21l26.78-21.86c.21,6.9.15,14.56-4.51,19.64s-15.49,3.81-16.05-3.06c-.41-4.94,4.58-8.65,9.33-10.06s10-1.7,14-4.67c2.9,4.83,5.92,10.13,5.24,15.73s-7.1,10.64-11.95,7.77c-6.11-3.62-2.52-13,1.67-18.71a52.44,52.44,0,0,1,10.26,42.05,52.54,52.54,0,0,0-40.89-28.22c17.16-4.92,37.21,7.22,40.81,24.71a333.41,333.41,0,0,0-15.59-96" transform="translate(-28.12 -38.45)" style="fill:none;stroke:#818e91;stroke-miterlimit:10"/>
		<path d="M210.39,206l-2.34-42-1.24,45.43.21-26.1c10.09,13.93,6.82,35.7-6.91,46.06l11-26.83a24.75,24.75,0,0,0,27.3,37.11c11-2.94,18.7-13.31,21.73-24.27s2.16-22.57,1.28-33.9c9.53,20.47-3.5,48.06-25.37,53.7,17.91-2.83,31-22.94,26.3-40.46,5.84,17.46.19,38.18-13.7,50.27a62.27,62.27,0,0,0,8.46-43,22.08,22.08,0,0,1-15.31,39.41,59.48,59.48,0,0,0,16.66-49.77c7.3,9.73,7.36,24.29.06,34s-21.39,13.72-32.67,9.16c7.89,1.88,16.23,3.75,24,1.35S264,225.5,261.37,217.84a19.51,19.51,0,0,1,1.54,20.77,5.84,5.84,0,0,1,.23-8.45" transform="translate(-28.12 -38.45)" style="fill:none;stroke:#818e91;stroke-miterlimit:10"/>
		<path d="M253.59,115.6l3.21,15.89a21.27,21.27,0,0,1,15.49-2.32,210,210,0,0,1,9.07,59.63A201.31,201.31,0,0,0,267,119.14c16.11,4.09,27.41,21.86,24.28,38.18C284.89,141,276.66,122.84,260.08,117a17.59,17.59,0,0,0,6.34,15q-2.09-7.89-4.16-15.79a83.93,83.93,0,0,1,21.13,55.4l-2.84-27.1a165.06,165.06,0,0,1-1.43,58.09" transform="translate(-28.12 -38.45)" style="fill:none;stroke:#818e91;stroke-miterlimit:10"/>
		<path d="M309.09,199.6l-3,7,.12-12.3-.71,16c-3.72-3.1-2.8-10.06,1.6-12.09a31.59,31.59,0,0,1-3.35,23.48l1-15-.11,16.86" transform="translate(-28.12 -38.45)" style="fill:none;stroke:#818e91;stroke-miterlimit:10"/>
		<path d="M301.82,252.15c21.2-3.11,38.61-23.1,38.77-44.53a141.3,141.3,0,0,1-21,38.13,216.33,216.33,0,0,0,16.06-43.89,64.58,64.58,0,0,1-8.54,40.66,143.27,143.27,0,0,1,19.64-43.62c4.12,11.73-8.46,25.44-2.39,36.28,3.38,6,11.66,8,18.2,5.78s11.47-7.73,15-13.68,5.88-12.51,9.2-18.57c-3.4,20.74-23.3,37.46-44.31,37.24L339,239a21,21,0,0,0,34.79-14.62c5.3,8,.24,20.1-8.74,23.48s-19.65-1-25.35-8.67a27.11,27.11,0,0,0,39.42-17.76,25,25,0,0,1-38.31,25.37c15.54,7.55,36.81-2.22,41.2-18.93,2-7.45,1.46-16.51,7.47-21.33a102.44,102.44,0,0,1-1,32.17l10.55,2a12.84,12.84,0,0,1-5.78-14l5.62-.13-.18,20.51c.44-6.43,3.41-12.88,8.72-16.54s13-4,18,.11,6,12.54,1.46,17.1a24.62,24.62,0,0,1-3.7-17.27c8.09.49,12.58,12.32,6.85,18a10.16,10.16,0,0,1,10,2.88,18.37,18.37,0,0,0-28.51-20.33l-.27-8.6c9.41-4.27,21.89,4.3,21.28,14.61-4.38-9.13-18.38-11.61-25.64-4.55,5.37-6.76,16.11-8.45,23.29-3.65l-3.09-6.69-18.8-1.79a33.49,33.49,0,0,1,25.23,13.59" transform="translate(-28.12 -38.45)" style="fill:none;stroke:#818e91;stroke-miterlimit:10"/>
		<path d="M436.65,252a62.18,62.18,0,0,1,27.13,3.06,36.82,36.82,0,0,1,13.16,7.43c6.41,6,9.43,14.89,9.88,23.64s-1.41,17.43-3.47,25.94q-.12-8-.23-16.06A36.69,36.69,0,0,1,478,316.63a25.17,25.17,0,0,1,9.25-24.54A21.81,21.81,0,0,0,497.25,307c-4.55,2.72-11.36,0-12.77-5.13l25.13,13.6a57.22,57.22,0,0,0-47-18.51,89.64,89.64,0,0,0,48.6-12,30.11,30.11,0,0,0-21.33,22.7c3.36-10.05,7.95-21.39,18-24.75A51.76,51.76,0,0,1,491,298.1l23.49-16.2" transform="translate(-28.12 -38.45)" style="fill:none;stroke:#818e91;stroke-miterlimit:10"/>
		<path d="M526.19,310.65c.92,25.31-23.41,48.33-48.68,46.66s-46.21-27-43.78-52.2,27.14-45.91,52.43-44.55,47.45,23.93,49,49.21c2.12,34.17-27.38,61.39-38.69,93.71-4.83,13.77-6.31,28.54-11.34,42.24s-14.89,27-29.13,30.16c23.83-15.9,38.91-44.16,38.86-72.81a62.49,62.49,0,0,1-2.75,37.76,49.64,49.64,0,0,1,9.13-38.37,94.42,94.42,0,0,1-10.75,40.75,101.8,101.8,0,0,1,8.71-49.4,71.12,71.12,0,0,1-6.66,43" transform="translate(-28.12 -38.45)" style="fill:none;stroke:#818e91;stroke-miterlimit:10"/>
		<path d="M459.12,429.22a35.67,35.67,0,0,1-42.69-47.09A64.34,64.34,0,0,0,429.58,434a97.39,97.39,0,0,1-11-50.93c-.62,19.12,10.57,38.14,27.58,46.89-8.54-3.53-15-11-19.16-19.23s-6.31-17.35-8.42-26.35a88.16,88.16,0,0,0,29.11,54l-7.82,0a29.32,29.32,0,0,0,2.4,20.42,96,96,0,0,1-37.18-2.62,22.67,22.67,0,0,1,26.23,5.66,43.67,43.67,0,0,1-19.74-1.26l16-.25a19.31,19.31,0,0,1,8-22.62c4.92,3.53,5.49,11.23,2.19,16.31s-9.45,7.73-15.49,8.23-12.05-.84-18-2.17" transform="translate(-28.12 -38.45)" style="fill:none;stroke:#818e91;stroke-miterlimit:10"/>
		<path d="M72.36,278.11a42.54,42.54,0,0,1-25.7,4.13l2,35.92C50.23,309.47,63.21,307.3,70,313s8.31,15.44,8.16,24.27c-.6,34.94-20.44,66.56-42.48,93.67,10.58,2.56,21.42,5.14,32.25,4s21.86-6.62,26.62-16.41a81.65,81.65,0,0,1-42.93,7.28l23.19.4a43.37,43.37,0,0,0-34.22,3.37l29.61-66-4.8,32.31,17.33-77.32-6.35,60.67c12.33-19.89,9.52-47.92-6.5-65-2.37-2.52-5.13-4.89-8.49-5.7s-7.43.41-8.93,3.53c2.15-9.35,16.24-10.86,23.5-4.59s9.33,16.51,11,26a78,78,0,0,0-27-33.13,10.65,10.65,0,0,0-4.57,10.22l-6.1-26.74a83.86,83.86,0,0,0,.08,27.56l1.26-24.86c5.85,1.29,9.65,8.37,7.48,13.95l-.78-15.15,1.45,12.38-1.39-13.29a32,32,0,0,1,4.31,19.23l.46-11.1,4.48,9.61a25.56,25.56,0,0,1-4.81-16.23l8.65,15.32-2.77-19.81-.24,13.49a9.1,9.1,0,0,1-.93-12,53.06,53.06,0,0,1,5.68,23.84l-.05-16.56,1.05,16.22a69.92,69.92,0,0,1-8.3-24.52,80.76,80.76,0,0,1,16.37,41.41l-10.81-38.9A35.11,35.11,0,0,1,80.7,311.61l-5-29.55c22.13,39.31,15,92.86-16.54,125.06" transform="translate(-28.12 -38.45)" style="fill:none;stroke:#818e91;stroke-miterlimit:10"/>
		<path d="M175.8,322.21A40.83,40.83,0,0,0,204.67,300c.2,6.93.5,14.21,4.07,20.16s11.57,9.84,17.65,6.5c3.26-1.78,5.27-5.18,6.86-8.54a69.92,69.92,0,0,0,6.28-37.1c-.07,10.1-8.82,18.48-18.47,21.47s-20,1.82-30.07.6l-29-3.5c-.79,9.44,7,18.76,16.45,19.63a20.12,20.12,0,0,0-14-15.89,21.26,21.26,0,0,0,6.32,14.3l-4-13a10.15,10.15,0,0,1,7.22,10.84l.39-10.93a8.55,8.55,0,0,1,2.43,10l.57-4.08a5,5,0,0,1,2.22,7.33c-3.53.52-6.77-3.71-5.35-7h11.51a4.37,4.37,0,0,1-2.52,5.74l-.34-4.63a6.93,6.93,0,1,1-13.14-2.61l21.25-.28a11.55,11.55,0,0,0-11.36,7.4c6.22-5.17,13-10.56,21-11.45s17.34,5,16.77,13.1l-7.25-.17.48-8.85a21.72,21.72,0,0,1,4.77,19.43l-1-13.58c4.65.53,6.92,7.44,3.5,10.63-2.87-.74-2.09-5.8.82-6.4s5.63,2.19,6.11,5.12-.63,5.86-1.72,8.62c-1.65-3.6-3.34-7.59-2.23-11.39s6.55-6.28,9.15-3.3c2.43,2.8-.43,7.73-4.13,8s-6.9-3-8-6.53-.52-7.35,0-11a17.76,17.76,0,0,1,5.41,17.58,29.21,29.21,0,0,1,3.13-17.63,14.5,14.5,0,0,1,.32,12.66,18.53,18.53,0,0,1,6.2-21.32l1.13,17.26a47.91,47.91,0,0,1,4.31-22.31A18,18,0,0,1,237,306.11a11.65,11.65,0,0,1-1.55-8.23l-10.29,25.33a37.37,37.37,0,0,1,10.72-20.36,27.32,27.32,0,0,0-6.69,15.2" transform="translate(-28.12 -38.45)" style="fill:none;stroke:#818e91;stroke-miterlimit:10"/>
		<path d="M288.59,272.63c-7,10-14.28,20.95-14.21,33.18s11.37,25,23.14,21.66l-7.59,32.64c-10.72-.7-21.92,3.74-28.31,12.38s-7.16,21.4-.89,30.13,19.54,11.92,28.57,6.1c4.48-2.89,7.74-7.58,12.64-9.69,8.73-3.77,18.39,2,26.39,7.12s18.6,9.92,26.49,4.59c-11.43,19.34-31.29,34.32-53.63,36.67S254.85,437.8,246,417.14s1-48.21,22-56.17a39,39,0,0,0-14.53,39.19,14.33,14.33,0,0,1-5.9-15.13l.29,20.31,2.67-26.16a79.63,79.63,0,0,1,5.34,39.51,30.73,30.73,0,0,1-7.8-24.6c10.79,5.33,16.44,19.24,12.41,30.58-7.54-1.09-11.38-12-6.18-17.56a48.24,48.24,0,0,1,10.8,35.43,22.1,22.1,0,0,1-1.73-18.44c7.32,3.35,9.8,14.18,4.67,20.38-8.56-3.17-13.65-13.6-10.89-22.3,9.53,1.71,15.61,13.66,11.38,22.37a19.17,19.17,0,0,1-6.74-21.61,12.77,12.77,0,0,1,8.09,13,31.89,31.89,0,0,1-6.74-23.19,19.19,19.19,0,0,1,15,19.2,22.06,22.06,0,0,1-7.47-17.54,64.36,64.36,0,0,1,7.8,29.41,55.23,55.23,0,0,1-3.48-26.95c8.33,5.48,11.51,17.54,7,26.42a46.62,46.62,0,0,1-.72-31,36.78,36.78,0,0,1,10.13,33.46L290.27,410a50.81,50.81,0,0,1,9.48,29.34l-.9-23.24a60.13,60.13,0,0,1,2.92,31.27l-.48-41.47a34,34,0,0,1,4.52,33,29.63,29.63,0,0,1-5-33.68,53.29,53.29,0,0,1,5.26,43.26,76.9,76.9,0,0,1-3.5-43.85,39.12,39.12,0,0,1,12.84,38.55,34,34,0,0,1-4-29.48,30.36,30.36,0,0,1,8.88,30.44,111.5,111.5,0,0,1-6.44-44.52,124.5,124.5,0,0,1,9.71,46.5,74.45,74.45,0,0,1-9.06-37.26,39.1,39.1,0,0,1,8.39,34.87l-2.26-29.48c8.17,1.16,14.66,9.41,13.85,17.62l-1.39-22.19a35,35,0,0,1,12.12,22.45l-1.58-20.64c5.62,2.31,12.05-5.52,8.69-10.58a9,9,0,0,1,3.11,10.93l1.64-9.55-1.65,10.56c14.83-15.25,19.65-39.42,11.81-59.2s-27.93-34.07-49.18-35A75.35,75.35,0,0,1,377,350.27a152.57,152.57,0,0,0-46.28-30.88,62.94,62.94,0,0,1,46.31,37.85,55.75,55.75,0,0,0-34.91-33.31,29.38,29.38,0,0,1,35.71,34.76l-11.76-23.52a208.23,208.23,0,0,1,2.49,62.53" transform="translate(-28.12 -38.45)" style="fill:none;stroke:#818e91;stroke-miterlimit:10"/>
		<path d="M150.57,468.67a64.72,64.72,0,0,1,24.68,22.14" transform="translate(-28.12 -38.45)" style="fill:none;stroke:#818e91;stroke-miterlimit:10"/>
		<path d="M165.1,469.59l12,13.5" transform="translate(-28.12 -38.45)" style="fill:none;stroke:#818e91;stroke-miterlimit:10"/>
		<path d="M360.07,559.46a47,47,0,0,0-29.87,16.71" transform="translate(-28.12 -38.45)" style="fill:none;stroke:#818e91;stroke-miterlimit:10"/>
		<path d="M333.28,562.91a47,47,0,0,0-20.21,23.47" transform="translate(-28.12 -38.45)" style="fill:none;stroke:#818e91;stroke-miterlimit:10"/>
		<path d="M511.81,641.06c6.49-3.11,15.34,1.37,16.67,8.44" transform="translate(-28.12 -38.45)" style="fill:none;stroke:#818e91;stroke-miterlimit:10"/>
		<path d="M517.45,635.87c5-3.18,12.7.38,13.53,6.22" transform="translate(-28.12 -38.45)" style="fill:none;stroke:#818e91;stroke-miterlimit:10"/>
		<path d="M210.19,585.94c-5.71-9.37-4.14-21.77,1.11-31.4s13.66-17.08,21.89-24.33a64.76,64.76,0,0,0-21.05,52.5,34.68,34.68,0,0,1,11.64-52.54,85.94,85.94,0,0,0-7.85,50.57c-8.18-6.47-9.45-18.91-5.77-28.67s11.24-17.46,18.59-24.86c-8,11-16.27,22.76-17.76,36.32a28.66,28.66,0,0,0,1.06,12.18c2.78,8.3,10.3,14.33,18.49,17.45s17.07,3.76,25.81,4.37" transform="translate(-28.12 -38.45)" style="fill:none;stroke:#818e91;stroke-miterlimit:10"/>
		<path d="M304.18,616.37a54.77,54.77,0,0,1,23.72,34.75,145.07,145.07,0,0,0-11.81-34.56c12.33,8.26,18.42,24.8,14.39,39.09a61.59,61.59,0,0,0-16-36.61c8.32,6.7,11,19.49,6.05,29a60.83,60.83,0,0,0-8.76-31.45,17.15,17.15,0,0,0,1.85,12" transform="translate(-28.12 -38.45)" style="fill:none;stroke:#818e91;stroke-miterlimit:10"/>
		<path d="M343,702.65c-2.28-2.48-4.81-5-8.06-5.87-6.6-1.84-13.74,5.08-12.56,11.84s9.58,10.93,15.89,8.25,9.24-11,6.47-17.32c-3.26-7.38-13.31-10.51-20.51-6.87s-10.71,12.93-8.4,20.66,9.78,13.42,17.8,14.36c5.52.65,11.41-.87,15.44-4.7s5.82-10.09,3.76-15.26" transform="translate(-28.12 -38.45)" style="fill:none;stroke:#818e91;stroke-miterlimit:10"/>
	</g>
	<g id="Layer_5" data-name="Layer 5">
		<path d="M315.39,161.58,336.22,146a112.54,112.54,0,0,1-1.74,28.73l-14.34-28.55q13.1,10.34,27.15,19.4a88.05,88.05,0,0,1-29-2.35" transform="translate(-28.12 -38.45)" style="fill:none;stroke:#edd056;stroke-miterlimit:10"/>
		<path d="M343.68,110.89l2.77-22.09,17.2,15.87A92.54,92.54,0,0,1,333.31,100a46.85,46.85,0,0,0,28-6.69q-8.51,11-16.15,22.6" transform="translate(-28.12 -38.45)" style="fill:none;stroke:#edd056;stroke-miterlimit:10"/>
		<path d="M375.23,134.1a25.84,25.84,0,0,1,10-20.52,106.53,106.53,0,0,0,2.7,30.15c-2.77.25-4.41-2.91-5.61-5.41A32.69,32.69,0,0,0,367,123.1l30.42,5.13-23.33,15.29" transform="translate(-28.12 -38.45)" style="fill:none;stroke:#edd056;stroke-miterlimit:10"/>
		<path d="M386.48,288.88a30,30,0,0,0,12.22-14.44l7.35,15.18a60.2,60.2,0,0,1-20.92-14.5,33.54,33.54,0,0,1,26.62,4.13,125.19,125.19,0,0,0-23.46,12.92" transform="translate(-28.12 -38.45)" style="fill:none;stroke:#edd056;stroke-miterlimit:10"/>
		<path d="M342.7,274.33A21.46,21.46,0,0,1,345,260.54l8.12,13-18.9-6.05a84.82,84.82,0,0,1,18.37-.11,27,27,0,0,1-9,11.54" transform="translate(-28.12 -38.45)" style="fill:none;stroke:#edd056;stroke-miterlimit:10"/>
		<path d="M416.47,327.85l4-16.37a27,27,0,0,0,13.4,16.09l-22.32-7.12a24,24,0,0,1,17.69-1.55,31.5,31.5,0,0,1-12.37,11.32" transform="translate(-28.12 -38.45)" style="fill:none;stroke:#edd056;stroke-miterlimit:10"/>
		<path d="M152.42,409.78a118.37,118.37,0,0,0,25.45-15.64,116,116,0,0,1-1.62,27.78l-15.08-27.05a23.45,23.45,0,0,1,5.5,3.13l20.58,14.31-28.76-.16" transform="translate(-28.12 -38.45)" style="fill:none;stroke:#edd056;stroke-miterlimit:10"/>
		<path d="M326.85,128l-.18-3.43c-3.18-1.33-7.08,2.47-5.83,5.69a18.26,18.26,0,0,0,5.81,0,3.43,3.43,0,0,0-.36-3.36,3.85,3.85,0,0,0-3.21.37l.27,3.18c3.13-1.63,2.77-7.16-.55-8.37a7.06,7.06,0,0,0-2,4.55l4.74.15" transform="translate(-28.12 -38.45)" style="fill:none;stroke:#edd056;stroke-miterlimit:10"/>
		<path d="M358.45,141.38c.89-2.68-2.26-5.69-4.89-4.69-1.19,4.15,4.77,8.11,8.14,5.41a6.66,6.66,0,0,0,1.63-4.14,5.39,5.39,0,0,0-3.37,0,4.06,4.06,0,0,0,.74,4.62,2.31,2.31,0,0,0-3.31-2.23l-.2,3.47" transform="translate(-28.12 -38.45)" style="fill:none;stroke:#edd056;stroke-miterlimit:10"/>
		<path d="M458.55,206a2.9,2.9,0,0,0,3.47-2.58,2.56,2.56,0,1,0,1.16,4.85,4.69,4.69,0,0,0-.26-3.45,6.91,6.91,0,0,0-.47,6.12c1.32-.4,2.77-.91,3.41-2.13s-.34-3.17-1.66-2.79.23,2.94.91,1.74a2.31,2.31,0,1,0-1.38,2.82" transform="translate(-28.12 -38.45)" style="fill:none;stroke:#edd056;stroke-miterlimit:10"/>
		<path d="M491.93,216,489,223l6,.06v-4.68l-5.87,0,0,4.57a5.49,5.49,0,0,0,3.62-.2,6,6,0,0,0-7.19-1.75,3.29,3.29,0,0,0,2.31,4.4" transform="translate(-28.12 -38.45)" style="fill:none;stroke:#edd056;stroke-miterlimit:10"/>
		<path d="M439.55,468.79a8.82,8.82,0,0,0,1.44-9.1c-2.79.74-2.63,5.71.2,6.27,1.6-3.29-4-6.64-6.5-4s.16,7.76,3.81,7.82a4.34,4.34,0,0,0,4.24-2.78c.54-1.73-.74-3.9-2.55-3.93" transform="translate(-28.12 -38.45)" style="fill:none;stroke:#edd056;stroke-miterlimit:10"/>
		<path d="M413.78,475.42a5.75,5.75,0,0,0-7.61-3.23l0,4.44c2.47,1.07,4.89-3.22,2.69-4.78-1.26,1-2.59,2.2-3,3.79s.59,3.65,2.24,3.62,2.08-3.09.44-3.17" transform="translate(-28.12 -38.45)" style="fill:none;stroke:#edd056;stroke-miterlimit:10"/>
		<path d="M381.66,479.22l-.14-5a5.58,5.58,0,0,0-4.42,9.86c1.57,1.25,4.27,1.35,5.32-.36s-1.46-4.35-2.9-2.94a2.16,2.16,0,0,0,1,3.24" transform="translate(-28.12 -38.45)" style="fill:none;stroke:#edd056;stroke-miterlimit:10"/>
		<path d="M352.68,483.13c-1.19,1.23.25,3.72,1.91,3.32a2.83,2.83,0,0,0-1-3.75,2.15,2.15,0,0,0-.27,3.72,3.66,3.66,0,0,0,0-3.26c-1.36-1.18-3.9.42-3.42,2.15" transform="translate(-28.12 -38.45)" style="fill:none;stroke:#edd056;stroke-miterlimit:10"/>
		<path d="M328.75,485a1.77,1.77,0,1,0,3,1.57,10,10,0,0,0-8.53-1l.05,3.46,4.17-.55" transform="translate(-28.12 -38.45)" style="fill:none;stroke:#edd056;stroke-miterlimit:10"/>
		<path d="M305.41,491.1a5.52,5.52,0,0,0-7.79-1.23,2.45,2.45,0,0,0,3.53-.9" transform="translate(-28.12 -38.45)" style="fill:none;stroke:#edd056;stroke-miterlimit:10"/>
		<path d="M113.33,442c12.55-1.72,25.23,8.12,27.7,20.55s-4.73,25.8-16,31.59c-6.62,3.4-14.7,4.36-21.59,1.54s-12.19-9.77-12.07-17.21,6.4-14.57,13.84-14.71,14.22,7.73,12.15,14.88" transform="translate(-28.12 -38.45)" style="fill:none;stroke:#edd056;stroke-miterlimit:10"/>
		<path d="M81.51,443.56a42.49,42.49,0,0,0-22.37,34.28A33.08,33.08,0,0,0,41.32,484" transform="translate(-28.12 -38.45)" style="fill:none;stroke:#edd056;stroke-miterlimit:10"/>
		<path d="M153.75,480.27a27.77,27.77,0,0,1,9.71,23.17,37.65,37.65,0,0,1,33.84,7.73" transform="translate(-28.12 -38.45)" style="fill:none;stroke:#edd056;stroke-miterlimit:10"/>
		<path d="M31.67,544.13l119.51-5" transform="translate(-28.12 -38.45)" style="fill:none;stroke:#edd056;stroke-miterlimit:10"/>
		<path d="M164.57,510.9a29.58,29.58,0,0,1,26.69,1.5" transform="translate(-28.12 -38.45)" style="fill:none;stroke:#edd056;stroke-miterlimit:10"/>
		<path d="M168.27,514.38l8.54,1.22" transform="translate(-28.12 -38.45)" style="fill:none;stroke:#edd056;stroke-miterlimit:10"/>
		<path d="M53.54,473.12a31.73,31.73,0,0,1,5-18.27" transform="translate(-28.12 -38.45)" style="fill:none;stroke:#edd056;stroke-miterlimit:10"/>
		<path d="M47.51,465.8v-7.31" transform="translate(-28.12 -38.45)" style="fill:none;stroke:#edd056;stroke-miterlimit:10"/>
		<path d="M409.71,574.34a20.62,20.62,0,0,1,3.16,16.35c-10.71,8.34-28.16,4.76-35.67-6.54s-4.75-27.86,5.26-37,25.79-10.76,38-4.92,20.73,18.32,23,31.7-1.28,27.4-8.48,38.9a22.62,22.62,0,0,1,32.39,26.41c10.55-2.13,21.39-4.27,32-2.46s21.09,8.47,24.24,18.76l-140.73,8.61" transform="translate(-28.12 -38.45)" style="fill:none;stroke:#edd056;stroke-miterlimit:10"/>
		<path d="M371.91,575.36A19.14,19.14,0,0,0,353.62,589" transform="translate(-28.12 -38.45)" style="fill:none;stroke:#edd056;stroke-miterlimit:10"/>
		<path d="M364.52,572.11c-6.68-2.12-14.68,2.63-16,9.5" transform="translate(-28.12 -38.45)" style="fill:none;stroke:#edd056;stroke-miterlimit:10"/>
		<path d="M342.52,570.52a14.5,14.5,0,0,0-5.87,9.93" transform="translate(-28.12 -38.45)" style="fill:none;stroke:#edd056;stroke-miterlimit:10"/>
		<path d="M460,603.25l13.44,12.17" transform="translate(-28.12 -38.45)" style="fill:none;stroke:#edd056;stroke-miterlimit:10"/>
		<path d="M485.32,668.19a68.94,68.94,0,0,0,31.75-3.47" transform="translate(-28.12 -38.45)" style="fill:none;stroke:#edd056;stroke-miterlimit:10"/>
		<path d="M204.57,602.7a18.62,18.62,0,0,0-1.39,15.67,14.15,14.15,0,0,0-25,10.14,11.72,11.72,0,0,0-20.09,5.23" transform="translate(-28.12 -38.45)" style="fill:none;stroke:#edd056;stroke-miterlimit:10"/>
		<path d="M174.36,643.22l98.78-3.82" transform="translate(-28.12 -38.45)" style="fill:none;stroke:#edd056;stroke-miterlimit:10"/>
		<path d="M227.8,576.54a36.52,36.52,0,0,1,40.63-3.74" transform="translate(-28.12 -38.45)" style="fill:none;stroke:#edd056;stroke-miterlimit:10"/>
		<path d="M189.7,470.54,195,451.73l2.93,15A18.16,18.16,0,0,1,180.58,463l23.6-3.71a29.67,29.67,0,0,1-20.24,14.17" transform="translate(-28.12 -38.45)" style="fill:none;stroke:#edd056;stroke-miterlimit:10"/>
		<path d="M220.65,487.76a13.5,13.5,0,0,1,2.83-10.35l2.86,10.14a15,15,0,0,1-11.72-1.84,22.61,22.61,0,0,1,13.07-1.4,36.62,36.62,0,0,1-13.1,9.54" transform="translate(-28.12 -38.45)" style="fill:none;stroke:#edd056;stroke-miterlimit:10"/>
		<path d="M302.13,551.06l3.46-8.36,2.59,8.59a26.81,26.81,0,0,1-10.26-5.09l14.06.31-8.37,7.1" transform="translate(-28.12 -38.45)" style="fill:none;stroke:#edd056;stroke-miterlimit:10"/>
		<path d="M359.71,532.88l2.74-8,2.83,9.2-10.55-6.25a6.18,6.18,0,0,1,8.89,1.49l-11.08,6.22" transform="translate(-28.12 -38.45)" style="fill:none;stroke:#edd056;stroke-miterlimit:10"/>
		<path d="M248.37,548.67l1.42-8.37,6.15,9.45L244.53,545a18.1,18.1,0,0,1,11.12-2.39,19.87,19.87,0,0,0-8.14,11" transform="translate(-28.12 -38.45)" style="fill:none;stroke:#edd056;stroke-miterlimit:10"/>
		<path d="M129.22,576.78a18.63,18.63,0,0,1,2.1-12.07l6.08,9.82A9,9,0,0,1,126,571.86l9.09-2.21L130.44,578" transform="translate(-28.12 -38.45)" style="fill:none;stroke:#edd056;stroke-miterlimit:10"/>
		<path d="M78,563.37a18.74,18.74,0,0,1,4.83-10.6l.51,9.41-6.21-4.6,6.94-.09a13.3,13.3,0,0,1-11,9.29" transform="translate(-28.12 -38.45)" style="fill:none;stroke:#edd056;stroke-miterlimit:10"/>
		<path d="M162,599.72l5.11-4.3-.22,6.9-9.22-6.89A16.62,16.62,0,0,1,173.39,602l-17.32,3" transform="translate(-28.12 -38.45)" style="fill:none;stroke:#edd056;stroke-miterlimit:10"/>
		<path d="M91.42,608.49l2.89-10a17.78,17.78,0,0,1,7.81,12.16,31.66,31.66,0,0,1-12.75-6.83l7.43,1-8.9,12.31" transform="translate(-28.12 -38.45)" style="fill:none;stroke:#edd056;stroke-miterlimit:10"/>
		<path d="M249.93,648.45l12.2-1.13" transform="translate(-28.12 -38.45)" style="fill:none;stroke:#edd056;stroke-miterlimit:10"/>
		<path d="M253.64,653.5l4.87,1.23" transform="translate(-28.12 -38.45)" style="fill:none;stroke:#edd056;stroke-miterlimit:10"/>
		<path d="M307.27,643.85l0-10.69,3.3,12.88a16,16,0,0,1-11.47-4.68l14,0a18.25,18.25,0,0,0-10.7,4.9" transform="translate(-28.12 -38.45)" style="fill:none;stroke:#edd056;stroke-miterlimit:10"/>
		<path d="M399.71,520.23l6.09-7.83,2.5,9.19-11.64-5.88,18.73.87a21.55,21.55,0,0,1-14.22,5.32" transform="translate(-28.12 -38.45)" style="fill:none;stroke:#edd056;stroke-miterlimit:10"/>
		<path d="M450.93,519.43l.87-5.48,2.67,14a24.4,24.4,0,0,1-10.53-8.31l10.74,0a9,9,0,0,1-4.77,8.28" transform="translate(-28.12 -38.45)" style="fill:none;stroke:#edd056;stroke-miterlimit:10"/>
		<path d="M464.59,585.32a24.58,24.58,0,0,1,6.39-11.5l3.21,11.07-9.51-7.83a17.25,17.25,0,0,1,10.87,2.5,12,12,0,0,1-8.54,4.33" transform="translate(-28.12 -38.45)" style="fill:none;stroke:#edd056;stroke-miterlimit:10"/>
		<path d="M491.41,534.1a13.3,13.3,0,0,1,1.2-9.66l6.06,9.41a29.49,29.49,0,0,1-14.47-2.49l12.94-3.24a23.45,23.45,0,0,1-4.61,14.44" transform="translate(-28.12 -38.45)" style="fill:none;stroke:#edd056;stroke-miterlimit:10"/>
		<path d="M331.26,711.33c-3.26-3.28.63-10.07,5.11-8.91l4.86,8.43-15.37-5.94a29.08,29.08,0,0,0,16.35-2.67l-8.11,12.35" transform="translate(-28.12 -38.45)" style="fill:none;stroke:#edd056;stroke-miterlimit:10"/>
		<path d="M349,723.36l8.47-8.6" transform="translate(-28.12 -38.45)" style="fill:none;stroke:#edd056;stroke-miterlimit:10"/>
		<path d="M356.4,728.16l1.1-2.5" transform="translate(-28.12 -38.45)" style="fill:none;stroke:#edd056;stroke-miterlimit:10"/>
	</g>
	<g id="Layer_4" data-name="Layer 4">
		<path d="M61.16,276c5.58-3.79,13.66-1.45,18.23,3.52s6.42,11.8,7.77,18.41c4.5,22.13,5,45.38-1.14,67.1s-19.5,41.82-38.64,53.8l45.94,3.44c-.93-9.1,9.69-14.41,18.3-17.48a278.68,278.68,0,0,0,41.31-18.65c9.68-5.36,19.25-11.48,26-20.26s10.21-20.74,6.5-31.16c-3.54-10-13-16.9-23.11-20.08s-20.87-3.18-31.45-3.15l12.2-19.73c1.16-1.89,2.38-4,2-6.18-.46-2.8-3.23-4.51-5.75-5.82a331.29,331.29,0,0,0-58-23.57c-5.63-1.69-20.14-8.43-24.54-3.63C52.91,256.85,62.42,275.16,61.16,276Z" transform="translate(-28.12 -38.45)" style="fill:none;stroke:#edd056;stroke-miterlimit:10"/>
		<path d="M123.35,284.26A51.2,51.2,0,0,0,102,277.09c.92,5.41,1.89,11,4.84,15.63s8.38,8.14,13.78,7.12,9.29-7.93,6.17-12.45" transform="translate(-28.12 -38.45)" style="fill:none;stroke:#edd056;stroke-miterlimit:10"/>
		<path d="M166.76,335.36c.16-2.46-2.6-4-4.95-4.71a66.32,66.32,0,0,0-37.28-.64c5.63,5.8,11.36,11.68,18.37,15.7a87.42,87.42,0,0,0,13,5.65,9.72,9.72,0,0,0,4.91.91c4.36-.74,5.49-6.41,5.6-10.84" transform="translate(-28.12 -38.45)" style="fill:none;stroke:#edd056;stroke-miterlimit:10"/>
		<path d="M59.32,256.11c.62.83,1.74-.91.9-1.52s-2-.09-2.87.42a10,10,0,0,1,5.76-3.22l-4.73,7.33,4.43-3.05a20.7,20.7,0,0,1-2.14,10.46A10.78,10.78,0,0,1,67.44,254c-.12,8-1.19,17.58-8.35,21.12l6-11.72c1.16-2.3,2.4-4.68,4.47-6.21s5.23-1.92,7.11-.15a25.62,25.62,0,0,0-8.91,16.67,16.33,16.33,0,0,1,10.9-13.16,17.59,17.59,0,0,0-6.12,14.6,24.11,24.11,0,0,1,7.65-15.08l-1.37,13.5c-.32-2.78-.64-5.69.32-8.33s3.58-4.9,6.35-4.45A35.71,35.71,0,0,1,76.07,276l5.55-14.65a13.53,13.53,0,0,1,12.62-2.11A116.36,116.36,0,0,0,80,280.09a53.77,53.77,0,0,1,7.73-17.79l4.06.18A263.79,263.79,0,0,0,84,289.36a38.83,38.83,0,0,1,13.65-22.12A43,43,0,0,0,87.49,289a66,66,0,0,0,14.66-20.36L88.87,294.94a39.88,39.88,0,0,1,16-30.95l-17,36.12A54.06,54.06,0,0,0,100.3,277.5c1-3.66,2.58-8.31,6.36-8.36a11.22,11.22,0,0,1-2.81,7.47,33.14,33.14,0,0,1,8.89-6.75,6.15,6.15,0,0,1-2.93,7.7,4.91,4.91,0,1,1,6.32-7.52,3.7,3.7,0,0,1-1.57,5.22,3,3,0,0,1,1.15-3.38,32.52,32.52,0,0,0-8.49,5l12.35-3.93a15.63,15.63,0,0,0-4.27,5.92c-.27-3.94,4.58-7.2,8.13-5.47a7,7,0,0,1-4.37,9.48c-.89-4.94,4.6-9.82,9.41-8.35a8.33,8.33,0,0,1-2.52,9.64,12.74,12.74,0,0,1-.49-8.37c.44-1.53,2.07-3.24,3.34-2.27a2.53,2.53,0,0,1,.77,1.49A15.27,15.27,0,0,1,126,288.59c-1.87-1.9-.46-5.41,2-6.54s5.24-.64,7.86-.12a11.41,11.41,0,0,1-6.61,3.42A13.94,13.94,0,0,1,142.48,281a30.8,30.8,0,0,0-12.74,10.78,5.61,5.61,0,0,1,6.26-5.19l-9.13,7,8-3.52a8.63,8.63,0,0,1-6.34,7.71,17.7,17.7,0,0,1,10.62-11.64,95,95,0,0,1-9.35,23.35" transform="translate(-28.12 -38.45)" style="fill:none;stroke:#edd056;stroke-miterlimit:10"/>
		<path d="M101,280.89a20.8,20.8,0,0,0-7.47,16.48c.09,2.82.06,6.69-2.71,7.24q5.61-7.85,10.8-16l-11.9,15.55a43.49,43.49,0,0,1,12.68-11.25,34.1,34.1,0,0,1-11,18.39,64.2,64.2,0,0,1,14.15-12.57A154.61,154.61,0,0,1,90,321.25l14.79-14.77c1.8-1.81,3.68-3.74,4.29-6.22s-.66-5.6-3.18-6c2.88,0,5,3.06,5,5.94s-1.56,5.5-3.14,7.91a108.53,108.53,0,0,1-15.31,18.36A294.92,294.92,0,0,0,117.93,297q-13.32,22.51-28.32,44a194.82,194.82,0,0,1,27.09-38.15L92.6,343.72q14-19.39,27.71-39.05a132.3,132.3,0,0,1-21.49,40.22,206.65,206.65,0,0,1,24.54-43.22,131,131,0,0,1-19.89,43.72,104.86,104.86,0,0,1,28.2-47.72,235.1,235.1,0,0,1-20.18,42,65.2,65.2,0,0,1,14.27-36.35c1.6,6.62-1.07,13.45-3.69,19.74l-7.35,17.65a28.73,28.73,0,0,0,11.55-25.63l.15,15.62a30.78,30.78,0,0,1,1.68-16,8.74,8.74,0,0,1,1.05,9.73,10.55,10.55,0,0,1,3.59-12.29,34.73,34.73,0,0,1-7,14.92,30.47,30.47,0,0,1,8.29-13.75,9.93,9.93,0,0,1-1.46,10.75,39.86,39.86,0,0,1,6.9-11.75,18.88,18.88,0,0,1-1.67,12A15.61,15.61,0,0,1,147,313.85a45,45,0,0,1-6.84,12,27,27,0,0,1,10.66-10.24,10.22,10.22,0,0,1-4.89,8.65,13,13,0,0,0,6.42-4.49,14.19,14.19,0,0,1-5.59,5.8c-2.18-2.44-.14-6.4,2.54-8.29s6.07-3,7.81-5.78a23.4,23.4,0,0,1-7.57,10.48" transform="translate(-28.12 -38.45)" style="fill:none;stroke:#edd056;stroke-miterlimit:10"/>
		<path d="M155.23,316.84a16.07,16.07,0,0,1-5.47,7l10.38-4.2-2.86,2.06a8.58,8.58,0,0,1,7.11-4.39,20.93,20.93,0,0,1-7.1,11.77c-.5-2.73-1-5.63,0-8.24s3.91-4.72,6.51-3.71A11.13,11.13,0,0,1,160,330a18.52,18.52,0,0,1,12.14-11.71q-3.78,6.7-8,13.13l7.53-6.62-.22,4a6,6,0,0,1,4.13-5.46A27.23,27.23,0,0,1,164.5,339l14-17a8.23,8.23,0,0,1-5.59,10.18,1.69,1.69,0,0,1-.14.88,48,48,0,0,1-6.55,12.5,23.46,23.46,0,0,1,11.51-14.81,27.29,27.29,0,0,1-4.05,10.6c-5.92,9.69-15.4,16.76-21.58,26.29a47.23,47.23,0,0,0-7.23,20.16c-2.12-5.45,2.22-11.08,6.12-15.45a260.65,260.65,0,0,0,30.16-41.41c-2.38,21.21-21.76,35.82-32.63,54.2,1.18-6.42,5.72-11.62,10.09-16.48l14.62-16.26c3.33-3.7,6.81-7.73,7.42-12.67A196,196,0,0,1,158.31,378a120.09,120.09,0,0,1,29.85-39.52L167.92,377c-3.52-10.28,1.46-22.75,11.08-27.79,2.68-.22,2.2,4.14.64,6.34L168,371.91" transform="translate(-28.12 -38.45)" style="fill:none;stroke:#edd056;stroke-miterlimit:10"/>
		<path d="M158.18,360.87c-2.49-.86-4.43,2.16-5.51,4.56a48.15,48.15,0,0,1-14.53,18.3c-2.76,2.11-6.12,4.67-5.68,8.12a60.89,60.89,0,0,0,23.62-33.65,173.34,173.34,0,0,0-27.27,36.66,63.57,63.57,0,0,1,14-24.59c4.23-4.61,9.58-10.09,7.77-16.07-7.55,17.34-21.65,30.84-35.4,43.85,9.81-8.09,17-18.8,24.14-29.35,3.8-5.65,7.72-11.64,8.29-18.43-.42,6.06-3.43,11.6-6.38,16.92l-16.76,30.29c-1.33,2.41-4.47,5.1-6.29,3a3.86,3.86,0,0,1-.73-2.54c-.14-9.1,7-16.4,13-23.27s11.46-16.39,7.58-24.63a10.81,10.81,0,0,1,8,11.38l-.39-12.56a189.08,189.08,0,0,0-19,30.52c-2.43-10.9,4.35-21.5,10.79-30.61a31.47,31.47,0,0,1-12,24.11,105.31,105.31,0,0,1,7.48-24.54,26,26,0,0,1-5.17,16,87.62,87.62,0,0,1,8.68-22,90.26,90.26,0,0,1-11.68,21.38,114.26,114.26,0,0,1-.77-17.64c.06-1.56.5-3.54,2-3.76,1.7-.25,2.64,1.9,2.84,3.61a29.39,29.39,0,0,1-.61,10.11,22.32,22.32,0,0,1,3.42-16A22.31,22.31,0,0,1,128,352.48a47.24,47.24,0,0,1-3-15.1,36.28,36.28,0,0,1-.31,9.48c-.24,1.45-.94,3.23-2.41,3.29-1.22.05-2.1-1.16-2.59-2.27a15.71,15.71,0,0,1-1.24-8.06,10.24,10.24,0,0,1,5.32,11.3c-2.93.66-5.53-1.76-8.07-3.36-6.19-3.9-14.09-3.25-21.36-2.47,7.11,2.13,14.79,4.65,18.92,10.82,3.07,4.58,3.59,10.35,4,15.84.49,6.21,1,12.57-.68,18.58s-5.83,11.7-11.83,13.38C111,400,115,393.24,117.07,386.19s2.34-14.47,2.62-21.8a10.91,10.91,0,0,0-.33-3.95,9.69,9.69,0,0,0-3.37-4.1,45.27,45.27,0,0,0-17.07-8.55c-2.66-.68-5.74-1.05-7.93.61s-2,6,.7,6.46c6.06-5.79,17-1.69,21,5.68s3.14,16.31,2.18,24.64" transform="translate(-28.12 -38.45)" style="fill:none;stroke:#edd056;stroke-miterlimit:10"/>
		<path d="M90.31,358.14c6.29-3.6,14.81-.95,19.53,4.56s6.23,13.11,6.23,20.36c0,5.14-.8,10.55-4,14.58a15.78,15.78,0,0,0,.75-17.1,23.09,23.09,0,0,0-2.34-3.12A55.43,55.43,0,0,0,88.8,362c2.65-4.57,10.22-3.45,13.34.82s3,10,2.62,15.28q-.66,8.47-2,16.89A20.84,20.84,0,0,0,125,389.51a22.16,22.16,0,0,1-8.76-11.72l-16.47-1.4c-3.4-.29-7-.64-9.75-2.62s-4.29-6.17-2.23-8.89c2.4-1.22,5.48-.2,7.29,1.79a13.57,13.57,0,0,1,3,7.38,32.83,32.83,0,0,1-1.92,16.33c-.74,1.89-1.66,4-.89,5.85,1.27,3.07,5.63,2.86,8.87,2.12,1.76-4.67-3.09-9.1-7.6-11.23s-10-4.39-11-9.28c3.48-1.09,7.3,1.39,8.82,4.7s1.23,7.15.53,10.72c-.56,2.84-1.34,5.84-.32,8.54s4.86,4.45,6.87,2.38c2.37-2.45-.33-6.41-3.11-8.36a43,43,0,0,0-13.78-6.4c-3-.77-6.79-2.23-6.47-5.26,5,1.54,12.17-2.51,14.76,2a8,8,0,0,1,.7,4v15.61c2.48,1.24,5.42-1.79,5-4.53s-2.89-4.7-5.4-5.87a21.42,21.42,0,0,0-12.87-1.61l-1.37-5.65c7.17-3.29,16.7,3.47,15.95,11.33-.28,2.94-1.07,7,1.75,7.89-2-3.3-6.45-3.95-10.28-3.69s-7.92,1-11.34-.74-4.88-7.42-1.5-9.24c3.08-1.66,6.71,1.47,7.94,4.75s1.42,7.08,3.7,9.73,7.93,2.29,8-1.21c-7.8-3-16.35.78-24.5,2.67-1.67.38-4.12.12-4.16-1.59A3,3,0,0,1,65.75,406c2.19-2,4.53-4.08,7.44-4.69s6.48.91,7,3.84c.33,1.85-.61,3.85,0,5.61.94,2.53,4.31,2.91,7,2.87a8.67,8.67,0,0,0,4.63-.95c1.35-.87,2.09-2.87,1.08-4.11a4,4,0,0,0-2.29-1.17,26.77,26.77,0,0,0-21.62,4.31c-1.84,1.34-5.1,2.52-5.76.35a51.07,51.07,0,0,1,22.47,6.44l.38-6.31a107.41,107.41,0,0,0-31.62,3.51q19.51-.37,39,.95" transform="translate(-28.12 -38.45)" style="fill:none;stroke:#edd056;stroke-miterlimit:10"/>
		<path d="M161.15,300.32c-5.71-12.86-.39-29.6,11.71-36.79a16.81,16.81,0,0,1,9.56-2.72c5.14.36,9.41,4,12.92,7.78a84.15,84.15,0,0,1,16.17,25.33c1.66,4.06,3.31,8.61,7.17,10.68,6.23,3.32,13.8-2.15,17-8.44s4.26-13.72,8.67-19.23c2.18-2.72,5.32-5.83,4-9.06a6.77,6.77,0,0,0-3.83-3.25,23.64,23.64,0,0,0-22.94,2.5c-12.13,8.81-9.93,27.47-20.27,36.08C196.8,307,162.72,303.85,161.15,300.32Z" transform="translate(-28.12 -38.45)" style="fill:none;stroke:#edd056;stroke-miterlimit:10"/>
		<path d="M182.4,269.52c-3.52-1.92-7.26,2.66-7.64,6.65s.5,8.51-2,11.65c5.34-1.21,11-3.23,13.82-7.95s.07-12.47-5.4-12.38" transform="translate(-28.12 -38.45)" style="fill:none;stroke:#edd056;stroke-miterlimit:10"/>
		<path d="M229.9,270.3a23.94,23.94,0,0,0-12.11,7.77,5.78,5.78,0,0,0-1.52,3c-.31,2.78,3.27,4.75,5.92,3.84s4.27-3.6,5.17-6.25,1.33-5.5,2.7-7.95" transform="translate(-28.12 -38.45)" style="fill:none;stroke:#edd056;stroke-miterlimit:10"/>
		<path d="M175.06,267a65.47,65.47,0,0,1-12.85,18.38A17,17,0,0,1,167.37,268a35.54,35.54,0,0,1-3.57,19.24A91,91,0,0,0,174.21,265c-6.64,5.46-13.73,11.67-15.14,20.16-.38,2.27.75,5.53,3,5a3.68,3.68,0,0,0,1.8-1.4A32.82,32.82,0,0,0,170,276.77a143.56,143.56,0,0,1-6,17.85c-1.5-2-1-4.92.55-6.87s3.79-3.14,6-4.27a40.66,40.66,0,0,1-6.83,22q5.38-9.25,11.66-18a7.59,7.59,0,0,1-1.93,10.16c-.57-2.17-1.12-4.59-.08-6.59s4.44-2.66,5.41-.62a4,4,0,0,1,.25,2,15.12,15.12,0,0,1-2.39,7.25,23.89,23.89,0,0,1,3.84-11c4.47-6.75,12.44-11.36,14.54-19.18l-6.66,6.69a28,28,0,0,0,2.79-10.47,3.06,3.06,0,0,0-3,4,11.11,11.11,0,0,0-13-3.52c3.59-4.06,11.59-1.9,12.66,3.41" transform="translate(-28.12 -38.45)" style="fill:none;stroke:#edd056;stroke-miterlimit:10"/>
		<path d="M191.34,277.18a93.24,93.24,0,0,0-13.9,19.91l-1.14,3c10-5.39,7.06-23.73,17.66-27.84a306.78,306.78,0,0,1-14.7,31.19l13-18.35c2.54-3.58,5.22-7.86,4-12.08L184.8,302.92a82.58,82.58,0,0,1,12.37-20.75l-2.87,21,1.54-20c.18-2.33,1-5.35,3.39-5.36,1.7,0,2.9,1.88,2.81,3.58a9.43,9.43,0,0,1-2,4.61l-11.37,16.81L200.11,286a24.27,24.27,0,0,1-6.43,16,11.29,11.29,0,0,0,10.79-11.41A4,4,0,0,1,203,295a3.8,3.8,0,0,1,5.88-1.95" transform="translate(-28.12 -38.45)" style="fill:none;stroke:#edd056;stroke-miterlimit:10"/>
		<path d="M210.79,288.73c1.6,1.13,2.57-2,2.32-3.94a16,16,0,0,1,11.82-17,20.56,20.56,0,0,0-9.67,10.1A33.52,33.52,0,0,1,232,265.34a13.75,13.75,0,0,1-.76,10.27A10.4,10.4,0,0,0,236,264.73a3.67,3.67,0,0,0-3.21.31c-2.13.86.2,4.12-.32,6.36-.25,1.11-1.23,1.86-2,2.67-2.25,2.29-3.29,5.46-4.82,8.27s-4.05,5.55-7.26,5.62-6-4.22-3.77-6.49c.22,2.38-.65,4.73-.71,7.12s1.21,5.19,3.58,5.46c2.14.23,3.85-1.65,5.13-3.38A193,193,0,0,0,239,264.39a11.33,11.33,0,0,1,1.81,4.93c.78,6.61-4.16,12.37-8.75,17.19l-8.77,9.2c-1.93,2-4.21,4.19-7,4.1s-5-4.16-2.68-5.71a14.35,14.35,0,0,1,7.23,7.21,344.41,344.41,0,0,1,21.87-35.1,14.51,14.51,0,0,1-.7,8.92l.38-5.58c.93-.66,2.29.38,2.36,1.51a4.86,4.86,0,0,1-1.32,3.07l-21.27,28.5a28.51,28.51,0,0,1,10.93-12.31,19.3,19.3,0,0,1-8,11.78c-.84.08-.18-1.58.58-1.19s.7,1.49.42,2.3a9.43,9.43,0,0,1-3.16,4.4" transform="translate(-28.12 -38.45)" style="fill:none;stroke:#edd056;stroke-miterlimit:10"/>
		<path d="M263.36,263.06c-.93,1.33-.86,3.1-.75,4.73.94,14.42,1.19,29.73-6,42.29-10.26,18-36,25-54,14.66a58,58,0,0,1-11.28,39.95,74.45,74.45,0,0,1,39.08-16,116.28,116.28,0,0,0-20.71,80.89c.38,3.08.91,6.24,2.54,8.89,2,3.3,5.52,5.4,9,7.21,16.18,8.5,34.83,13.4,52.85,10.35s35.08-15.06,41-32.35a62.63,62.63,0,0,1-30.8-7.16c2.14,9-7,17.93-16.28,17.67s-17.19-7.51-20.86-16-3.87-18-3.6-27.29c.27-9,1.25-18.7,7.38-25.25,10.58-11.29,29.28-6.73,43.32-.22a165.53,165.53,0,0,1-.09-36.29,56.35,56.35,0,0,1-31.9,2.76c-3.11-.64,30.82-70.89,28.81-76.63C286.18,256.24,266.21,259,263.36,263.06Z" transform="translate(-28.12 -38.45)" style="fill:none;stroke:#edd056;stroke-miterlimit:10"/>
		<path d="M265,264.32a6.93,6.93,0,0,1,4.29-2.88L264.49,268a56.81,56.81,0,0,1,6.77-6.48,33.16,33.16,0,0,0-11.11,14.06,22.13,22.13,0,0,0,16-12.51c-7.71,2.3-6.13,14.65-12.31,19.8-2.14-2.52,0-6.29,2.13-8.82l11.45-13.75L260.5,282.92A128.67,128.67,0,0,0,285.63,261c-1.88-1.28-4.14,1-5.25,2.95a126.48,126.48,0,0,0-9.48,21.31c-1.64-4.86,2.11-9.73,5.6-13.49l12.22-13.16a70.5,70.5,0,0,1-19.67,18.11c-4,2.47-8.89,5.61-8.52,10.3A76.85,76.85,0,0,0,281.28,271l-18.11,21.4a35.51,35.51,0,0,1,17.18-15A71.49,71.49,0,0,0,264,297a37.75,37.75,0,0,1,11.15-9.79,79.5,79.5,0,0,0-12.42,8.57,6.07,6.07,0,0,0,6.62-.93,13.26,13.26,0,0,0-12.53,8.35,23.67,23.67,0,0,0,15.06-3.62c-3-.13-6.09-.22-8.66,1.23s-4.15,5.08-2.41,7.48l6.31-2.56L258.3,309a20.79,20.79,0,0,0,7.64.8,6.13,6.13,0,0,0-8,4.53l5.88.2a60.2,60.2,0,0,0-11.27,3.4l11-2.25-19.05,1.81a17.17,17.17,0,0,0,13.83,3.34l-20.94,6.58c6.32,3.68,13.38-8.82,19.92-5.55A85.92,85.92,0,0,0,227.9,345a147.41,147.41,0,0,1,26.16-16.65l-23.8,20.28a121.8,121.8,0,0,0,28.2-17.18,133.18,133.18,0,0,0-33.11,25.81,143,143,0,0,1,32.55-24.69" transform="translate(-28.12 -38.45)" style="fill:none;stroke:#edd056;stroke-miterlimit:10"/>
		<path d="M205.65,329.38c-.87,1.18,1.76,2.53,2.21,1.15a5.83,5.83,0,0,1-5.1,6.43,11.49,11.49,0,0,1,10.47-9.45,38.11,38.11,0,0,1-12.69,19.3A50.81,50.81,0,0,1,221,332.14,98.84,98.84,0,0,1,198.37,355c6.13-10.83,16.73-18.25,27-25.3a152.94,152.94,0,0,1-19.46,24,85.49,85.49,0,0,0,28.45-22,11.89,11.89,0,0,0-12.67,9.12c-.33,1.59-.32,3.26-1,4.75s-2.3,2.74-3.84,2.21a32.32,32.32,0,0,1,18.48-17.39l-11.62,14.49" transform="translate(-28.12 -38.45)" style="fill:none;stroke:#edd056;stroke-miterlimit:10"/>
		<path d="M260.68,334.48,229.5,356.55c-2.07,1.47-4.37,3.34-4.37,5.89a98.25,98.25,0,0,0,32.77-26.23,149.71,149.71,0,0,0-29.14,33.32,238.47,238.47,0,0,1,38.87-38.59,149.86,149.86,0,0,0-34.94,38.51,111.83,111.83,0,0,1,29.91-29.16q-10.91,16.06-20.47,33c-.41-14.88,9.48-29.49,23.45-34.64a63.7,63.7,0,0,1-16.75,22.58A86,86,0,0,1,273.51,333c1.76,8.23-5.69,15.28-12.37,20.4A20.3,20.3,0,0,1,278.25,337a26.56,26.56,0,0,1-16.95,18.48,50,50,0,0,1,21.52-14.49,22.43,22.43,0,0,1-8.31,13.26,3.07,3.07,0,0,1-1.31.66c-2.34.32-2.06-3.57-.66-5.47a79.38,79.38,0,0,1,14.33-14.91,64,64,0,0,1-15.12,25.21l17.81-24.14A45.74,45.74,0,0,1,280,360.67a43.14,43.14,0,0,1,2.92-9.67,4.4,4.4,0,0,1,1.62-2.2c2.4-1.37,4.78,2.23,4.46,5s-1.72,5.67-.43,8.12l0-12.36,0,11.68a44.34,44.34,0,0,1,4.4-23.38,107.77,107.77,0,0,1,0,21.92" transform="translate(-28.12 -38.45)" style="fill:none;stroke:#edd056;stroke-miterlimit:10"/>
		<path d="M243.14,371.48c-5.07,4-11.36-5.2-17.77-4.52-2.71.28-4.86,2.32-6.79,4.24-2.73,2.72-5.66,5.94-5.44,9.78,4.18-3.7,8.61-7.55,14.07-8.73s12.16,1.41,13.5,6.84c-3.73,1.43-7.22-2.35-10.9-3.9-7.09-3-15.88,5.17-13.48,12.47,5-2.29,8.67-6.91,13.62-9.36s12.69-1.16,13.56,4.29c-5.46,1.51-11.22-.55-16.89-.54s-12.4,4-11.43,9.54a128.81,128.81,0,0,1,21.6-.57c2.65-3.28-2.91-7.89-6.8-6.27s-5.65,6-7.52,9.79-5.11,7.79-9.3,7.35a3.19,3.19,0,0,1-1.93-.8c-1.64-1.61.18-4.44,2.27-5.38,8.7-3.91,17.89,5.63,27.42,5.38l1.51-8.75c-7.15-1-12.66,5.84-16.87,11.7S214.87,416.25,208,414c-2-4,1.9-8.89,6.29-9.82s8.84.69,13.14,1.94,9.21,2.08,13.05-.23c-4.88-4.56-14.29-2-16.15,4.45-.51,1.79-.52,3.7-1.06,5.48-1.71,5.58-8.57,8.33-14.27,7.07a79.7,79.7,0,0,1,27.86-3.64,5.61,5.61,0,1,0-7.73-8.05c-1.31,1.52-1.71,3.6-2.31,5.51a23.88,23.88,0,0,1-11,13.59l-3.57,1.35,24.31-7.31a12.82,12.82,0,0,0,5.49-2.67c1.47-1.44,2.11-3.94.85-5.57-5.76-2.32-10.76,4.64-12.86,10.49s-5.93,13.13-12.05,12.07l0-6.89q15.09-1,30.13-2.8c1.26-1.84.3-4.58-1.56-5.81a8.6,8.6,0,0,0-6.48-.82A17.66,17.66,0,0,0,226.4,438.2c-.09,1.73.07,3.53-.63,5.11s-2.69,2.78-4.18,1.89c-1-1.8.1-4.17,1.81-5.3s3.85-1.35,5.9-1.53l17.34-1.53c2.27-.2,4.68-.45,6.53-1.79s2.83-4.18,1.41-6a5.24,5.24,0,0,0-4.31-1.54,13.66,13.66,0,0,0-12.77,11.18c-.34,2.13-.17,4.4-1.06,6.36s-3.51,3.41-5.23,2.11c-.17-3.69,5.39-3.72,9-3.19a22.3,22.3,0,0,0,13.58-2.42c3.21-1.72,5.91-6.64,2.79-8.52-1.84-1.11-4.38.19-5.35,2.1s-.82,4.19-.65,6.34l1,12c-2.19.53-3.75-2.65-2.72-4.66s3.35-2.93,5.48-3.68l14.82-5.22c.91-1.14-1.17-2.67-2.42-1.91s-1.51,2.42-1.65,3.87L264,453.39c-4.43-2-3.24-9.08.46-12.24s8.8-4.26,12.62-7.27c-2.41-3.35-8.34.11-8.32,4.23s3.38,7.38,6.52,10.05c-.34.91-1.86.67-2.3-.19a3.85,3.85,0,0,1,.14-2.84L276.28,435a45.6,45.6,0,0,1,9.36,16.75c-6.08-4-6-12.78-5.22-20-2.71,2.22.12,6.51,3,8.45s6.53,5,5,8.13l-4-17.1a17.55,17.55,0,0,0,15.23,14.94,5.11,5.11,0,0,1-6.11.89,32.37,32.37,0,0,0-5.81-17.18c1.7,3,5.71,3.26,9,4.13s6.85,4.23,5.1,7.16c-4.34,1.54-9.29-1-11.95-4.77s-3.54-8.46-4.26-13c1.74,9.23,17.77,7.57,21.74,16.08-5.5,1-9.44-5-11.82-10.07s-6.6-11-12-9.64a69.27,69.27,0,0,1,23.94,12.82A18.06,18.06,0,0,1,291.65,424a49.7,49.7,0,0,1,20.87,5c-5.44,7.34-13,12.79-20.42,18.11a21.31,21.31,0,0,1-14,5.1l-22.75,2c-4.85.43-10.13.76-14.17-2-2.15-1.43-3.71-3.6-5.81-5.1a49.88,49.88,0,0,0-6.08-3.14c-11-5.76-15.28-19.76-14.33-32.16s5.9-24.1,8.62-36.23" transform="translate(-28.12 -38.45)" style="fill:none;stroke:#edd056;stroke-miterlimit:10"/>
		<path d="M349.52,347.49c-8.48-6.94-27.1-6.6-34.44,1.43s-9.54,24.61-9.46,35.15c.09,12.86,3.21,21.23,16.13,24.12,10.51,2.36,35.26-1.85,38.42-12.89-8.27.28-14.82-.5-20.7-6.26-8.24,15.92-26,11.76-25.31-6.19.46-12.54,22-36.69,24.65-14.66C338.52,358.38,349.69,349.67,349.52,347.49Z" transform="translate(-28.12 -38.45)" style="fill:none;stroke:#edd056;stroke-miterlimit:10"/>
		<path d="M344.64,351.15c-3.17,3.05-5.48,8.56-8.32,11.79-1-5-.29-7.25,3.26-9.23a30.29,30.29,0,0,1-.09,3.57c-1.93-5.24-1-7,2.77-9.7.67,3.15,1.23,3.5.22,6.92.54-4.68-1.16-5.81-2.41-8.44-4,5.1-6.15,13.38-11.07,15.91-1.72-21.52,12.49-13.61,7.38-3.51-.13-3.76-1.46-7-1.61-10.73a17.47,17.47,0,0,0-10.67-2.59c-.17,5.78,2.76,10.19,3.25,15.67-3.93-3.09-6.09-8.44-8.16-13.1,5.33,1.14,9.18,7.13,8.2,13-6.09.69-8.05-5.23-9.63-10.57a47.33,47.33,0,0,0,.82,13.34c-4.8.11-7.41-2.57-8-7.21.31,0,3-.07,3.27-.13a13.91,13.91,0,0,1,3.75,10.69c-4.85-1.18-5.4-6.65-5.68-11.41,0,3.88,1.34,8.73,2.05,12.61-.43.52-2.47.16-3.12.36,1.78,3,1.08,4.15,2,7.13-5.2-1.92-9.16-6.38-8.29-12,6.91.79,8,9.63,3.41,13.56-.64-3.16-1.05-5-.21-7.52.42,4.89.25,9.95.27,14.93-.1-4.15-.05-8.4.14-12.48,8.18,2.49,2.32,15.78-6.05,15.56,0,0,0-3.27,0-3.3,5.1-1.12,8.17.69,8.16,5.74a35.67,35.67,0,0,1-4.51-.22,18.23,18.23,0,0,1-.13-8.18c8.7,1.62,6.29,11.33,5.8,18a29.29,29.29,0,0,0-2.16-3.42c7.47-4.33,17.42,9.15,7.71,11,1.27-3.56-.32-5.5,2.87-8.56-2.84.16-5,.23-7.65,1.35,5.35,1.35,4.93.52,8.52,4.08,1-.87,2-1.73,3-2.58a43.51,43.51,0,0,0-.12,4.43c.84-3.13,4.71-3.51,5.14.34-.8-5.1-.4-2.77,1.32-6.86.33,1.82-.37,2.38.44,4.14.47-1.28,1.87-3.19,2.17-6.06a26.29,26.29,0,0,1,.74,11.82,9.16,9.16,0,0,1,1.52-14c-.62,3.76,0,8,.09,11.76,3.25-1.28,4.81-6,5-10.32a91.51,91.51,0,0,1,4.15,10.42c-2.84-2.51-8.93-10.86-4.54-14.68,7-6.06,7.91,9.52,5.57,12.29a15.54,15.54,0,0,1-1.64-10.91c4.61.33,5.71,4.47,4.88,9,2.29-4.36,3.83-1.62,7.13-3" transform="translate(-28.12 -38.45)" style="fill:none;stroke:#edd056;stroke-miterlimit:10"/>
		<path d="M312.94,253.59c-8.92,24.34-23.55,45.45-32.77,67.8,23.63-5.19,71.91-14.64,91,4.09,20.81,20.39,3.81,57.95-7.36,78.11-9.93,17.93-26.81,29-47.07,33.1-3.63,18.38,26.62,12.48,38.38,11.83-1.19-16,18.33-51.85,34.71-57.89,28.72-10.58-1.91,55.49-3.48,64,15.47,2,34.81-1.67,50.75-2.41,2.42-8.53-8.2-16-10.55-24.2-2.84-9.95-3.41-22.19-3.92-32.38-.91-17.79,4.92-34.83-10.95-46-9.2-6.49-12.77-6.37-17.35-17.65-3-7.3-3.38-15.54-9.45-21.64-12.45-12.51-36.15-10.95-52.47-11.7C303.94,297.3,321.38,272.79,312.94,253.59Z" transform="translate(-28.12 -38.45)" style="fill:none;stroke:#edd056;stroke-miterlimit:10"/>
		<path d="M312.94,260.9c-.83-1.53-.17-2.67-2.53-3.19.17,3-.57,6.49-.18,9.28a34.89,34.89,0,0,1-1-4c-.37,2.86-.66,7-1,8.74-1.22.73,4.1-2.78,3.38-2.12-2.2,4.34-2.46,3.16-5.86,4.5.74-4.8-.2-3.53,3.27-5.75,1.61,8.14-.55,15.09-9.45,16.73a59,59,0,0,0,10.66-9.48c-.07,5.34-4.25,9-9.38,9.24,1.21-7.06,9.48-9.11,6.27-.46-2.37,6.39-8.24,6.15-13,10.6,3-5.56,12.38-9.09,18.6-9.52.78,9.1-12.35,12.27-17.68,18.18,3.65-2.58,7.76-5.89,12.68-6-7.74,8.29-14.51,15.46-25.11,19.3.85-10,8.93-17.49,19.17-16.83-.5,6.75-8.32,11.46-13.78,14.27,5.79-3.47,15.26-8.25,13.74-15.54-4.06.08-8,2.29-11,5.43,8.86-2.87,14.43-11.89,23.16-14,2.27,10.38-11.88,20.19-19.23,24.27,3.76-6.11,11.79-11.52,18.28-14.92,2.77,6.69-6.54,15.09-12.09,17.27-3.21-10.63,7-13.51,12.21-18a3.45,3.45,0,0,1,2.3-.38c2.93,5-.65,11-3.47,15.72,0-6.36,5.49-12.07,11.75-11.46,1.2,6.06-3.22,10.81-8.37,13.19-4.11-7.9,8.19-13.42,15.09-13.81-2.09,1.5-4.68,4.85-6.22,6.19,3-1.8,6.7-3.34,9.62-5.67a12.34,12.34,0,0,1-8.24,8.85c-.66-5.53,3.62-8.39,9.13-7.93.71,4.37-.31,7.69-3.58,10-1.88-6.35,3.1-14.46,10.89-12.33-1.47,2.34-1.58,4.58-4.85,6.73a11.5,11.5,0,0,1,10-6.51c-3.43,5-10.12,6.58-13.46,12.49,2.55-3.93,8.09-5.65,13.17-5.43,0,5.58.28,5.36-4.53,5.65-2-8.8,6.9-11.85,14-10.52,2.36,6.44-2.86,10.38-7.92,13.22,1-4.71,4-9.31,4.88-14.44a24.06,24.06,0,0,1,9.6-.07c-1.36,5.65-2.34,11-7.46,13.66-2.45-6.13,3.45-11.86,9.7-10.93a12.64,12.64,0,0,1-3.57,11.39c-2.43-5,.63-9.75,5.22-11.76,5.29,4.59,3.48,9.64-1.47,12.45-4-6.27,2.28-10.73,8.33-9.62,1.24,5-.42,9.39-5.05,12,1.3-5.53,5.93-8.83,11.21-7.07-.74,5.19-3,9.71-7.46,12.24.06-6.09,3.88-11.89,8.86-14.86-2.85,5.49-8.57,8.81-11,14.44a127,127,0,0,0,11.12-8.25,32.83,32.83,0,0,1-5.29,13.36c1.15-5.05,5-9.51,8.85-13.2a123.63,123.63,0,0,1-9.09,12.93c1.87-3.27,4.88-5.37,7.78-7.35-1.53,3.67-2.57,7.54-5.51,10.32a34.61,34.61,0,0,1,8-9.25c-.74,5.27-3.75,9.54-7.14,13.63A23.07,23.07,0,0,0,389.51,331c-1,4-5.51,8.45-6.63,13.51,1.61-5.19,6.26-6.79,11.18-5.39-4.47,3.25-7.89,8.4-12.29,9.37a35.5,35.5,0,0,1,11.75-3.7c-3.23,7.12-10.6,11.35-14.27,18.41,7-5.52,15.33-11,20.81-18.13-4.9,8.14-12.35,15.43-18.8,22.55,7.7-7.73,15.61-17.72,24.26-23.87C403,358.28,384,366.42,373.77,375c11.08-10.35,27.84-14.76,37.41-25.33-6.39,15.47-20.38,27.6-33.62,36.76-3.14-10.4,24.83-22.47,32.05-31.65,1.71,14.46-39.23,39.84-33.31,19.64,14.23.77,20.76-13.13,33.33-13.81-3.16,5.42-18.19,25.47-25.74,28.74-9.42,4.08-13-4.39-4-5.9.75,7-6,9.41-9.63,14" transform="translate(-28.12 -38.45)" style="fill:none;stroke:#edd056;stroke-miterlimit:10"/>
		<path d="M322.69,439c-2.82,4.32-8.33,1.76-9.6-3.44,1.85.14,3.88-.24,5.79,0-.34.4-1.65,3.21-2.34,4.24.71-2,1.81-3.09,2.52-4.67.39,2.24,1.38,4.7,1.2,7.71,0,.92-.05.87-.07-.15s.25-1.46,1-.89a56.84,56.84,0,0,1,.09,6.77c.24.05-3.65.21-3.29,0,.22-4.73-.15-5.12,4.51-7-.15,2.07.38,4.38.12,6.55,1.93-5.69,5.85-10,12.07-8.93a17.16,17.16,0,0,1,0,5.72,16.4,16.4,0,0,1-5.72.1c.59-2.34-.94-5.94-.37-8.29-.26-.13-5.09-1.28-4.51-1.22.6,2.85.08,7.23-1.22,10.82,3.25-3.43,4.93-8.46,6.86-12.1.35,4.24.33,8.65.27,13-1-5,.61-9.56,4.91-12.16,1,3.6,1.79,7.06.24,10-1.68-7.22.46-14.55,8.08-15.45.33,7.1-.92,17.27-8.17,19.07-2.28-7.91,2.53-12.81,6.89-17.95.32,4.68.3,9.4.25,14.11.35-6.2,2.51-12.05,4-17.88,4.06,5.15.85,12.8.68,19.38-3.65-4.89-2.38-14-2.06-20.5a4,4,0,0,1,2.33-.37c2.31,6.11,1.15,14.91,1.15,21.93-.8-6.84,0-18.46,4.91-23.21,3.16,6.37.21,15.24-2.5,21.88-3.75-17.07,3-21.6,11.3-33.89-3.21,4.11-7.17,7.44-10.19,11.8a1.2,1.2,0,0,1,1.09-.81c-.31,2.09-.38,6.34-.42,8.45,7.2-9,19.95-20.88,22.24-32.22-5.09,4-6.76,10.91-11.6,13.74-.06-5.34,2.38-9.75,6.07-13.88-.23,6.12-3.39,11.08-6.07,16.43-1.41-18.41,16.66-19.65,24.7-27.89,12.3-12.58,7-21.18,26.31-25.59-3.67,10.75-16.3,19.24-21,30.19-.39-2.9,14.77-35.43,22.26-32.45C428.08,364.89,401.5,387,398.46,392c3.11-6.55,11.63-14.24,17-19.43A32.3,32.3,0,0,1,408,392.26c-.13-5.41,3-10.1,6.26-14,1.09,8.1-6.87,13.54-12.92,17.5,4.4-5.28,6.5-12.11,13.78-12.77,4.93,9.22-3.54,14.16-11.71,16,0,.8,0,2.45,0,3.28,6.91,1.88,14.4-2.17,12.85-9.51-14.24,1.89,1.84,21.38-15.21,17,5.82-.17,17.28-2.1,16.85-9.29a14.65,14.65,0,0,0-8.3-.3c-.12,8-1.13,20-12.15,19.17,3.26-4.08,12-4.05,17.77-2.35.92-2.67,1.63-4.47,1.25-7.22-5.63,6.3-4.24,21.65-17.4,16.79,7.93-1.17,17.67-1.08,24.81-3.06a35.74,35.74,0,0,0-3.53-3.91c-3,9.91-17,16.82-28.1,12.42,11-3.81,19.12,3.31,30.41,2,.4-2.33.63-6.13-.05-8.4-6.5,4.23-.68,9.27-3.59,14.36C415.75,445.47,405.09,452,399,452.4c-14.57.87-11.63-8,1.21-7.35,8,.4,20.41,8.31,26.49,1,8-9.57-7-15.43-6.42-2.13,4.46,3.32,9.17,7,15.08,6-10.9,1.09-51.42-20.78-48,5.64,3.25.58,53.44-4.53,53.76-8,.3-3.33-12.48-6.93-14.55-9.34-3-3.47-5.41-14.43-7.7-19.3-7.48-15.86,7.58-62.89-19.38-66.55" transform="translate(-28.12 -38.45)" style="fill:none;stroke:#edd056;stroke-miterlimit:10"/>
		<path d="M470.25,376.76c-7.86-22.5-32.05,5.14-34.14,17.68-1.22,7.3.53,25.94,4.52,31.4,7.65,10.48,18.2,2.88,27,2.27.32,6.23,1.61,16.58-1.6,20.62,23.65,3.1,16.86-23.22,17.63-38.78.81-16.51,5.34-29.39,8.08-44.26a44.69,44.69,0,0,1-18.2-2C472.09,369.53,473.18,375.68,470.25,376.76Z" transform="translate(-28.12 -38.45)" style="fill:none;stroke:#edd056;stroke-miterlimit:10"/>
		<path d="M467.82,384.07c-2.72-7.41-11.45-5.88-11,2.41.43,8.08,8.6,8.55,11,1.25" transform="translate(-28.12 -38.45)" style="fill:none;stroke:#edd056;stroke-miterlimit:10"/>
		<path d="M448.3,426.76c-2.44-2.22-2.05-4-5.92-3.84.36-2-.53-2.49-1.39-3.48" transform="translate(-28.12 -38.45)" style="fill:none;stroke:#edd056;stroke-miterlimit:10"/>
		<path d="M439.77,419.44c3.13,1.61,5.29,3.47,8.33,5.09a33.31,33.31,0,0,0,1.27,4.45,19.38,19.38,0,0,1-5.74,0c-1.49-3.3-3.22-6.6-4.63-9.38a128.73,128.73,0,0,1,9.11,9.14c-3-5.33-7.63-8.19-10.35-13.08,6.47,2.24,12.77,7.58,16.58,13.29-5.15-.52-16.39-9.08-18.07-14.23,7.54,1.41,15.29,9.21,21.36,13.28-9.84-1.51-15.76-17.33-20.42-25a142.51,142.51,0,0,0,5.79,14.1c-5.13-1-5.71-5.38-4.33-10.73,7,3.09,21.65,15.53,25.42,22.66-9.89-1.13-23.75-22.17-27.86-30.08,10.71,1.92,21.25,22.28,31.46,27.67-10.51-7.13-17.88-22.23-27.77-31C443,410.7,468.64,421.27,480.55,429c-18.45-8-30.05-23-44.11-37.42,17.49,5.29,29,24.39,43.87,34.1-14.76-6.58-25.93-30.12-40.61-39.52,9-.72,33.93,25.18,40.54,34.46-15.2-9.92-22.7-28.47-36.38-39.87a15.7,15.7,0,0,0,6.88,9.45" transform="translate(-28.12 -38.45)" style="fill:none;stroke:#edd056;stroke-miterlimit:10"/>
		<path d="M444.64,382.85c-.3-.2,4.71,2.68,6.5,4.66.43.47.41.49-.07.07a23.21,23.21,0,0,0-3.5-8.26c2.26,3.71,4.26,7.3,6.37,11-4.86-1.5-6.32-6.62-6.4-11.21a15.2,15.2,0,0,1,8,8.62,35.61,35.61,0,0,1-4.23-11.12c1.93,3,2.94,4.36,4.1,7.4a17.21,17.21,0,0,1-1.92-9.3c.37-1,1.19,3.84.8,3.12.71.31-5.21-1.15-4.23-1.29.42-.52,2.89-3.33,2.89-3.32.44,3.48,2.95,7.19,3.71,9.6-1.14-2.85-1.42-7-3.05-9.87a18.58,18.58,0,0,1,9.21,8.49c-3.14-1.21-4.91-5.08-4.53-9.34,5.23-.31,8.85,2.87,9.44,8.22-4.89.47-7.79-2.18-8.25-7,6.71,1,9.21,8.88,11.85,14.41a52.43,52.43,0,0,1-6.67-11c10,0,13.75,12.09,20.14,18.18-7.61-2.35-10.54-13.73-11.82-20.42,3.48,3.45,6.59,8.63,9.33,12.84-4-3.92-8.11-8.61-9.48-14.06,7.07-.68,8.89,8.68,10.85,14.44-8-.18-8.07-13.37-9.3-19.67,5,4.43,6.55,11.57,11.1,16.35-3.81-3.95-7.5-9.51-10.54-13.85,3.87.34,8.06,4.79,9.53,8.57-3.39-3.63-6.6-7.86-8.16-13,3,4.84,5.38,8.76,10.15,10.71-4.12-1.63-6.5-5.3-7.5-9.46a21.88,21.88,0,0,1,5.81,9.1c-2.07-2.79-2.71-5.26-3.68-8.46a12.07,12.07,0,0,1,7.05,8.37c-2.39-2.29-2.53-4-3.76-6.75,3.45.32,6.35,1.95,5.43,1.06" transform="translate(-28.12 -38.45)" style="fill:none;stroke:#edd056;stroke-miterlimit:10"/>
		<path d="M470.25,384.07c1.25,6.91,4.35,13.3,9.85,17.84-2.52-5.48-2.22-11-5.12-16.16a49.25,49.25,0,0,1,9.74,12.8c-5.21-2.75-9.87-7-15.32-8.26,3.72,6.61,8.73,11.58,11.74,17.95-6.45-.61-12.73-10.26-14.71-15.72,10-4.47,11.62,12.84,15.6,18.49-5.79-4.89-13.85-11.89-19.91-17.06,8.76,6.14,13.53,18,21.16,23.22-6-7.7-9.15-17-17.47-22.21,10,.28,18.92,24.29,12.77,32.8-5.41.33-11,.19-16.49.28,6.25-2.85,14.18-.88,19.11,2.1-2.64-.88-6.65-.4-9.54-.76-.51,1.14-.5,4.46-.36,5.73-.26.05-3,.08-3.12.17a107.12,107.12,0,0,0,10.36-3.53c0,4.75-3.57,6.25-8.63,5.74a20.06,20.06,0,0,0,10.15-5.76c1.19,5-2.9,8.62-8.31,8.47a87,87,0,0,1,8.56-1.7c-2.35,4.27-5.27,6.83-9.86,6.09.34-4.72.06-5.44,4.76-7.34-.3,5-3.46,7.87-6,10.09,4.32-.59,7.53-3.78,9.65-7.69.49,6.18-4.79,7.65-9.81,7.84" transform="translate(-28.12 -38.45)" style="fill:none;stroke:#edd056;stroke-miterlimit:10"/>
		<path d="M466.6,330.41c17.46-14.8,17.07-46,17.07-66.91,0,29.58,9.21,43.39,34.38,52.41-24.25-7.54-45.32-18.42-71.35-18.42,27.8,0,55-4,77.08-19.5-5.64,11.95-24.65,20.93-33.55,31A141.78,141.78,0,0,1,466.6,330.41Z" transform="translate(-28.12 -38.45)" style="fill:none;stroke:#edd056;stroke-miterlimit:10"/>
		<path d="M472.69,306c-1.88,1.51-1.73,3.87,0,6.1" transform="translate(-28.12 -38.45)" style="fill:none;stroke:#edd056;stroke-miterlimit:10"/>
		<path d="M488.55,318.22c3.13.55,6.62.08,8.53-1.22" transform="translate(-28.12 -38.45)" style="fill:none;stroke:#edd056;stroke-miterlimit:10"/>
		<path d="M509.28,306c1-3,1.78-5.71,2.44-8.53" transform="translate(-28.12 -38.45)" style="fill:none;stroke:#edd056;stroke-miterlimit:10"/>
		<path d="M502,281.63a23.82,23.82,0,0,0-7.32-2.43" transform="translate(-28.12 -38.45)" style="fill:none;stroke:#edd056;stroke-miterlimit:10"/>
		<path d="M476.35,279.2c-4.27,1.32-6.46,5-6.1,9.75" transform="translate(-28.12 -38.45)" style="fill:none;stroke:#edd056;stroke-miterlimit:10"/>
		<path d="M459.28,307.24a16.1,16.1,0,0,0,4.88,9.76" transform="translate(-28.12 -38.45)" style="fill:none;stroke:#edd056;stroke-miterlimit:10"/>
		<path d="M487.33,325.54c4.79-.06,9.89.32,13.41-1.22" transform="translate(-28.12 -38.45)" style="fill:none;stroke:#edd056;stroke-miterlimit:10"/>
		<path d="M515.38,312.12c.73-4.55,1.45-8.93,2.44-13.41" transform="translate(-28.12 -38.45)" style="fill:none;stroke:#edd056;stroke-miterlimit:10"/>
		<path d="M514.16,278a46,46,0,0,0-9.76-4.88" transform="translate(-28.12 -38.45)" style="fill:none;stroke:#edd056;stroke-miterlimit:10"/>
		<path d="M476.35,270.66a59,59,0,0,0-10.77,2.65,10.35,10.35,0,0,0-2.64,7.1" transform="translate(-28.12 -38.45)" style="fill:none;stroke:#edd056;stroke-miterlimit:10"/>
		<path d="M448.3,307.24c1.43,5.41,3.19,10.76,7.32,14.64" transform="translate(-28.12 -38.45)" style="fill:none;stroke:#edd056;stroke-miterlimit:10"/>
		<path d="M487.33,335.29c7.37.58,17.65,4.45,21.95-3.66" transform="translate(-28.12 -38.45)" style="fill:none;stroke:#edd056;stroke-miterlimit:10"/>
		<path d="M526.35,317a28.06,28.06,0,0,0-2.44-14.63" transform="translate(-28.12 -38.45)" style="fill:none;stroke:#edd056;stroke-miterlimit:10"/>
		<path d="M523.27,341c-10.77-1.19-19.61,9.61-21.27,20.32s1.53,21.5,2.79,32.26c3.28,27.85-8,57.95-31.19,73.66-7.56,5.11-16.08,8.62-24.71,11.57-42.95,14.7-89.06,16.32-134.24,20.72S223,511.84,185.19,537c-5.21,3.47-10.4,7.47-13.13,13.1-5.22,10.82.71,24.4,10.36,31.53s22,9.27,34,10.74A462.2,462.2,0,0,0,300.52,595c13.85-.84,29.17-1.89,40.11,6.65,7,5.48,10.91,14,13.7,22.48,1.73,5.24,3.16,10.79,2.26,16.23-1.94,11.88-14.07,19.29-25.66,22.51s-24.14,4-34.49,10.13-17.32,20.63-10.23,30.34" transform="translate(-28.12 -38.45)" style="fill:none;stroke:#edd056;stroke-miterlimit:10"/>
		<path d="M527.12,340.48a30.06,30.06,0,0,0,17.9-4.77c-28.27,28.42-35.9,75.29-18.09,111.2C494.79,457,467,478.23,434.87,488.29c-25.05,7.83-51.67,8.57-77.8,11.17a535.7,535.7,0,0,0-105.84,21.48c-17.15,5.33-35.21,12.42-45.06,27.42a34.34,34.34,0,0,0-5.83,16.69c-.58,10.31,4.63,20.42,12.37,27.26,11.37,10,27.25,13.32,42.41,13.59s30.28-2.09,45.44-1.66c4.78.13,9.69.58,14,2.71a30.14,30.14,0,0,1,8.19,6.48c7.12,7.48,12.67,16.83,13.92,27.08s-2.35,21.39-10.54,27.67c-6.33,4.86-14.63,6.45-21.27,10.88s-11.19,14.32-5.86,20.25a36.62,36.62,0,0,0,18.39,4.85,89.7,89.7,0,0,1-28-.64" transform="translate(-28.12 -38.45)" style="fill:none;stroke:#edd056;stroke-miterlimit:10"/>
		<path d="M539.33,338l-8.72,1.73,3.64,4.19-9.41-2.21a26.15,26.15,0,0,0,3.39,9,37.64,37.64,0,0,0-9.23-9.89L531.46,351l-7.4-4.54,5.56,5.89a15.76,15.76,0,0,1-8.44-1.48c-1.15-.56-2.38-1.53-2.27-2.81s2.52-1.58,2.45-.3L514,342.62a17.55,17.55,0,0,1,11.81,15.28,177.31,177.31,0,0,0-18.09-12.56,23.2,23.2,0,0,1,18.64,17.38,61.59,61.59,0,0,1-19.2-10.67A27.76,27.76,0,0,1,521,363.6a69,69,0,0,1-13.85-10.8c5.84-1.46,12.37,3.49,12.56,9.5a31.4,31.4,0,0,0-13.51-5.48,28.4,28.4,0,0,0,12,9.18,26.09,26.09,0,0,1-13.42-6.07l13.66,7.82-14.31-6.9a22.2,22.2,0,0,1,16.73,13.89l-17.13-10.23a45.24,45.24,0,0,1,15,13.19l-15.27-8.14a32.68,32.68,0,0,1,13.61,12.54,46.82,46.82,0,0,0-14-7.52,101.11,101.11,0,0,0,12,15.24L503.4,379.3a13.69,13.69,0,0,1,13,7.59,28.28,28.28,0,0,1-10.93-1.16l13.17,10.68a14.14,14.14,0,0,1-11.85-6.48l6.47,13.75a13.23,13.23,0,0,0-6.71-6.69c3.5-1.58,8.05,2.17,7.15,5.91l-6.62-3.41c2,.37,4.24.83,5.57,2.41s.9,4.64-1.13,5a4.51,4.51,0,0,1-1.59-.1l-1.18-.21,10.54,7.46-9-3.63,6.84,4.12a10.18,10.18,0,0,1-9.77-9.73,25.68,25.68,0,0,0,5.54,15.91,8.65,8.65,0,0,0-8.55-8.31,91.6,91.6,0,0,0,11.71,11.84l-8.16-4.34a15.4,15.4,0,0,1,8.88,12.61l-10.49-11.18,17.92,19.9a38.75,38.75,0,0,1-19.81-17.87,37,37,0,0,1,14.53,21.34,37.83,37.83,0,0,1-14.33-14.43,49.52,49.52,0,0,1,15.85,16.53,21.27,21.27,0,0,1-16.5-11l9.69,7.44a27.56,27.56,0,0,0-13.34-4.33A35.06,35.06,0,0,1,515,444.48a19.91,19.91,0,0,1-16.91-4.24c5.81.46,10.29,7,8.62,12.59l-8.72-6.6a11.58,11.58,0,0,1,13,5.13,17.36,17.36,0,0,1-14-7.11,9.72,9.72,0,0,1,6.56,9c-3.27,2.54-9-.49-8.7-4.62,1,4.9-4.17,9.92-9.05,8.84a6.76,6.76,0,0,1,5.25-7.74,11.68,11.68,0,0,1,1.84,9.87l9.4-3.85a207.09,207.09,0,0,0-57.9,27.28l-22,5.47" transform="translate(-28.12 -38.45)" style="fill:none;stroke:#edd056;stroke-miterlimit:10"/>
		<path d="M419.88,489.26c-7.53-2.06-15,2.49-22.46,4.92-6.41,2.1-13.22,2.62-19.95,3.13l-55.61,4.19c-6.89.51-14.21.95-20.3-2.32a8.54,8.54,0,0,1,.72,6.86,9.24,9.24,0,0,1-8.86-2.29l6.82.6A26.16,26.16,0,0,1,285,501.69l10.08,9.41-23.26-6.42A28.77,28.77,0,0,1,286,510.27a39.82,39.82,0,0,1-20.6-2.81,11.3,11.3,0,0,1,9.84,4.15l-20.87-2.93a8.86,8.86,0,0,1,9.29,5.85l-16.53-3.46a8.92,8.92,0,0,1,9.88,4.68,83.71,83.71,0,0,0-25.57-2.29,65.25,65.25,0,0,1,19.24,5.13L230.42,516a20.21,20.21,0,0,1,13.75,7.84,35.22,35.22,0,0,0-30.68-6.41l27.28,7.83a38.49,38.49,0,0,1-24-4.78,26,26,0,0,1,13.32,5.67,19.48,19.48,0,0,1-15-4l-7.14,6.29,16.94,1.69a37.51,37.51,0,0,0-24.18-.72l16.8,4.8L186.57,533A71.27,71.27,0,0,1,212,535.3L183.54,539,205.86,541a107,107,0,0,0-28.93,4.6,92.86,92.86,0,0,0,28-.79c-6,2-12.35-1.44-18.6-2.54s-14.75,2.79-13.29,9l30.31-1a72.43,72.43,0,0,0-33.1,3.55,64.14,64.14,0,0,0,21.58,1,27.87,27.87,0,0,0-22.56,10.36l28.14-.8c2.6-3.89-5-7.11-8.87-4.47s-6.55,7.56-11.21,8a19.54,19.54,0,0,0,16.88,1.89c-1.32,6-9.74,8.87-14.45,5l15.94,1.24-2.36,4.59a7.62,7.62,0,0,1-5.85,1.18l13-.82c1,3.39-4.42,6.28-6.68,3.59a13,13,0,0,1,9.73-1.32,15.83,15.83,0,0,0,6.6,9.33" transform="translate(-28.12 -38.45)" style="fill:none;stroke:#edd056;stroke-miterlimit:10"/>
		<path d="M222.23,595.3a21,21,0,0,0,13,3.72l-5.66-3.91a7,7,0,0,0-2.93,3.5,11.13,11.13,0,0,0,13.66-4.1,21.5,21.5,0,0,1-2.74,8.82c-2.72-.47-.32-4.82,2.41-5.2s6.65-.85,6.53-3.61a7.28,7.28,0,0,1-1.67,5.87A23.52,23.52,0,0,0,256.11,597l-7.57,5.59,13.88-3.44c-2-1.31-4,1.59-4.62,3.87-1.54-3.09,3.63-5.06,7-4.33s8.33,1,8.8-2.44a11.33,11.33,0,0,0-8.75,7.39,25.81,25.81,0,0,0,15.77-5.72,10.15,10.15,0,0,0-5.9,8.88c-1.16-4.06,4.69-6.15,8.91-6.24s10.08-2.23,8.88-6.28l-5.54,0a9.52,9.52,0,0,1-1.73,8.42,55.07,55.07,0,0,1,18.39-2.55,7.18,7.18,0,0,0-8.33,6.25c3.46-8.18,14.64-12,22.36-7.55l-13.48,6.6a66.42,66.42,0,0,1,27.23-5.54,11.69,11.69,0,0,0-13,7.58c-1.35.74-2.72-1.49-1.93-2.8s2.5-1.69,4-1.94l19.58-3.16c-4.72-1.32-8.15,4.18-10.9,8.24s-10,6.82-11.62,2.19a55.35,55.35,0,0,1,25.32-6,74.11,74.11,0,0,0-16,13.29,15.76,15.76,0,0,1,16.41-6.61,6.54,6.54,0,0,0-1.64,6.37l-9.79,3.15a120.32,120.32,0,0,0,18.7-4.76c-1.39-3.49-6.89-2-9.26.91s-4.09,7-7.75,7.81L352,624c-4.77-4-13-2.47-16.08,2.93a46.9,46.9,0,0,0,19.05,1,7.59,7.59,0,0,0-14.17,4.89c.29,1.66,1.14,3.24,1.06,4.92s-1.79,3.46-3.3,2.69c3.49-3.85,10.58-3.4,13.56.85a4.7,4.7,0,0,0-4.63-4.16,6.94,6.94,0,0,1-3.78,9.59l5.39,1.07a40.91,40.91,0,0,1-16,16.37A9,9,0,0,0,323,669.36a49.12,49.12,0,0,0-16.1,1.58c-1.5.4-3.17,1-3.69,2.51s1.42,3.33,2.5,2.22a13.38,13.38,0,0,0-9.37,3.48A3.54,3.54,0,0,0,300,681.7c-4.17-.82-7.62,4.11-7,8.32s3.67,7.57,6.62,10.63a8.39,8.39,0,0,0-3.3,5.36" transform="translate(-28.12 -38.45)" style="fill:none;stroke:#edd056;stroke-miterlimit:10"/>
	</g>
	<g id="Layer_3" data-name="Layer 3">
		<path d="M77.47,215.79A203.79,203.79,0,0,1,89.2,106.5c6.71,8,7,19.37,7.86,29.79a189.6,189.6,0,0,0,27.79,84.3l21.67-.28c-8.57-25-2.49-52.42,3.65-78.15C159,105,169.31,65.34,197.86,39.91L146.33,59.76A130.35,130.35,0,0,1,130.7,156.9c-3.73,6-9.29,12.45-16.37,11.85Q105,124.16,95.57,79.57L59.1,78.93c3.39,4.11,4.14,9.73,4.73,15,2.7,23.9,5.16,48.2.93,71.87s-16.06,47-36.37,59.91c3.75-2.38,17,.59,22.48-.67C59.77,223,68.78,218.68,77.47,215.79Z" transform="translate(-28.12 -38.45)" style="fill:none;stroke:#edd056;stroke-miterlimit:10"/>
		<path d="M41.76,217.06a8.36,8.36,0,0,1-3.07,7.16,5.88,5.88,0,0,1-4.82-5,16.25,16.25,0,0,1,10,6.45A7.15,7.15,0,0,1,39.6,218a12.9,12.9,0,0,1,9.17,8.33l-2.51-7.81A10.66,10.66,0,0,1,39.75,213a15.22,15.22,0,0,1,12.74,9.38,21.73,21.73,0,0,1-6.05-9.54,24.53,24.53,0,0,1,8.66,12,34.74,34.74,0,0,1-5.35-16.28A21.72,21.72,0,0,1,60.1,221.3,16.08,16.08,0,0,1,53.25,204a72.08,72.08,0,0,1,13.94,14.19c-3.93,1.26-7.53-3-8.55-7s-.93-8.51-3.5-11.74a45.55,45.55,0,0,1,16,18.75,42.73,42.73,0,0,1-12-21.5,32.48,32.48,0,0,0,13.16,16.62C68.84,203.75,56,199.17,54.5,189.11l17,13.34a16.75,16.75,0,0,1-9.17-11.29l13.58,11.52a33.14,33.14,0,0,1-15.67-14.62,6.89,6.89,0,0,1,7.21,1.76l-1.19-5.58,4,1L66,180.73a18.31,18.31,0,0,0,7.32,10.35,11.84,11.84,0,0,1-11.67-8.37,28.41,28.41,0,0,1,10.08,5.63L67.41,175.7a3.41,3.41,0,0,1,2.82,3.42l-3.59.13c-1.2-.84,1-2.93,1.76-1.7l-8.52-6.07A16.79,16.79,0,0,1,70,175.8a10.7,10.7,0,0,1-5.07-9A21.43,21.43,0,0,1,72,171.79c-3.34.29-5.56-4.65-3.21-7s7.21-.51,7.47,2.83a11.58,11.58,0,0,1-8-7,10.29,10.29,0,0,1,9.61,4c-4.42,1.43-9.63-2.66-9.3-7.29a7.29,7.29,0,0,1,7.27,3.49c-2.26.89-4.89-.62-6.09-2.73s-1.33-4.65-1.43-7.08a4.54,4.54,0,0,1,6.52,1,15.57,15.57,0,0,0-2.17-8l4,5.14a5.94,5.94,0,0,1-6-4.77l3.52,4.36a31.82,31.82,0,0,1-7.56-12.32A9.64,9.64,0,0,1,72,143.26a15.53,15.53,0,0,1-5.53-6c3.25-1.91,8.08,1.34,7.53,5.08a14.76,14.76,0,0,1-6.4-14.58,24,24,0,0,1,11.68,12.74,26.41,26.41,0,0,1-13.06-15.61L75,135.14a2.93,2.93,0,0,0,2,1.33c1.34,0,1.95-1.65,2.2-3,.74-4,1.46-8.24-.08-12s-6.29-6.48-9.78-4.41a33.87,33.87,0,0,0,10.93,10.54,66.13,66.13,0,0,1-9.1-13.1A44.65,44.65,0,0,0,76.6,134a42.89,42.89,0,0,1-7.13-19.58c1.82-1.65,4.81-1.28,6.8.15s3.21,3.68,4.37,5.85c-3.33.88-5.86-3-7-6.19s-3-7.24-6.42-7.16" transform="translate(-28.12 -38.45)" style="fill:none;stroke:#edd056;stroke-miterlimit:10"/>
		<path d="M68.89,102.22a25,25,0,0,0,14.79,13.85c-5.34-8.07-12-15.2-18.57-22.29l19.72,17.33L62.24,81.91a151.2,151.2,0,0,1,22.15,24.32Q77.79,94,70.3,82.24C72.49,91.56,81,98,89.36,102.54a145.73,145.73,0,0,1-14-21.29,145.41,145.41,0,0,0,24.67,31.62A359.18,359.18,0,0,1,77,82,106.72,106.72,0,0,1,97.6,106.74L83.91,82.21,93.54,95a26.78,26.78,0,0,0-3.69-12,25.75,25.75,0,0,0,4.31,7.09" transform="translate(-28.12 -38.45)" style="fill:none;stroke:#edd056;stroke-miterlimit:10"/>
		<path d="M97.76,112.14l7,9.48a60,60,0,0,0-10.91-12.4,81.41,81.41,0,0,0,10.7,18.86l-8.57-7.64A53.41,53.41,0,0,0,107.07,133a16.68,16.68,0,0,1-11.18-3,14.64,14.64,0,0,1,11.2,9.11,9.71,9.71,0,0,1-8.75-5.94,85.32,85.32,0,0,1,8.7,12.32,8.72,8.72,0,0,1-7.23-7.76,50.8,50.8,0,0,1,12.12,17.49A20.75,20.75,0,0,1,100,142.5,52.48,52.48,0,0,1,111.75,160a12.37,12.37,0,0,1-9.82-10.23L112.72,164a8,8,0,0,1-10.47-4.26l10.54,12.6L99.63,159.71c4.24,1,7.13,4.81,9.83,8.23a159.88,159.88,0,0,0,31,30c-11.11-1.79-14.34-17.49-24.69-21.92-3.55-1.52-8.65-2.72-8.55-6.58Q124.49,187,140,206.25c-13.19-8.09-19.63-24.65-33.27-31.95a250.92,250.92,0,0,1,34.74,35.38c-4.19,1.21-7.73-3.06-10.3-6.58A75.84,75.84,0,0,0,109.3,183a108.36,108.36,0,0,1,34.38,30c-5.29,1.76-9.69-4-13-8.45-5.23-7-12.22-12.34-19.12-17.64l13.73,18.24c3.36,4.47,7,9.18,12.33,11a26.86,26.86,0,0,1-19.78-15.38,45.54,45.54,0,0,1,21.12,19.1,46.45,46.45,0,0,1-27.73-26.56c3.65-1,7,2.68,8,6.33s.75,7.63,2.4,11c2.71,5.59,9.52,7.73,15.68,8.56,1.86.26,4.61-.48,4.13-2.3" transform="translate(-28.12 -38.45)" style="fill:none;stroke:#edd056;stroke-miterlimit:10"/>
		<path d="M138.54,197.05,114.5,169a84.08,84.08,0,0,1,24,25.93,42.27,42.27,0,0,1-16-24.44l15.37,19.26-15.11-23.79a41.69,41.69,0,0,1,16.89,17.58A48.55,48.55,0,0,1,126.09,166a59,59,0,0,0,10.54,19.21l-9.23-19.52a49.26,49.26,0,0,1,12.68,16.15l-11.2-17.71,7.35,7.16a31.2,31.2,0,0,1-9.17-14.08,22.62,22.62,0,0,1,10.62,13.51,9.74,9.74,0,0,1-4.37-8.54,6.75,6.75,0,0,1,7,5.66l-3.75-9.64a6.9,6.9,0,0,1,5,4.77A13.49,13.49,0,0,1,131,156.13a7,7,0,0,1,5,4.81l-3.23-9.49a10.79,10.79,0,0,1,11.45,9.6,14.29,14.29,0,0,1-6.26-6.64,6.83,6.83,0,0,1,5.92.19,11.21,11.21,0,0,1-3.43-9.28c.6.83-1,1.8-1.76,1.19s-.88-1.79-.86-2.81a5.13,5.13,0,0,1,6.16,1.15,6.56,6.56,0,0,1-3-9.33c2-1.2,4.67.42,5.45,2.59s.2,4.56-.37,6.8l-1.91-4.14-.68,10.57a13,13,0,0,1-2.91-9.83,7.65,7.65,0,0,1,4.61.71l.15-8.42a6.33,6.33,0,0,1,1.18,5.62,17,17,0,0,1-2.46-11.11v5.07l.29-8,4.86,7.69-1.93-9.91,5,6.94a13.22,13.22,0,0,1-5.66-7.23l5.34,2.52a7.36,7.36,0,0,1-4.23-7.13,6.57,6.57,0,0,1,4.89,2,12.77,12.77,0,0,1-5-5.69,4.24,4.24,0,0,1,5.92,1.81,12.46,12.46,0,0,1-3.23-7,7.66,7.66,0,0,1,3.78,2.42l-2.22-4.51a11.42,11.42,0,0,1,6.4,3.6,37,37,0,0,0-7.73-8.59l6.35.3a33.54,33.54,0,0,1-5.35-10.52c-1,5.15.27,12.88,5.47,12.22l-8.39-19.75a26.48,26.48,0,0,1,10.2,13.64l-7-19.56a20.81,20.81,0,0,0,9.56,15.23L149.75,64A28.76,28.76,0,0,0,164.7,88.44a93.32,93.32,0,0,0-14-28,31.69,31.69,0,0,0,14.09,17.18,105.81,105.81,0,0,1-7-20.15,32.35,32.35,0,0,0,2.87,17.87,48.66,48.66,0,0,1-6.34-17.12,65.6,65.6,0,0,1,9.37,26.21l-7.29-21.74,6.74,17.93-2.64-20.88a15.83,15.83,0,0,0,3.07,10.84,42.69,42.69,0,0,0-1.92-12.24,42.36,42.36,0,0,0,4.82,17.36,59.61,59.61,0,0,1-2-18.47l6.27,12L168.8,55.82a70.85,70.85,0,0,0,.62,20.56l.32-20a13.82,13.82,0,0,0,3.75,5.54l-.25-6.31a15.23,15.23,0,0,1,4.83,7.31A54.26,54.26,0,0,0,173.17,49l3.58,11.86.32-15.51a30.43,30.43,0,0,0,3.34,11.17l.09-7A16.6,16.6,0,0,1,184.79,55a5.3,5.3,0,0,0-.11-5.82l5.24-1.28a12.21,12.21,0,0,0-6.81.71l7.26-2.51" transform="translate(-28.12 -38.45)" style="fill:none;stroke:#edd056;stroke-miterlimit:10"/>
		<path d="M156.38,162.1A55.76,55.76,0,0,1,135,240.68c-2.61,1.38-5.49,2.7-7,5.24L165.94,236c-1.81-8.25,3-16.31,5.23-24.46,3.14-11.44,3.48-53.28-5.77-60.53C163.7,152,154.82,159.57,156.38,162.1Z" transform="translate(-28.12 -38.45)" style="fill:none;stroke:#edd056;stroke-miterlimit:10"/>
		<path d="M138,240.2l5.76-.09a5.3,5.3,0,0,1-6.91-4.52,14.52,14.52,0,0,1,14.36,4.52,17.48,17.48,0,0,1-10.35-3.58,86.19,86.19,0,0,1,16.76.67,9.85,9.85,0,0,1-10.8-4.22,18.86,18.86,0,0,1,14.38,5,26,26,0,0,1-10.48-7.65,21.59,21.59,0,0,1,13.7,3.42,14.18,14.18,0,0,1-11.1-7.86,17.12,17.12,0,0,1,14.56,3.73,25.72,25.72,0,0,1-10.16-5.79A12.88,12.88,0,0,0,164,234.58,32.38,32.38,0,0,1,155.92,218a8.32,8.32,0,0,1,5.16,6.83l.31-8.71a8.85,8.85,0,0,1,3.14,5.32,7.39,7.39,0,0,1-5.65-7.82,10.07,10.07,0,0,1,9.65,1.73,7.13,7.13,0,0,1-5.53-9.27l1.86,6.33-1.12-12.83,8.72,7.85a19.08,19.08,0,0,1-7.59-1.17,6.36,6.36,0,0,0,5.17,5.51,92.4,92.4,0,0,0-6.74-14.9,6.84,6.84,0,0,1,9.48,3.08,21.62,21.62,0,0,0-7.79-9.2l2.12,7a10.32,10.32,0,0,1-2.18-7.57l3.85.31L164,185.25a11,11,0,0,1,6.61.95,4.66,4.66,0,0,1-.81-7.37c-1.64,3.31-7,3.74-9.2.73a21.88,21.88,0,0,1,10,2.3,24.62,24.62,0,0,1-13.32-4.19,16.38,16.38,0,0,1,13.49,2.16,8.54,8.54,0,0,1-10.11-4.33,11.36,11.36,0,0,1,7.52,1.2,8,8,0,0,1-8.15-5.82,17.82,17.82,0,0,1,9.37,1,6.21,6.21,0,0,1-7.67-3.31,11.27,11.27,0,0,1,9.4,1.16,12.08,12.08,0,0,1-14.47-5.06l7.82-.09a9,9,0,0,1-7.24-2.19,21.64,21.64,0,0,1,12.42,4.09,9.45,9.45,0,0,1-8-7.77,7.19,7.19,0,0,1,6.89,3.12,7.84,7.84,0,0,1-8.81-2.89,3.9,3.9,0,0,1,4.73.6,8.76,8.76,0,0,1-4.38-2.34c3.1-3,9.29-.42,9.43,3.86a5.6,5.6,0,0,1-4.57-5" transform="translate(-28.12 -38.45)" style="fill:none;stroke:#edd056;stroke-miterlimit:10"/>
		<path d="M158.11,145.86a20.72,20.72,0,0,1,17.44-8.23A55.35,55.35,0,0,1,183,108.88c-3.29-.76-6.57,1.46-8.69,4.09s-3.63,5.78-6.13,8.06c-3,2.74-7.47,4.24-9.05,8s.55,8.34-.45,12.39" transform="translate(-28.12 -38.45)" style="fill:none;stroke:#edd056;stroke-miterlimit:10"/>
		<path d="M162.07,137.7l1.66-9.35a18.81,18.81,0,0,1-2.61,7.69,4.71,4.71,0,0,1-1.15-4.47,2.6,2.6,0,0,1,1.55,4.21,9.39,9.39,0,0,1-1-9.37,8.4,8.4,0,0,1,3.91,11.29l-1.94-9.83c.11-1.09,1.75-1.38,2.58-.68a4.54,4.54,0,0,1,1.2,3c.42,2.85.83,5.69,1.24,8.54l-1.08-13c1.9-.8,3.39,1.74,3.9,3.73l1.92,7.56c-4.85-1-7.78-7.23-5.43-11.59a8.05,8.05,0,0,1,3.42,7.41,15.24,15.24,0,0,1-1.7-9.32,3,3,0,0,0,.74,3.11,5.74,5.74,0,0,1-1.44-7c.48-.79,1.71.17,1.74,1.09s-.34,2,.26,2.69,1.92-.76,1-.86l.37,6.65a13.35,13.35,0,0,1-1.19-9.64,7.44,7.44,0,0,1,3.32,6.88l.13-11.72H177l-1.22,3.21a6.29,6.29,0,0,1,3.64-5.8" transform="translate(-28.12 -38.45)" style="fill:none;stroke:#edd056;stroke-miterlimit:10"/>
		<path d="M195.62,86.16c2.44,4.26,3.19,9.25,3.63,14.14a135,135,0,0,1,.14,22.75c-.62,7.84-1.93,15.6-3.23,23.35l-12.68,75.41a42.24,42.24,0,0,0,16.91-2.69l10.54-91.87c1.63-14.25,6.69-35.84,1.08-49.61-6.4-15.74-17.07-6.87-27.5.69A16,16,0,0,1,195.62,86.16Z" transform="translate(-28.12 -38.45)" style="fill:none;stroke:#edd056;stroke-miterlimit:10"/>
		<path d="M186.65,79l14.45-7.86a156.8,156.8,0,0,1-12.46,10.41c-1.84-4.92,3-10.94,8.23-10.17l-2.46,13.12A17.88,17.88,0,0,0,204.7,73.76l-3.35,6.45,5.06-2.7-6.57,10.94a38.11,38.11,0,0,1,10.9-11.08,64.31,64.31,0,0,1-16.17,22.91L209.39,89.5a31.59,31.59,0,0,1-4.63,20.63A19.91,19.91,0,0,1,207.49,93,10,10,0,0,0,198,103,40.57,40.57,0,0,0,210.3,91.63a64.36,64.36,0,0,1-8.25,17.6,14.34,14.34,0,0,0,11-.89l-9.37,6.23A24.39,24.39,0,0,1,211.5,103L193.16,122.8A18.87,18.87,0,0,0,210.77,115a32.18,32.18,0,0,0-11.33,10.58,6.84,6.84,0,0,0,6.35-3.31l-8.64,9.38,9.72-5.13a17,17,0,0,0-7.76,7.41l7.47.26a18.39,18.39,0,0,0-8.17,9.78,14.38,14.38,0,0,0,8.35-5.22L197,148.7a16.72,16.72,0,0,0,10.11-3.94A65.4,65.4,0,0,0,193,153.41a23,23,0,0,0,10-.65l-3.42,7.07,8.76-10a94.6,94.6,0,0,0-16.28,10.2,27.54,27.54,0,0,0,15.66-7.31,86.14,86.14,0,0,0-12.4,10.88,9,9,0,0,0,7,.76l-9.51,4.26,10.41-8.44A95.82,95.82,0,0,1,189.57,178a30.23,30.23,0,0,0,14.76-10.54L191,184.85,201.53,175a56.83,56.83,0,0,1-12.16,16.21,13.66,13.66,0,0,0,10.34-4.53A55.42,55.42,0,0,1,188,197.56a40.18,40.18,0,0,1,11.65-6.06l-11.85,15,10.16-6.95-13.08,16.63a85.76,85.76,0,0,1,21.3-21.06,79.69,79.69,0,0,1-19.08,24.52c-1-5.62,3.67-11.56,9.36-12l.18,11.82" transform="translate(-28.12 -38.45)" style="fill:none;stroke:#edd056;stroke-miterlimit:10"/>
		<path d="M224.4,189.48c-.26,4.31,0,8.84,2.16,12.56s6.74,6.34,10.86,5.05,6.23-5.64,7.71-9.63a118,118,0,0,0,7.35-44.26,11.05,11.05,0,0,1,.64-5.15,10.68,10.68,0,0,1,3.23-3.5L274.57,130,262,193.7a104.68,104.68,0,0,1-3.1,12.86c-2.56,7.72-7.21,15.09-14.29,19.07-8.13,4.57-18,4.06-27.33,3.37-1.84-.14-3.88-.37-5.11-1.75s-1.22-3.54-1.09-5.45c1.49-21.67-.3-59.3,17.71-74.76C231.76,160.92,225.23,175.54,224.4,189.48Z" transform="translate(-28.12 -38.45)" style="fill:none;stroke:#edd056;stroke-miterlimit:10"/>
		<path d="M225.85,151.22a35.39,35.39,0,0,0-9.72,14.24,62.26,62.26,0,0,0,8.6-10.16,56.78,56.78,0,0,1-11.41,17.45,19.06,19.06,0,0,1,10.51-13.84A138,138,0,0,1,215.31,176l7.52-13.32A83.75,83.75,0,0,1,216,180.84a43.33,43.33,0,0,1,11.82-13.73,80.82,80.82,0,0,1-18.41,18.18A64.88,64.88,0,0,0,228.68,174l-7.89,11.46a11.81,11.81,0,0,1,3.23-15,258.53,258.53,0,0,1-10.49,28.15h-3.41A50.18,50.18,0,0,1,222.37,188a135.16,135.16,0,0,1-8.75,17,12.32,12.32,0,0,0,4.37-7.2,7.8,7.8,0,0,1-1.53,8.38,11.43,11.43,0,0,0,6.65-4.79l-13,14a28.31,28.31,0,0,1,11.59-9.93,33,33,0,0,0-7.93,16.86,28,28,0,0,1,8-13.68,18.07,18.07,0,0,1-4.25,16.54,19,19,0,0,1,7.1-17.15,20,20,0,0,0-3.42,13.74l4.55-8.57q-3.85,9.12-6.84,18.59a28.54,28.54,0,0,1,14.22-24.58c1.53,7-11.23,12.15-8.21,18.68a50.79,50.79,0,0,1,10-17.42,103.25,103.25,0,0,0-5.56,21.18,19,19,0,0,1,5.17-15.43,10.39,10.39,0,0,1-2.21,12.76,182.48,182.48,0,0,1,29.21-48,287,287,0,0,1-26.06,50.13c-.86-13.81,8.53-27.62,21.69-31.91a51.68,51.68,0,0,0-13.87,25.79,25.29,25.29,0,0,1,11.95-26.15c-.37,4-3.74,6.85-6.44,9.79s-5,7.35-2.86,10.74a22,22,0,0,0,9.93-19,15.55,15.55,0,0,1-1.31,11.78c-.81-4.59-1.62-9.27-.92-13.88S256.74,187,261,185a19.86,19.86,0,0,1-2.59,13.64,5.36,5.36,0,0,1,0-6.25c.55-.74,1.35-1.56,1-2.43s-2,.18-1.15.51" transform="translate(-28.12 -38.45)" style="fill:none;stroke:#edd056;stroke-miterlimit:10"/>
		<path d="M261.78,181q-5,4.26-9.94,8.57a67.6,67.6,0,0,1,12.73-12.39,11.76,11.76,0,0,0-11.7,8.09,18.57,18.57,0,0,0,5.06-5.91,9.8,9.8,0,0,0-4.59,6A15.46,15.46,0,0,0,261.43,174a14.52,14.52,0,0,0-9.94,12.75,24.51,24.51,0,0,0,8.17-12.57,18.84,18.84,0,0,0-12.93,7.32,14.53,14.53,0,0,0,15.33-12,13.82,13.82,0,0,0-11.49,8.83A23.84,23.84,0,0,0,264,166.66c-3.37-2.09-8.5,1.47-7.72,5.36a5.21,5.21,0,0,0,5.52-5.08l-7.59.1a8.29,8.29,0,0,0,8.33-7.25c-3.74-1.39-8.17,2.88-6.92,6.67s7.07,4.72,9.76,1.78S267,160,263.65,157.9a5.71,5.71,0,0,0-6.36,0c-1.78,1.39-2.05,4.52-.22,5.84s4.28.36,5.55-1.32,1.53-3.9,1.62-6c-5.28-2.34-12.18,2.73-11.52,8.46a26.83,26.83,0,0,0,10-12.61l-8.42,9.79c6.42,1.19,13.3-3.87,14.08-10.35l-10.93,9.51A17.35,17.35,0,0,0,264.84,148a13.7,13.7,0,0,0-11.42,9.67,18,18,0,0,0,11.85-9.51l-10.43,6.14,11.73-11.49-11.85,4.92a15,15,0,0,0,14.65-10.41,14,14,0,0,0-9.5,13.89" transform="translate(-28.12 -38.45)" style="fill:none;stroke:#edd056;stroke-miterlimit:10"/>
		<path d="M240.65,110.22c1.6,1.72,3.29,3.5,5.51,4.28a13.59,13.59,0,0,0,6.59.12c6.8-1.09,14.12-2.9,20.28.17,6.83,3.41,9.67,11.59,11.17,19.08,8.22,41.16-6,86.1-36.47,115,5.14,2.13,10.81,3.7,16.22,2.41s10.27-6.25,9.72-11.78c15.54,13.08,42.47,8.46,52.77-9s1.24-43.3-17.74-50.52c-3.47-1.32-7.44-2.29-9.57-5.33-1.81-2.58-1.79-6-1.7-9.13l.71-25.46c.25-8.85.35-18.29-4.36-25.8-7-11.24-21.93-14-35.09-15.73-8.45-1.1-22.12-5.53-29.56-1.61C232.15,101.79,236.67,105.92,240.65,110.22Z" transform="translate(-28.12 -38.45)" style="fill:none;stroke:#edd056;stroke-miterlimit:10"/>
		<path d="M298.42,188.78l-10.35,31.57c10.33,2.83,22.25-4.82,24-15.39a5.77,5.77,0,0,0-.27-3.54c-.63-1.29-2-2-3.19-2.8a26.08,26.08,0,0,1-8.85-9.4" transform="translate(-28.12 -38.45)" style="fill:none;stroke:#edd056;stroke-miterlimit:10"/>
		<path d="M246,112.25a21,21,0,0,0-14.07-15.57A36.44,36.44,0,0,0,247.36,114a42.64,42.64,0,0,1-8.61-15.23,64.56,64.56,0,0,0,11.53,14.34,119.94,119.94,0,0,1-13.84-14.75A47.6,47.6,0,0,1,255,115.51L241.71,97.63l9.62,14.26-9.14-13.68A33.26,33.26,0,0,1,257,111a37,37,0,0,1-8.46-12.76l12.71,12.26a14,14,0,0,1-6.11-4.78,4.74,4.74,0,0,1,7,1.64,11.51,11.51,0,0,1-4.53-6.59,84.78,84.78,0,0,1,12.48,16.81L257.2,100.34A16,16,0,0,1,272,115.26l-7.07-11.41a40.34,40.34,0,0,1,17.59,22.3,19.5,19.5,0,0,1-9.18-17,21.47,21.47,0,0,1,13.12,16.61l-15-17.64a24.54,24.54,0,0,1,10.88,18.75L266.35,104c11.85,2.44,21.26,13.71,21.56,25.8l-10.25-22.56a129.76,129.76,0,0,1,16.84,27,124.8,124.8,0,0,1-12.92-21.09,12.79,12.79,0,0,1,11,12.23,37.79,37.79,0,0,1-7.13-13,43.39,43.39,0,0,1,11.36,34.26,16.69,16.69,0,0,1-11-14.22,45,45,0,0,1,11.74,13.07,18.54,18.54,0,0,1-12-10.74A30.54,30.54,0,0,1,296,153.89a16.29,16.29,0,0,1-7.79-8.88,10.48,10.48,0,0,1,8.31,9.73,23.49,23.49,0,0,1-9-7.56,21.56,21.56,0,0,1,8.14,16.18,18.41,18.41,0,0,1-6.1-7.28,14.45,14.45,0,0,1,5,14.41,17.12,17.12,0,0,1-7.53-16.8,17.18,17.18,0,0,1,5.6,13.86,34.38,34.38,0,0,1-4.88-13.83L297.51,172a7.54,7.54,0,0,1-7.66-6.32l9.61,16A16.74,16.74,0,0,1,284,171.42a17.28,17.28,0,0,1,14.44,16.45l-9.26-14.55c5.7,1.34,9.56,6.48,13.09,11.15A229,229,0,0,0,331,215.84a217.74,217.74,0,0,1-32.2-35,159.91,159.91,0,0,1,26.89,28.85,52.71,52.71,0,0,1-22.57-28.86l25.82,27.34c-3.33,1.43-6.53-2.16-8.39-5.27l-12.91-21.53a66.8,66.8,0,0,1,23.68,27.51" transform="translate(-28.12 -38.45)" style="fill:none;stroke:#edd056;stroke-miterlimit:10"/>
		<path d="M289.23,174.34A52.11,52.11,0,0,1,297,189.4a39.56,39.56,0,0,1-11.77-11A104.57,104.57,0,0,0,291.08,194a10.79,10.79,0,0,1-5.92-7.55A11.74,11.74,0,0,1,295.64,193l-10.76-13.71A27.26,27.26,0,0,0,292,197.53a9.23,9.23,0,0,1-8.56-8.47,44.6,44.6,0,0,1,11.85,11.83,11.59,11.59,0,0,1-12.83-4.82,9.28,9.28,0,0,1,4.18,9.78,12.88,12.88,0,0,1-1-13.57l9.43,16.13a12,12,0,0,1-12.51-7.95l1.71,8.21a14,14,0,0,1-5.71-10.13,18.79,18.79,0,0,1,8.09,12.72l-6.86-9.21a10.39,10.39,0,0,1,7.11,10,8.06,8.06,0,0,1-8-5.35,10.85,10.85,0,0,1,6.35,10.1,11.75,11.75,0,0,1-9.11-1.16,11.57,11.57,0,0,1,10.22,8.94,22,22,0,0,1-9.35-17.7A170.8,170.8,0,0,0,299,244c-4.06-1.42-6.88-5-9.47-8.47l-14.62-19.4c2.5,10.21,9.81,18.44,16.87,26.23a65.86,65.86,0,0,0-22.92-22.66,52.42,52.42,0,0,1,17.33,20.7l-18.84-16a47.89,47.89,0,0,1,13.57,16.69,15.54,15.54,0,0,0-13-11,26.18,26.18,0,0,0,7.51,10.06,23.56,23.56,0,0,1-9.94-9.78l2.81,10.68a7.2,7.2,0,0,1-2.55-3.34,25.92,25.92,0,0,1,4.9,4.86l-10.05-12.67a17.87,17.87,0,0,1,5.79,11.61,38.91,38.91,0,0,1-9.61-9,140.13,140.13,0,0,1,13.51,14.37c-4.89,2.79-12.07-.64-13-6.18l9.89,9.31a12.58,12.58,0,0,1-9.2-9.51,3.63,3.63,0,0,0,2,5.28,5,5,0,0,1-5.81-.72,6.91,6.91,0,0,1,6.46,5.77,7.62,7.62,0,0,1-9.43-3.28c0-1.3,2.43-1.42,2.59-.13" transform="translate(-28.12 -38.45)" style="fill:none;stroke:#edd056;stroke-miterlimit:10"/>
		<path d="M286.54,222a81,81,0,0,0,13.61,25.42L288.29,227A55.81,55.81,0,0,0,305,242.46c-1.56,1.11-3.5-.77-4.49-2.41L291,224.33l19.64,18.32c-4,1.32-6.57-4.16-7.21-8.31s-3.3-9.62-7.26-8.23L312,239.67c-3.87-.91-6-5-7.53-8.67l-3.67-8.5q8.3,7.55,17.27,14.27c-3.61,2.56-8.62-.89-10.61-4.85s-2.75-8.74-6.06-11.68A22,22,0,0,1,318.05,234a72.56,72.56,0,0,1-13-18.89,183.71,183.71,0,0,1,20.49,14.2c-7.69,1-15.34-6.2-14.86-13.93a42.13,42.13,0,0,0,15.72,16.1,21,21,0,0,1-13.23-21.57,81.62,81.62,0,0,0,10.36,20.94,69.17,69.17,0,0,1-11.35-20.49,47.11,47.11,0,0,1,17.79,19.33c-4.63,0-8.65-3.57-10.66-7.74s-2.39-8.91-2.75-13.52q5.7,9.27,11.32,18.6a19.27,19.27,0,0,1-9.62-12.75c3-2,7.7,1.35,6.81,4.83a28.48,28.48,0,0,0-12.58-14.34" transform="translate(-28.12 -38.45)" style="fill:none;stroke:#edd056;stroke-miterlimit:10"/>
		<path d="M349.77,184.74c-4.65,4.65-6.5,11.34-8.06,17.73-1.67,6.86-3.21,14-2,20.92s5.78,13.79,12.61,15.55c8.92,2.31,17.65-4.53,23-12,7.24-10.18,17.35-31.65,8.8-43.14C376.38,173.41,357.92,176.56,349.77,184.74Z" transform="translate(-28.12 -38.45)" style="fill:none;stroke:#edd056;stroke-miterlimit:10"/>
		<path d="M368.05,189.94c-5.73-2.61-12.31,2.47-14.71,8.28s-2.34,12.4-4.55,18.29l12.62-7.25a10.08,10.08,0,0,0,4-3.35c2.23-3.89-1-9.83,2.25-12.87" transform="translate(-28.12 -38.45)" style="fill:none;stroke:#edd056;stroke-miterlimit:10"/>
		<path d="M350.08,187.81l2.52,5.64a4.4,4.4,0,0,0-1.47-4.31l1.46,9a12.93,12.93,0,0,0-6.14-14,15.69,15.69,0,0,0,6.47,12.66,8.14,8.14,0,0,0-6.37-7.68c-2.73,1.21-3.3,5.19-1.68,7.7s4.68,3.71,7.64,4.13a30,30,0,0,0-8.25-6.7,23.11,23.11,0,0,0,6.5,15.88,14.13,14.13,0,0,1-5.29-9.85,52.32,52.32,0,0,0,3.09,15.8,9.61,9.61,0,0,1-6.65-10.92c-.88,3-.75,6.4,1.1,8.87a14.56,14.56,0,0,0,2.8,2.63l22.32,17.62c-11-1.79-18.89-11.14-25.79-19.86A53.33,53.33,0,0,0,362,234.77a55.41,55.41,0,0,1-19.26-14.84l16.08,15.77-11.54-11.82c-1.16-1.18-3.05-2.42-4.29-1.32l13.32,13.73c-3.3,1.24-6.59-1.9-8.26-5s-3.07-6.84-6.34-8.15a11.14,11.14,0,0,0,11,10.83" transform="translate(-28.12 -38.45)" style="fill:none;stroke:#edd056;stroke-miterlimit:10"/>
		<path d="M349.66,218.84,364.24,231a20.21,20.21,0,0,0-13.52-13.14,34.11,34.11,0,0,1,16.7,14.34,36.71,36.71,0,0,1-12.2-18.81,50.38,50.38,0,0,1,15,16.08,116.79,116.79,0,0,1-12-16.14,24.14,24.14,0,0,1,13.35,13.23l-10.79-13.8a17.37,17.37,0,0,1,11.65,12.49,34.71,34.71,0,0,0-8.83-15.53,64.6,64.6,0,0,0,12.75,13.86,41.4,41.4,0,0,1-11.69-11.15A15.58,15.58,0,0,1,378,221.81a47.52,47.52,0,0,1-11.32-11.92,28,28,0,0,0,13.45,8.6c-6.89-.75-11.12-7.67-14.29-13.83a13,13,0,0,1,12.58,11.23q-5.73-7.38-10.87-15.2a55.67,55.67,0,0,0,15.73,13.46c-1.81,1.34-4.19-.65-5.54-2.46l-12.75-17a46.12,46.12,0,0,1,15.92,17L368.72,192a25,25,0,0,0,14,15.65C375.4,199.78,368,191.74,363.49,182l19.44,22-17.54-24.91a98.46,98.46,0,0,0,19.14,23.08,54.82,54.82,0,0,1-14.61-22.09l12.56,15A43.9,43.9,0,0,1,375,182.61a23.39,23.39,0,0,1,9.69,14.26c-.81-11-12.73-19.76-23.47-17.25" transform="translate(-28.12 -38.45)" style="fill:none;stroke:#edd056;stroke-miterlimit:10"/>
		<path d="M360,181.7a2.7,2.7,0,0,0,2.35,3.36,10.31,10.31,0,0,0-5.67-4.08,31.32,31.32,0,0,1,6.9,7.88l-8.15-6.11a14,14,0,0,0,4,6.34l-6.69-4.87a9.54,9.54,0,0,0,3.34,7l-3.54-3.4" transform="translate(-28.12 -38.45)" style="fill:none;stroke:#edd056;stroke-miterlimit:10"/>
		<path d="M391.58,181.15c4.12,7.58,4.3,16.6,4.39,25.23.06,6.26.1,12.67-1.88,18.61-2.34,7-7.31,12.81-12.16,18.4l27.42,1.31c-7.35-6.15-5.41-19.95,3.35-23.83s20.29,4,19.9,13.53c-.2,4.81-2.78,9.14-5.29,13.24l70.83-.53-40-18.55c-4.11-1.91-8.3-3.86-11.65-6.92-7.61-7-9.45-18.16-9.78-28.47,0-1.67-.18-3.57-1.48-4.62a5.77,5.77,0,0,0-3.58-.89c-7.61-.19-16.52.23-20.93,6.44-1.18-6.79-3.07-14-8.43-18.4-7.79-6.36-19.32-4-28.29-5C381.29,170,388.16,174.85,391.58,181.15Z" transform="translate(-28.12 -38.45)" style="fill:none;stroke:#edd056;stroke-miterlimit:10"/>
		<path d="M385.57,173A17,17,0,0,1,399,181.33a7.34,7.34,0,0,1-4.61.14,9.12,9.12,0,0,0-7.26-8.46,12.48,12.48,0,0,1,9.35,9.41,23.39,23.39,0,0,0-8.43-9.94,6.71,6.71,0,0,1,6.87,11.4l7.44-.9c-1-.38-1.14-1.67-1-2.71s.3-2.22-.38-3-2.46-.1-2,.82c2.1,1.26,2.55,4.25,1.67,6.53s-2.75,4-4.56,5.65a4.75,4.75,0,0,1,4-4.72,20.72,20.72,0,0,0-1,7.93,13,13,0,0,0,2.49-8l6.75-.35A13.49,13.49,0,0,0,398,196c3.15,1.74,7.68-1.28,7.29-4.85a32.85,32.85,0,0,1-6.4,9.56,23.72,23.72,0,0,1,8.72-8.79A37.22,37.22,0,0,1,394.69,210l14.5-13.4a104.63,104.63,0,0,0-16.46,33.84l14-18.55c3.1-4.12,6.36-9.37,4.24-14.07a112.23,112.23,0,0,0-19.47,35.13c-1.63,4.84-4.2,10.82-9.31,10.85,4.09.25,7.49-2.93,10.34-5.88,5.69-5.9,11.67-12.34,13-20.44l-18,23.55a55.25,55.25,0,0,0,13-16.63l-7.14,18.82a17.65,17.65,0,0,1,8.87-16.11,15,15,0,0,1-2.3,11.85,4.66,4.66,0,0,1-.89-4.19l.1,5.3a12.2,12.2,0,0,1,6.72,1.45,4.76,4.76,0,0,0-3.11-3.21,5.92,5.92,0,0,1,3.27,7.86" transform="translate(-28.12 -38.45)" style="fill:none;stroke:#edd056;stroke-miterlimit:10"/>
		<path d="M410.44,196.79l4-4a32.75,32.75,0,0,0-7.7,10.75c2.4,1,4.26-2.14,5.57-4.4a14.27,14.27,0,0,1,8.67-6.62c-.85-2.15-3.95.21-4.72,2.39l-6.31,17.85a22.71,22.71,0,0,1,9.14-14.64c3.06-2.17,7.1-4.3,7.16-8a40.5,40.5,0,0,0-15,20.21c-1.22,3.68-3,8.43-6.86,8.35a117.87,117.87,0,0,1,26.29-29.16,45.59,45.59,0,0,0-18.92,27.31l21.3-23.3c-4.85.71-6.4,6.82-7,11.68s-2.64,11-7.54,11.12a74,74,0,0,1,16-16.12L424.37,217a11.4,11.4,0,0,1,8.12-4.56,15.07,15.07,0,0,1-4.32,7.19,14.8,14.8,0,0,0,7.1-3.81,6.78,6.78,0,0,1-3.17,8A7.28,7.28,0,0,1,439,217l-9.35,10.7a22.82,22.82,0,0,0,13.21-11.38A20.5,20.5,0,0,1,433,232l12.09-10.3c-1.63,9.74-12.53,15.92-14.07,25.67a80.61,80.61,0,0,1,17.35-20.87l-10.7,20.13a66.86,66.86,0,0,0,10.64-20A17.33,17.33,0,0,1,443,242.29a22,22,0,0,1,12.67-13.2A64.86,64.86,0,0,1,447,243.75l10.5-11.48a19,19,0,0,1-2.69,12.38l4.35-14.77a14.12,14.12,0,0,1,2.19,10.48,13.63,13.63,0,0,0,4.42-9.67,41.37,41.37,0,0,0-11.58,14.06,77.37,77.37,0,0,1,15.36-6.63,12.23,12.23,0,0,1-6.27,6.78l11.18-6.38a9.66,9.66,0,0,0-2.66,6.61c-1.11-2.06,1.8-4.77,3.77-3.52l0,5.55a8.19,8.19,0,0,1,6.44-5.49c-.92,4-6.78,5.76-9.74,2.91a39.56,39.56,0,0,1,19.3-1.72" transform="translate(-28.12 -38.45)" style="fill:none;stroke:#edd056;stroke-miterlimit:10"/>
		<path d="M485.13,49.15c-37.63,16.14-59.62,62.06-48.61,101.5a67.5,67.5,0,0,0,5.59,14.13c11.4,21,35.87,32.76,59.76,33.26s47.06-8.86,67.16-21.76" transform="translate(-28.12 -38.45)" style="fill:none;stroke:#edd056;stroke-miterlimit:10"/>
		<path d="M484.05,47.35a104,104,0,0,0-14.33,44.42c-.6,7.14-.07,15.24,5.27,20,8.62,7.69,22.58,1.36,33.59,4.89l-10.7,20.88,14.31-2,.36,15.39,9.23-6c-2.79,10.75,5.71,21.83,16.05,25.89s21.89,2.91,32.93,1.7" transform="translate(-28.12 -38.45)" style="fill:none;stroke:#edd056;stroke-miterlimit:10"/>
		<path d="M452.59,125.21c3.86.82,8.09,1.19,11.61-.61s5.78-6.48,3.77-9.88" transform="translate(-28.12 -38.45)" style="fill:none;stroke:#edd056;stroke-miterlimit:10"/>
		<path d="M468,115c2.12,2.6.8,6.77-1.86,8.81s-6.15,2.51-9.47,2.92l16.34.14a5.25,5.25,0,0,1-4.25-6l4.25-.19h-4.12a9.52,9.52,0,0,0,6.86-4.59,10.46,10.46,0,0,1-7.11.73,2.77,2.77,0,0,1,2.31-3.37" transform="translate(-28.12 -38.45)" style="fill:none;stroke:#edd056;stroke-miterlimit:10"/>
		<path d="M481,45.77a59.26,59.26,0,0,0-29.7,22.49c-1.85,2.7-3.47,5.55-5.09,8.39l-9.34,16.44" transform="translate(-28.12 -38.45)" style="fill:none;stroke:#edd056;stroke-miterlimit:10"/>
		<path d="M446.76,68.39a67.3,67.3,0,0,0-10.71,30.39" transform="translate(-28.12 -38.45)" style="fill:none;stroke:#edd056;stroke-miterlimit:10"/>
		<path d="M435.51,84.1a56.72,56.72,0,0,1-1.1,17.09" transform="translate(-28.12 -38.45)" style="fill:none;stroke:#edd056;stroke-miterlimit:10"/>
		<path d="M431.9,92.63v12.2" transform="translate(-28.12 -38.45)" style="fill:none;stroke:#edd056;stroke-miterlimit:10"/>
		<path d="M480.87,199A94.32,94.32,0,0,0,528,196.62c9-2.82,17.45-7,25.89-11.09" transform="translate(-28.12 -38.45)" style="fill:none;stroke:#edd056;stroke-miterlimit:10"/>
		<path d="M511.18,202.82a73.73,73.73,0,0,0,44.57-14.57" transform="translate(-28.12 -38.45)" style="fill:none;stroke:#edd056;stroke-miterlimit:10"/>
		<path d="M534.47,204.25a63.9,63.9,0,0,0,23.75-9.92" transform="translate(-28.12 -38.45)" style="fill:none;stroke:#edd056;stroke-miterlimit:10"/>
	</g>
</svg>

