<svg class="sticky-top" version="1.1" xmlns="http://www.w3.org/2000/svg" xmlns:xlink="http://www.w3.org/1999/xlink" viewBox="0 0 600 750"
	style="fill:none;stroke:#d4b55e;stroke-miterlimit:10">
	<g id="layer_3">
		<path  d="M475.04,506.26c0.07,10.15,10.03,18.73,20.2,18.51c10.17-0.22,19.3-8.16,22.21-17.89
			c2.91-9.73,0.14-20.63-5.95-28.76c-14.72-19.62-47.02-20.57-65.45-4.36c-18.43,16.2-22.69,44.92-13.44,67.63
			c-6.84-4.71-14.27-9.61-22.58-9.54c-8.31,0.07-16.97,7.74-14.7,15.72c-2.69-4.96-8.73-7.86-14.3-6.87s-10.22,5.8-11.03,11.38
			c-26.5-1.7-53.53,9.17-71.45,28.72c80.09,3.19,160.54,6.37,240.21-2.44c7.12-0.79,16.46-4.48,15.12-11.5"/>
		<path  d="M526.34,513.5c6.9,5.18,11.41,13.42,12.06,22.02"/>
		<path  d="M555.5,543.74c-2.38,0.43-4.76,0.86-7.15,1.29c7.03-1.42,14.42,5.35,13.63,12.47"/>
		<path  d="M300.7,483.92c-5.8,6.38,1.32,18.19,9.93,17.57s14.42-10.59,12.63-19.03c-1.79-8.44-9.29-14.75-17.46-17.51
			c-16.37-5.54-36.18,2.23-44.41,17.43c-8.23,15.19-3.92,36.03,9.66,46.72c-5.25-3.26-10.91-6.64-17.09-6.4
			c-6.17,0.24-12.5,5.9-10.95,11.88c-5.82-4.1-15.29-0.67-17.14,6.21c-24.31-3.27-49.63,1.6-71,13.63
			c48.42,5.66,97.38,6.7,145.99,3.1"/>
		<path  d="M334.89,499.91c12.72,0.68,23.59,13.09,22.59,25.79c8.27-4.26,18.92-3.41,26.4,2.11"/>
		<path  d="M46.46,456.85c-0.42,5.43-4.21,10.45-9.32,12.34c3.62-2.1,8.75-1.06,11.25,2.3
			c2.89-0.62,5.46-2.64,6.74-5.31c-2.35,1.44-5.65,1.09-7.63-0.82c-1.99-1.91-2.48-5.19-1.14-7.59"/>
		<path  d="M98.04,492.9c1.05,2.96,0.4,6.45-1.63,8.84c2.96-1.9,7.59,0.48,7.78,3.99c1.92-3.49,3.85-6.98,5.77-10.47
			c-3.29,2.71-8.96,1.56-10.93-2.21"/>
		<path  d="M60.07,518.61c2.11,4.48-1.41,10.55-6.35,10.95c4.51-2.06,10.53,1.85,10.46,6.81c2.04-4,5.28-7.37,9.2-9.56
			c-5.56,1.88-12.3-2.54-12.8-8.39"/>
		<path  d="M29.95,685.51c5.58-0.08,11.16-0.17,16.74-0.25c2.36-6.57,1.56-14.19-2.1-20.14
			c6.46-12.27,19.88-20.56,33.75-20.83c13.87-0.28,27.61,7.46,34.56,19.47c-3.19,0.35-6.39,0.71-9.58,1.06
			c0.82,5.2,1.64,10.4,2.46,15.61c11.17-0.4,22.35-0.81,33.52-1.21c0.8-10.09,1.61-20.18,2.41-30.27
			c-4.43-1.3-8.86-2.59-13.29-3.89c8.73-13.97,27.35-19.06,43.62-16.51s30.82,11.28,44.91,19.82c-5.53,0.06-11.06,0.12-16.6,0.18
			c0.61,9.8,1.22,19.6,1.84,29.39c21.45,1.57,42.89,3.14,64.34,4.71c-5.32-0.93-9.05-7.09-7.43-12.24
			c1.62-5.15,8.21-8.05,13.1-5.76c-4.63-2.93-2.4-11.7,3.06-12.06c-3.68-3.49-7.37-6.98-11.05-10.48c3.9-1.5,7.8-2.99,11.7-4.49
			c-6.06-7.09,1.77-20.25,10.89-18.31c0.55-3.3,1.09-6.6,1.64-9.9c6.97-1.9,15.01,1.49,18.52,7.8s2.15,14.93-3.13,19.85
			c3.5-0.5,7.23,1.17,9.18,4.13c-2.14,3.07-4.27,6.14-6.41,9.21c6.92,2.05,10.42,11.43,6.53,17.51c4.63,0.39,9.07,2.77,11.95,6.41
			c-1.63,3.88-3.27,7.75-4.9,11.63c14.97-0.01,29.93-2.39,44.17-7.01c-0.14-6.27-0.27-12.54-0.41-18.8
			c-3.73-0.34-7.47-0.67-11.2-1.01c2.88-13.59,16.37-24.11,30.26-23.58c13.88,0.52,26.55,12.03,28.39,25.8
			c-11.91,6.1-8.84,26.11,2.84,32.65c11.68,6.54,26.5,2.93,38.32-3.34c1.43-6.89,2.86-13.79,4.29-20.68
			c-4.25,0.1-8.51,0.2-12.76,0.3c6.87-10.91,20.66-16.99,33.35-14.68c12.68,2.3,23.46,12.84,26.05,25.47
			c-1.39,7.86-2.77,15.73-4.16,23.59c7.91,0.77,16.03-0.85,23.04-4.59c2.15-8.62,4.29-17.25,6.44-25.87
			c9.51,3.1,19.88,3.47,29.59,1.07c-0.07,10.49,2.28,20.99,6.84,30.44c-0.39-4.29-0.77-8.59-1.16-12.88"/>
		<path  d="M59.66,653.11c-3.23,2.74-6.46,5.49-9.69,8.23c3.5-2.42,6.99-4.85,10.49-7.27c-2.43,3.14-4.87,6.27-7.3,9.41
			c6.04-4.41,12.08-8.82,18.12-13.23c-4.38,8.74-11.72,15.96-20.53,20.19c6.49-7.4,14.87-13.12,24.12-16.47
			c-5.4,8.96-13.22,16.44-22.41,21.44c9.01-8.83,20.2-15.42,32.29-19.03c-9.05,11.58-20.95,20.91-34.35,26.93
			c10.85-10.89,23.81-19.66,37.94-25.68c-7.76,13.2-19.21,24.2-32.71,31.44c9.88-10.91,21.39-20.34,34.01-27.9
			c-6.62,7.93-14.9,14.48-24.14,19.11c9.3-6.25,18.59-12.5,27.89-18.75c-4,11.02-12.16,20.48-22.47,26.05
			c7.03-5.04,14.06-10.08,21.09-15.12c-6.04,5.82-12.08,11.65-18.12,17.47c4.57,0.94,9.13,1.88,13.7,2.83
			c-16.68,2.28-33.36,4.56-50.04,6.83c26.25-2.36,52.49-4.72,78.74-7.09c-9.42,0.6-19.03-2.78-26-9.15
			c8.62-3.37,18.99-1.78,26.2,4.01c-2.79,1.51-5.58,3.02-8.38,4.53c13.04-5.05,28.75-2.38,39.39,6.69
			c4.99-5.19,9.99-10.38,14.98-15.56c-6.85-0.31-13.69-0.61-20.54-0.92c12.75-3.83,24.75-10.16,35.12-18.51
			c-8.8,4.4-17.6,8.79-26.39,13.19c11-9.27,22-18.55,33-27.82c-10.57,2.4-21.14,4.8-31.71,7.21c6.82-5.57,13.64-11.14,20.46-16.71
			c-9.41,4.74-18.83,9.48-28.24,14.22c4.65-5.22,9.3-10.44,13.94-15.66c-7.69,0.22-15.39,0.43-23.08,0.65
			c7.01-2.99,15.09-5.98,21.97-2.7c6.88,3.27,7.78,15.97,0.25,17.15c8.07-2.49,16.15-4.97,24.22-7.46
			c-8.94,14.41-19.95,27.53-32.58,38.84c11.57-7.49,23.13-14.97,34.7-22.46c-8.52,10.66-17.04,21.31-25.56,31.97
			c6.57-4.53,13.13-9.07,19.7-13.6c-3.67,4.67-7.35,9.33-11.02,14c11.43-4.77,23.8-7.28,36.19-7.34c-3.43-1.03-6.86-2.07-10.3-3.1
			c6.89-6.42,20.5,0.33,19.57,9.69c2.83-2.59,5.66-5.19,8.49-7.78c-7.43-1.27-15.36,0.75-21.28,5.41
			c11.13-1.88,22.26-3.77,33.39-5.65c-3.35,1.55-6.71,3.09-10.06,4.64c9.29-2.04,18.58-4.07,27.87-6.11
			c-3.3,3.05-6.61,6.09-9.91,9.14c13.51-1.43,27.02-2.86,40.53-4.3c-3.25-0.83-6.51-1.66-9.76-2.49
			c9.42-5.72,18.85-11.43,28.27-17.15c-8.93,4.55-17.87,9.09-26.8,13.64c9.39-6.23,18.78-12.46,28.17-18.68
			c-10.7,5.12-21.41,10.25-32.11,15.37c11.16-6.53,22.32-13.07,33.48-19.6c-9.12,0.54-18.05,3.83-25.34,9.34
			c5.69-3.86,11.38-7.73,17.07-11.59c-5.18,1.14-10.35,2.28-15.53,3.42c4.39-3.36,8.79-6.71,13.18-10.07
			c-4.47,1.21-8.94,2.42-13.4,3.64c4.85-3.49,9.7-6.97,14.56-10.46c-6.21,2.23-12.41,4.46-18.62,6.68
			c6.06-3.58,12.12-7.16,18.18-10.73c-5.04,0.87-10.07,1.73-15.11,2.6c3.31-2.91,6.61-5.82,9.92-8.73
			c-3.03,1.22-6.06,2.44-9.09,3.67c6.95-6.9,13.9-13.8,20.86-20.71c2.17,16.05-1.4,32.82-9.94,46.59
			c5.95,0.2,11.91,0.39,17.86,0.59c-4.36,6.2-8.71,12.4-13.07,18.59c7.81-1.25,15.63-2.51,23.44-3.76
			c0.22,4.67-1.61,9.4-4.91,12.71c5.78-2.56,11.57-5.11,17.35-7.67c1.19,4.71-0.22,9.99-3.6,13.48c7.65-2.2,15.3-4.4,22.95-6.6
			c-3.51,1.73-7.03,3.45-10.54,5.18c14.75,0.53,29.61-2.28,43.15-8.17c-12.64,2.3-24.69,7.72-34.79,15.65
			c15.38-5.16,30.76-10.32,46.13-15.48c-9.86,4.74-19.72,9.47-29.58,14.21c8.68-7.47,17.35-14.94,26.03-22.41
			c-7.92,2.81-15.84,5.62-23.76,8.44c8.67-4.73,17.35-9.46,26.02-14.18c-7.95-1.34-16.31-0.18-23.6,3.27
			c6.51-3.39,13.01-6.77,19.52-10.16c-5.78,1.33-11.56,2.65-17.34,3.98c4.34-4.52,8.69-9.05,13.03-13.57
			c-4.19,0.13-8.38,0.26-12.58,0.38c2.77-3.92,5.53-7.84,8.3-11.77c-2.8-0.09-5.6-0.18-8.4-0.26c7.74-3.08,16.78-2.73,24.26,0.93
			c-3.18,7.85-6.37,15.7-9.55,23.54c0.87-1.77,3.6-2.24,5.01-0.85c1.41,1.39,0.99,4.12-0.77,5.02"/>
		<path  d="M399.46,694.05c-3.11,2.35-6.22,4.69-9.33,7.04c3-4.47,9.94-5.64,14.24-2.4c-0.48,1.27-0.97,2.53-1.45,3.8
			c18.79,7.7,41.21,5.86,58.5-4.78c-4.31,0.18-8.61,0.35-12.92,0.53c11.33-5.74,22.67-11.47,34-17.21
			c-7.12,5.58-15.46,9.59-24.27,11.67c8.77-4.35,17.54-8.71,26.31-13.06c-8.04,1.47-16.08,2.94-24.11,4.4
			c7.62-2.76,15.24-5.52,22.86-8.28c-6.69-0.41-13.38-0.82-20.07-1.23c5.66,0.35,11.42-1.83,15.43-5.83
			c-7.73,0-15.46-0.01-23.18-0.01c10.82-1.55,21.98-0.67,32.42,2.56c-10.46,8.65-20.92,17.3-31.39,25.95
			c13.48-2.32,26.45-7.57,37.75-15.3c-9.1,6.41-16.85,14.73-22.61,24.25c9.24-4.68,18.48-9.36,27.72-14.05
			c-6.35,4.76-11.33,11.33-14.21,18.73c6.48-1.05,13.33,0.34,18.89,3.84c-3.85-1.62-7.69-3.25-11.54-4.87
			c-0.68,6.25,7.5,10.24,13.52,8.43c6.02-1.81,10.31-6.95,14.98-11.16c4.67-4.21,11.1-7.83,17.01-5.67
			c-7.91,2.52-15.83,5.04-23.74,7.56c12.92-5,25.84-10,38.75-14.99c-6.88-0.13-13.77-0.26-20.65-0.4
			c4.99-3.84,11.86-5.1,17.89-3.29c-7.69,4-15.38,8.01-23.07,12.01c6.24-2.23,12.49-4.45,18.73-6.68
			c-3.58-1.33-6.65-3.99-8.47-7.36c3.98-1.48,7.96-2.96,11.94-4.44c4.14,2.63,4.61,8.54,3.56,13.34s-3.15,9.54-2.49,14.41
			c0.66,4.86,5.88,9.53,10.23,7.26c-2.12-0.53-4.24-1.06-6.35-1.59"/>
	</g>
	<g id="layer_2">
		<path  d="M189.47,260.2c0.81-0.7,1.61-1.41,2.42-2.11c-0.15,6.22-6.46,11.56-12.62,10.67
			c9.41,4.61,12.44,18.63,5.78,26.71c5.82-9.6,16.2-16.29,27.34-17.63c-7.03,1.25-14.63-3.3-16.83-10.09s1.26-14.94,7.69-18.06"/>
		<path  d="M42.36,362.84c-5.99,14.47-11.98,28.93-17.97,43.4c18.22,17.06,36.9,34.13,59.01,45.73
			c22.1,11.61,48.33,17.34,72.32,10.44c23.99-6.9,44.52-28.44,45.33-53.39c0.42-12.88-5.41-26.93-17.25-32.04
			c12.7-11.05,22.68-26.92,21.45-43.71c-0.83-10.99-18.97-39.53-33.49-28.88c-3.84,2.82-1.31,12.06-4.72,15.55
			c-2.69,2.75-5.67,1.12-8.01,2.89c-6.2,4.69-11.09,8.61-17.15,15.06C117.22,364.13,76.52,375.07,42.36,362.84z"/>
		<path  d="M188.37,328.17c2.48,4.38-1.3,10.82-6.34,10.78c-5.04-0.04-8.72-6.53-6.16-10.88
			C178.43,323.72,185.89,323.78,188.37,328.17"/>
		<path  d="M136.33,444.51c8.44,0.58,16.72-3.21,23.23-8.62c6.5-5.42,11.51-12.37,16.44-19.25
			c1.9-2.64,3.83-5.38,4.54-8.56c4.43-19.86-13.99-1.92-17.43,2.16C160.85,412.91,135.74,444.47,136.33,444.51z"/>
		<path  d="M27.54,405.61c10.08-10.41,18.09-22.81,23.44-36.28c-1.45,15.36-5.16,30.5-10.98,44.79
			c-0.15-13.34,3.78-26.69,11.12-37.82c2.59,14.09,1.18,28.89-4.04,42.23c3.84-12.86,7.69-25.72,11.53-38.58
			c3.4,14.95,1.52,31.04-5.22,44.8c0.45-14.83,4.63-29.54,12.06-42.39c3.74,16.51,1.93,34.23-5.06,49.64
			c3.2-17.37,6.4-34.74,9.6-52.12c2.86,19.32,1.75,39.23-3.22,58.12c2.52-16.69,5.04-33.38,7.56-50.07
			c4.18,15.49,4.81,31.93,1.8,47.7c0.23-15.96,0.47-31.92,0.7-47.88c7.51,20.06,9.65,42.11,6.13,63.24
			c2.23-19.28,2.9-38.73,1.99-58.12c9.5,16.49,12.84,36.45,9.23,55.14c0.3-19.34-1.18-38.71-4.41-57.78
			c12.65,17.03,17.73,39.49,13.63,60.31c-2.09-20.99-2.22-42.17-0.39-63.19c10.05,17.72,13.89,38.89,10.71,59.01
			c-1.91-23.7-3.83-47.4-5.74-71.1c11.47,20.91,15.77,45.68,12.02,69.23c-1.67-24.65-3.35-49.3-5.02-73.95
			c14.59,15.12,22.31,36.63,20.65,57.58c-4.72-19.55-9.43-39.1-14.15-58.65c9.97,15.89,15.84,34.33,16.89,53.07
			c-2.12-18.9-4.25-37.81-6.37-56.71c11.8,14.16,18.53,32.46,18.73,50.89c1.95-20.11-1.05-40.69-8.65-59.41
			c11.61,10.8,18.84,26.17,19.77,42c-4.96-17.66-9.91-35.32-14.87-52.98c14.05,12.77,23.04,30.98,24.63,49.9
			c-1.57-14.36-6.53-28.34-14.35-40.48c11.17,6.84,18.48,19.58,18.74,32.68c-2.7-14.02-5.4-28.05-8.1-42.07
			c9.19,6.26,15.49,16.6,16.83,27.64c-2.83-5.07-0.15-12.37,5.29-14.41c0.98-5.84,1.96-11.68,2.94-17.52
			c0.92,2.22,2.95,3.96,5.29,4.51"/>
		<path  d="M202.79,396.55c-1.72,14.5,1.64,29.15,6.44,42.94c3.76,10.81,10.57,22.93,21.99,23.69
			c7.39,0.49,14.14-4.2,19.3-9.51c12.76-13.12,19.92-31.53,19.37-49.82c-1.6,5.92-3.22,12-2.59,18.1c0.63,6.1,4,12.31,9.72,14.52
			c9.61,3.71,19.31-5.04,25.13-13.54c9.02-13.17,15.83-27.86,20.05-43.25c2.89-10.55,4.27-22.81-2.27-31.58
			c-16.81-22.53-48.8-5.03-67.41,3.15C228.17,361.95,206.57,364.68,202.79,396.55z"/>
		<path  d="M244.31,376.8c-4.58-3.86-12.74-2.44-15.25,3c-2.01,4.36,0.17,10.15,4.55,12.11
			c4.38,1.95,10.15-0.31,12.04-4.72c1.89-4.41-0.44-10.15-4.88-11.98c0.87-0.09,1.73-0.17,2.6-0.26"/>
		<path  d="M297.14,361.14c-2.46-4.16-9.19-3.99-12.48-0.45c-3.56,3.83-3.3,10.57,0.55,14.12
			c3.85,3.54,10.59,3.25,14.11-0.62c3.52-3.87,3.19-10.6-0.69-14.11"/>
		<path  d="M222.66,366.59c3.11,2.17,5.13,5.85,5.29,9.64c-4.31-1.94-9.16-2.66-13.85-2.06
			c2.83,3.56,6.33,6.58,10.27,8.85c-2.02-5.18-11.49-3.82-12.01,1.72c-0.52,5.54,8.44,8.68,11.53,4.06
			c-4.52-0.4-9.04-0.8-13.56-1.2c5.28,1.96,10.57,3.92,15.85,5.88c-5.3-0.91-11.02,1.46-14.12,5.84c4.3,0.73,8.83,0,12.69-2.03
			c-6.59,2.12-12.69,5.78-17.66,10.6c5.59-1.43,11.19-2.86,16.78-4.29c-3.58,4.27-7.15,8.53-10.73,12.8
			c8.7-6.46,17.4-12.92,26.1-19.38c-13.94,9.9-26.42,21.86-36.91,35.35c12.69-10.61,25.39-21.22,38.08-31.83
			c-10.05,14.91-17.61,31.5-22.26,48.87c20.11-22.92,27.43-54.03,34.09-83.79c-2.93,28.11-9.02,55.9-18.12,82.66
			c15.53-29.81,25.17-62.68,28.2-96.16c-0.09,30-3.6,59.98-10.43,89.19c6.9-28.04,13.8-56.08,20.7-84.11
			c0.02,21.88-2.93,43.76-8.74,64.85c7.78-16.01,12.18-33.65,12.84-51.44c5.59,18.39,0.97,38.15-3.65,56.8
			c1.92-15.22,3.85-30.43,5.77-45.65c0.2-1.58,0.66-3.48,2.19-3.91c2.33-0.65,3.6,2.63,3.71,5.05c0.67,14.47-0.1,29-2.29,43.31
			c1.74-12.76,5.03-25.3,9.77-37.27c-1.08,12.16-2.16,24.32-3.24,36.48c5.99-16.74,11.97-33.48,17.96-50.22
			c-2.62,13.88-5.24,27.76-7.85,41.64c7.88-8.97,15.03-19.05,17.8-30.67c2.76-11.62,0.36-25.05-8.51-33.05
			c-6.25-5.63-15.55-7.96-23.5-5.18s-13.91,10.91-13.44,19.32c0.47,8.4,7.88,16.06,16.29,16.12c8.42,0.06,16.13-8.19,14.88-16.51
			s-11.86-13.89-19.15-9.67c-7.01,4.06-7.78,15.47-1.58,20.69s17,2.83,20.73-4.36c3.73-7.19-0.21-17.14-7.73-20.15
			s-17,1.14-20.22,8.57s-0.03,16.93,6.83,21.24c7.54,4.74,18.56,2.68,23.89-4.45c6.48-8.67,5.43-23.2,15.24-27.75"/>
		<path  d="M316.95,416.82c-2.32,7.55-4.67,15.51-3,23.23c3.56,16.45,24.44,24,40.63,19.41s28.51-17.44,39.98-29.76
			c-6.54-3.45-11.56-9.67-13.56-16.79c-7.64,11.24-22.1,17.39-35.49,15.1c5.75-28.5,15.07-56.28,27.69-82.48
			c5.02,5.14,14.09,5.56,19.56,0.9c5.47-4.65,6.52-13.67,2.25-19.45c-7.25,0.45-14.62-1.14-21.04-4.55
			c3.71-8.57,7.42-17.15,11.13-25.72c0-15.12-31.25-3.04-32.57,11.59c-16.5,0.74-38.54,28.59-11.5,29
			C335.61,364.01,324.98,390.69,316.95,416.82z"/>
		<path  d="M358.02,295.85c5.57,3.99,11.13,7.98,16.7,11.97c-5.45-3.15-10.9-6.3-16.35-9.45
			c4.82,7.21,11.27,13.33,18.72,17.77c-4.71-6.23-9.41-12.47-14.12-18.7c5.37,1.98,10.14,5.59,13.5,10.23
			c0.03-4.89-3.77-9.53-8.57-10.45c-0.59,5.33,1.42,10.89,5.28,14.61c-8.76-4.83-19.95-4.94-28.82-0.3
			c8.15,2.77,16.3,5.55,24.45,8.32c-9.66-2.18-19.31-4.36-28.97-6.54c9.85,6.46,21,10.92,32.58,13.03
			c-10.94-6.1-24.31-7.7-36.39-4.35c9.83,7.19,21.69,11.58,33.84,12.52c-12.46-1.57-24.91-3.14-37.37-4.71
			c14.93,4.48,29.86,8.96,44.79,13.44c-11.44-6.47-24.61-9.87-37.75-9.74c13.43,6.57,27.8,11.23,42.54,13.8
			c-2.3-5.29-7.04-9.84-12.77-10.51c-5.73-0.67-12,3.58-12.3,9.35s7.04,10.73,11.79,7.46c-9.24-3.03-18.47-6.05-27.71-9.08
			c6.73,5.56,14.62,9.7,23.02,12.06c-6.32-5.32-14.57-8.31-22.84-8.26c3.76,7.56,11.68,12.88,20.1,13.5
			c-6.25-1.98-12.49-3.96-18.74-5.95c4.64,5.16,9.28,10.33,13.93,15.49c-8.78,0.69-17.79-2.4-24.29-8.34
			c3.85,6.86,9.92,12.46,17.07,15.73c-5.29-4.91-12.38-7.85-19.6-8.1c3.1,7.65,11.05,13.07,19.3,13.15
			c-5.65-0.24-11.3-0.48-16.95-0.72c-1.92-0.08-4.14-0.03-5.33,1.47c-1.78,2.25,0.58,5.76,3.39,6.3c2.81,0.55,5.61-0.71,8.34-1.59
			s6.04-1.26,8.17,0.66c-8.07-0.17-16.15,3.3-21.58,9.27c6.43,0.05,12.86,0.11,19.29,0.16c-6.04,3.66-12.08,7.31-18.12,10.97
			c6.85,3.56,15.39,3.67,22.32,0.27c-6.64,6.43-13.29,12.86-19.93,19.29c4.49-2.35,8.97-4.7,13.46-7.06
			c-4.91,6.62-9.82,13.23-14.73,19.85c6.99-1.86,13.46-5.63,18.53-10.79c-3.2,5.17-6.4,10.34-9.59,15.5
			c2.56-4.49,6.7-8.06,11.52-9.93c-0.17,5.72-2.47,11.35-6.36,15.55c0.88-3.92,1.88-8.06,4.69-10.93
			c2.81-2.87,8.09-3.72,10.69-0.66c2.6,3.06-1.1,9.09-4.64,7.18c1.96-5.95,6.26-11.1,11.76-14.08c2.45,4.5,3.27,9.86,2.28,14.88
			c-4.65-6.39-1.22-16.92,6.31-19.33c3.22,2.49,5.17,6.54,5.14,10.61c-2.51-6.55,0.38-14.72,6.45-18.24
			c0.8,2.02,1.59,4.05,2.39,6.07c1.07,0.94,3.05,0.4,3.49-0.95"/>
		<path  d="M401.23,370.61c1.07-0.9,2.15-1.81,3.22-2.71c-8.75-8.22-24.86-5.52-31.08,4.75
			c-6.22,10.27-1.81,25.2,8.64,31.12c10.44,5.92,24.92,2.54,32.33-6.9c-2.53-4.31-3.96-9.27-4.1-14.27
			c-6.14,6.1-15.46,8.8-23.9,6.92c-3.42-7.57,3.97-17.53,12.2-16.46c-1.52,1.51-0.89,4.53,1.11,5.29c2,0.77,4.49-1.05,4.37-3.19"/>
		<path  d="M401.63,366.71c0.49,1.23,0.99,2.46,1.48,3.7c-1.69,1.16-3.39,2.32-5.08,3.48c-1.3-1.61-1.61-3.96-0.77-5.85
			c1.65-1.06,4.22,0.01,4.62,1.93c-1.99,0.86-3.98,1.72-5.96,2.58c0.14-1.41,0.27-2.82,0.41-4.23c1.16-2.04,5.05-0.87,4.89,1.47
			s-4.17,2.97-5.04,0.79c2.17-2.28,6.74-1.04,7.45,2.03c-2.4,0.66-4.96-2.13-4.1-4.47c-0.26,2.83-0.51,5.67-0.77,8.5
			c-2.77-3.23-3.74-7.91-2.5-11.98c0.75,2.17-0.67,4.84-2.89,5.43c-2.22,0.59-4.77-1.03-5.19-3.29c2.6-0.27,5.16,2.09,5.09,4.7
			c-3.06-0.03-6.08-1.52-7.96-3.93c1.85,1.52,3.71,3.04,5.56,4.57c-3.4-0.17-6.72-1.55-9.24-3.82c1.75,1.47,3.5,2.95,5.25,4.42
			c-2.16-0.38-4.33-0.75-6.49-1.13c1.25,2.5,3.8,4.3,6.57,4.66c-3-0.44-6-0.88-9.01-1.32c1.49-0.11,2.98-0.22,4.47-0.33
			c-3.53-0.81-7.49,1.01-9.17,4.21c2.97-1.24,5.95-2.49,8.92-3.73c0.89,4.33-3.28,8.9-7.67,8.4c2.6-1.12,5.21-2.24,7.81-3.37
			c0.59,4.52-3.89,8.96-8.41,8.33c1.09-2.75,3.33-5.02,6.06-6.15c3.23,3.87,1.38,10.73-3.36,12.45c-1.12-3.39,3.23-7.07,6.39-5.41
			s2.6,7.32-0.83,8.33c1.44-1.81,2.88-3.63,4.33-5.44c2.21,1.59,2.73,5.08,1.08,7.25c-0.38-2.53,0.27-5.19,1.78-7.26
			c1.77,4.21,0.49,9.51-3.01,12.45c-0.27-4.02,2.88-7.99,6.86-8.63c2.75,3.47,0.94,9.47-3.28,10.84
			c-0.46-4.08,0.87-8.32,3.58-11.41c1.41,2.23,1.73,5.11,0.83,7.59c0.91-3.57,1.82-7.14,2.73-10.7c1.82,2.28,2.72,5.28,2.45,8.18
			c-0.13-3.4,1.12-6.83,3.41-9.35c0.55,1.79,1.09,3.58,1.64,5.37c-1.67-0.3-3.35-0.59-5.02-0.89"/>
		<path  d="M474.4,437.28c4.57-6.67,7.94-14.22,8.61-22.23c0.8-9.59-2.8-19.88-10.63-25.48
			c-7.83-5.6-19.95-5.17-26.22,2.13c4.97-23.71,5.76-48.29,2.33-72.26c-0.62-4.04-19.55,6.68-21.12,10.51
			c-3.81,9.29-0.39,27.34-1.77,37.86c-3.3,25.16-10.81,49.78-22.25,72.43c2.03,5.39,9.48,6.83,14.76,4.51
			c5.27-2.31,8.93-7.14,12.62-11.56c3.69-4.42,8.06-8.87,13.73-9.88c2.94,7.73,3.08,16.48,0.38,24.3
			c10.05-2.44,31.99-2.95,32.96-16.44c-6.41,3.31-12.49,7.95-18.56,12.05c4.83-7.18,9.66-14.36,14.49-21.55
			c-4.63,7.44-13.4,12.09-22.15,11.75c5.23-6.37,10.47-12.73,15.7-19.1c-4.19,6.43-11.3,10.87-18.91,11.83
			c3.84-9.76,11.28-18.05,20.56-22.93c-5.15,7.32-13.13,12.6-21.88,14.48c0.3-7.21,3.53-14.26,8.8-19.2
			c2.15-2.01,5.82-3.59,7.76-1.38c1.68,1.91,0.43,4.91-1.11,6.92c-4.42,5.77-11,9.84-18.13,11.22c1.54-6.52,4.43-12.72,8.44-18.08
			c1.73-2.31,4.4-4.69,7.13-3.76c2.28,0.77,3.26,3.66,2.68,6c-0.58,2.34-2.29,4.21-4.02,5.89c-7.66,7.46-16.85,13.34-26.83,17.17
			c-0.15-4.01-0.29-8.11,0.89-11.94c1.18-3.83,3.96-7.42,7.83-8.46c3.88-1.04,8.65,1.33,9.25,5.3c0.62,4.07-2.91,7.48-6.19,9.97
			c-6.47,4.91-13.3,9.37-20.4,13.32c-1.45,0.81-3.08,1.62-4.71,1.29c-2.42-0.49-3.7-3.42-3.24-5.85c0.47-2.43,2.17-4.41,3.88-6.2
			c7.97-8.34,17.49-15.18,27.94-20.06c-3.88,10.22-13.8,17.87-24.66,19.03c-0.52-15.51,10.32-30.7,25.15-35.25
			c0.72,6.59-4.93,13.18-11.55,13.46c-6.62,0.29-12.82-5.79-12.67-12.41c0.15-6.63,6.62-12.41,13.22-11.83
			c2.62,0.23,5.46,1.71,5.95,4.3c0.6,3.17-2.77,5.87-5.98,6.11c-5.58,0.41-10.86-4.92-10.39-10.49c0.47-5.57,6.56-9.95,11.99-8.62
			c-2.22,3.93-7.82,5.47-11.74,3.24c0.46-9.31,10.25-17,19.4-15.23c-6.53,1.59-13.06,3.18-19.59,4.77
			c2.39-5.99,9.35-9.76,15.67-8.49c-2.12-0.15-4.24-0.3-6.35-0.46c-1.84-3.17-1.44-7.48,0.94-10.26s6.58-3.83,9.99-2.51
			c-2.48,1.35-5.19,2.57-8,2.4c-2.82-0.16-5.71-2.13-6.03-4.94c-0.31-2.81,3.08-5.55,5.47-4.04"/>
		<path  d="M530.53,381.17c2.09-1.52,1.44-5.1-0.65-6.62c-2.09-1.52-4.92-1.49-7.47-1.08
			c-11.02,1.77-20.57,9.42-26.23,19.03c-5.66,9.62-7.73,21.02-7.63,32.17c0.07,7.94,1.89,16.97,8.71,21.03
			c6.32,3.76,14.82,1.59,20.44-3.17s8.99-11.57,12.22-18.19c-2.33,4.47-4.62,10.12-1.69,14.22c2.75,3.86,8.88,3.76,12.78,1.07
			s6.12-7.15,8.18-11.43c-8.02-5.38-9.73-16.99-6.5-26.09c3.22-9.1,10.22-16.27,17.01-23.13c-8.22-4.84-20.24-1.11-24.27,7.54
			c-4.92-3.29-11.28-4.68-16.92-2.88c-5.64,1.8-10.23,7.08-10.42,13c-0.19,5.92,4.64,11.79,10.56,12.03
			c5.67,0.23,11-5.33,10.09-10.93c-0.91-5.6-8.32-9.11-13.02-5.93c-4.69,3.18-3.73,11.86,1.68,13.58
			c5.08,1.61,10.73-3.98,9.42-9.15c-1.31-5.16-8.54-7.52-12.82-4.35c-4.28,3.17-4.33,10.45-0.29,13.91
			c4.04,3.47,10.94,2.53,14.17-1.71"/>
		<path  d="M500.83,395.9c2.68-6.54,7.48-12.19,13.49-15.9c-3.14,1.32-6.28,2.64-9.42,3.95
			c5.11-3.63,11.52-5.37,17.77-4.84c-12.08,2.88-22.88,10.76-29.31,21.39c4.81,0.08,9.63-1.39,13.58-4.15
			c-5.61,5.54-11.22,11.08-16.82,16.61c2.58,0.18,4.74-1.89,6.26-3.98s2.9-4.5,5.25-5.57s5.92,0.27,5.8,2.85
			c-0.08,1.66-1.56,2.85-2.91,3.82c-4.5,3.22-9,6.43-13.5,9.65c2.77-4.82,8.33-7.91,13.88-7.69c-1.76,8.47-7.67,15.98-15.5,19.68
			c3.01-8.24,11.22-14.31,19.98-14.79c-3.03,9.34-8.94,17.73-16.71,23.74c1.65-9.74,8.67-18.39,17.85-22.01
			c3.19,7.39-0.23,16.97-7.37,20.68c-0.72-5.61-1.36-11.68,1.42-16.61c2.77-4.93,10.46-7.35,14.15-3.06
			c3.66,4.25,0.77,10.74-2.2,15.5c-1.2-4.12-2.42-8.35-2.1-12.62s2.52-8.68,6.44-10.42c3.92-1.73,9.43,0.35,10.23,4.57
			c0.85,4.48-3.35,8.16-7.09,10.78c-0.75-8.58,0.8-17.35,4.45-25.15c1.37-2.93,3.48-6.05,6.7-6.43c5.01-0.6,8.02,6.39,5.82,10.93
			s-7.21,6.87-11.84,8.85c3.57-9.2,9.92-17.3,18.01-22.96c2.57,4.97-1.91,11.94-7.49,11.67c-0.65-7.42,2.71-15.06,8.6-19.61
			c-6.54-0.15-13,3.85-15.78,9.77c8.46-1.15,16.55-4.97,22.81-10.78c-10.48,7.71-19.11,17.92-24.97,29.54
			c2.75-1.93,5.51-3.86,8.26-5.8c-1.88,7.67-6.23,14.71-12.24,19.84c0.57-2.37,3.99-3.44,5.81-1.8c1.04,1.88-1.57,4.43-3.42,3.33"
			/>
		<path  d="M559.02,337.09c-2.41,1.69-0.36,6.16,2.58,6.09c2.94-0.07,5.01-3.37,4.68-6.29
			c-0.33-2.92-2.38-5.37-4.65-7.24c-3.64-3.01-8.49-5.12-13.07-3.95c-4.58,1.17-8.05,6.65-5.88,10.85c1.59,3.06,5.47,4.34,8.89,3.9
			s6.5-2.23,9.47-3.98c-5.03-0.77-10.35,0.54-14.45,3.56c-0.16,5.45,4.94,10.35,10.39,10.33c5.45-0.02,10.39-4.65,11.12-10.05
			c0.74-5.4-2.53-11-7.44-13.36c-6.35-2.32-13.77,4.31-12.76,10.99c1.02,6.68,9.21,10.91,15.51,8.46c1.69-0.66,3.27-1.74,4.16-3.32
			c1.71-3.04,0.34-7.01-2.01-9.6c-3.63-3.99-9.65-5.76-14.75-3.99c-5.1,1.77-8.8,7.15-8.27,12.52c0.53,5.37,5.51,10.03,10.9,9.86
			c4.97-0.15,9.54-4.66,9.33-9.63c-0.21-4.97-5.6-9.16-10.37-7.76c-4.77,1.41-6.89,8.37-3.44,11.96c3.62,0.55,7.39,1.04,10.89-0.06
			c3.5-1.1,6.63-4.25,6.47-7.91c-0.21-4.95-6.55-7.88-11.19-6.13c-4.64,1.74-7.46,6.55-8.72,11.35c6.4-1.63,12.8-3.27,19.21-4.9
			c-2.88-4.15-8.24-6.42-13.22-5.59c-2.05,0.34-4.22,1.37-4.92,3.33c-1.11,3.1,2.46,6.24,5.75,6.05c3.29-0.19,6.03-2.46,8.52-4.62
			c1.77-2.72-0.75-6.66-3.94-7.21c-3.2-0.54-6.35,1.36-8.54,3.75c-2.27,2.48-3.77,6.58-1.48,9.04c2.84,3.06,8.47-0.23,8.96-4.38
			s-2.15-7.94-4.65-11.28c-2.17,9.34-2.97,18.99-2.36,28.56c4.28-10.32,4.44-22.28,0.43-32.71c-4.66,5.24-4.02,14.28,1.32,18.82
			c0.91-3.95-0.34-8.33-3.19-11.21c-2.66,1.61-5.33,3.22-7.99,4.83c9.77,9.88,23.12,16.13,36.96,17.31
			c2.07-0.39,3.47-2.86,2.74-4.84c-2.19,7.55-5.41,14.81-9.54,21.5c5.74,0.47,11.61-0.88,16.56-3.82
			c-8.12,2.65-14.88,9.17-17.82,17.19c4.52,0.55,9.24-0.79,12.79-3.64c-8.26,2.69-15.23,9.09-18.61,17.09
			c7.39,0.81,15.02-0.7,21.54-4.27c-8.8-2.47-19.03,3.78-20.84,12.74c3.67-0.26,7.33-0.51,11-0.77c-7.85-0.02-15.7,1.56-22.92,4.63
			c9.05,2.21,18.79,1.48,27.41-2.04c-1.6,3.35-5.84,4.37-9.54,4.63c-18.53,1.29-9.96,19.16,3.62,2.92
			c10.71-12.8,13.97-33.69,11.81-49.69c-2.16-15.99-14.04-20.32-17.26-3.51c-2.82,14.71-2.33,27.09-10.65,40.62
			c-3.43,5.58-7.65,12.81-3.66,18c2.56,3.33,7.66,3.82,11.5,2.1c0.64-0.29,1.25-0.62,1.83-0.99"/>
	</g>
	<g id="layer_1">
		<g>
			<path d="M106.44,49.06c-9.06,8.64-14.43,20.99-14.61,33.5c-2.55-4.44-6.61-8-11.43-9.83c-2.45-0.93-5.07-1.4-7.78-1.4
				c-2.39,0-4.77,0.38-7.01,1.1c4.5-5.79,6.81-13.9,7.16-20.58c1.87,0.6,4.42,0.91,7.61,0.91
				C88.88,52.76,100.04,50.67,106.44,49.06 M71.14,43.79c-2.24,3.33-1.65,5.4,0.67,6.6C71.83,48.05,71.61,45.81,71.14,43.79
				L71.14,43.79z M110.66,46.77c-3.1,1.33-19.23,4.99-30.29,4.99c-3.6,0-6.66-0.39-8.56-1.37c-0.09,9.47-4.13,20.63-11.43,25.71
				c3.56-2.48,7.9-3.77,12.23-3.77c2.53,0,5.06,0.44,7.43,1.34c6.42,2.44,11.49,8.18,13.11,14.86
				C91.21,72.85,98.12,56.37,110.66,46.77L110.66,46.77z"/>
		</g>
		<path  d="M190.09,59.42c1.12-0.36,2.24-0.73,3.36-1.09c-4.99,3.16-9.98,6.31-14.97,9.47
			c7.83,1.27,13.05,10.86,9.85,18.12c3.73-9.6,12.29-17.17,22.27-19.71c-6.01,0.43-12.51-0.15-17.18-3.95
			c-4.67-3.8-6.28-11.71-1.9-15.84"/>
		<path  d="M58.35,200.9c19.93-10.22,32.46-33.3,30.16-55.58c-4.38,11.45-3.4,24.82,2.61,35.51
			c6,10.69,16.91,18.48,28.96,20.7c-22.46,4.02-40.03,26.52-38.46,49.29c4.43-28.15-9.56-58.33-33.91-73.13"/>
		<path  d="M72.25,314.36c-0.13-0.2-0.26-0.4-0.39-0.6c-6.62-10.41-6.65-11.8,5-16.92
			c21.51-9.45,34.04-15.21,47.21-36.76c9.81-16.05,17.57-33.35,23.03-51.34c3.98-13.1,6.65-27.66,1.08-40.17
			c-8.74-19.63-33.09-25.8-54.24-29.58c14.6-17.55,25.87-37.87,33.01-59.55c18.09,15.62,37.41,29.81,57.72,42.41
			c5.02,3.11,10.54,6.23,16.42,5.74c8.52-0.72,14.45-8.58,18.8-15.94c14.9-25.19,25.07-53.17,29.82-82.06
			c8.58-1.94,17.2,4.84,20.43,13.02c3.24,8.18,2.45,17.33,1.61,26.09c-3.18,33.26-6.37,66.51-9.55,99.77
			c-1.25,13.02-2.56,26.31-7.95,38.23c-5.39,11.92-15.67,22.43-28.58,24.51c-2.39-22.04-16.99-42.36-37.11-51.66
			c-19.7,46.47-39.4,92.94-59.1,139.41c-1,2.37-16.12,7.31-19,9.11c-6.6,4.12-12.31,9.32-18.19,14.2
			c-5.28-8.02-14.81-16.36-18.28-25.25c-3.03-7.77-1.26-16.37-0.76-24.86c12.51,10.57,21.95,24.73,26.9,40.33
			c-6.67-12.74-13.33-25.49-20-38.23c15.76,5.43,28.13,19.73,31.22,36.11c-6.46-11.43-12.91-22.86-19.37-34.3
			c10.4,2.2,19.31,10.41,22.34,20.6c-8.19-6.59-14.4-15.61-17.63-25.61c11.36,6.38,21.78,14.4,30.85,23.75
			c-6.61-7.71-13.22-15.42-19.83-23.13c8.55,2.23,16.51,6.66,22.92,12.74c-6.49-7.16-12.97-14.31-19.46-21.47
			c7.26,1.99,14.53,3.98,21.79,5.97c-4.39-4.47-8.78-8.94-13.16-13.41c8.04,2.02,16.08,4.05,24.13,6.07
			c-3.8-6.16-7.6-12.32-11.4-18.48c4.82,1.28,9.63,2.55,14.45,3.83c-4.23-4.42-8.47-8.83-12.7-13.25
			c5.65-0.12,11.3-0.23,16.95-0.35c-3.58-3.16-7.15-6.31-10.73-9.47c4.35-0.06,8.71-0.13,13.06-0.19
			c-2.44-5.18-4.88-10.36-7.32-15.54c5.76,0.25,11.52,0.49,17.28,0.74c-1.75-6.87-6.18-13.03-12.15-16.86
			c4.4-0.02,8.8-0.03,13.2-0.05c-3.58-3.53-7.17-7.07-10.75-10.6c7.36,0.63,14.72,1.27,22.08,1.9
			c-7.43-5.84-14.86-11.68-22.29-17.51c11.41,0.12,22.76,3.79,32.08,10.37c-7.97-7.35-15.95-14.69-23.92-22.04
			c7.16,2.56,14.31,5.13,21.47,7.69c-13.37-7.35-26.74-14.7-40.12-22.05c19.08,2.7,37.37,10.73,52.26,22.95
			c-28.83-14.74-54.53-35.56-74.93-60.71c50.66,14.75,92.8,55.98,108.65,106.31c-23.74-36.34-47.49-72.68-71.23-109.02
			c36.57,25.04,64.13,62.94,76.68,105.45c-15.87-30.91-31.74-61.82-47.61-92.73c23.85,22.29,43.37,49.18,57.17,78.76
			c-17.04-25.53-34.09-51.06-51.13-76.59c23.73,14.79,44.77,33.89,61.79,56.08c-16.11-17.99-28.64-39.18-36.64-61.97
			c16.75,11.34,30.43,27.16,39.24,45.36c-13.23-14.91-22.5-33.32-26.59-52.84c11.02,5.78,20.44,14.56,27,25.14
			c-7.26-10.51-12.72-22.26-16.06-34.58c7.6,3.04,13.81,9.37,16.71,17.03c-4.28-9.14-8.56-18.28-12.84-27.42
			c4.25,4.11,8.5,8.21,12.75,12.32c-4.93-10.77-6.01-23.25-3.01-34.7c3.98,4.79,7.97,9.58,11.95,14.37
			c-5.09-14.03-5.55-29.69-1.29-43.99c-1.68-1.7-3.36-3.4-5.04-5.1"/>
		<path  d="M286.36,247.79c-0.15,2.48-0.44,5.26-2.36,6.84c-1.5,1.23-3.58,1.38-5.52,1.46
			c-10.91,0.5-21.83,1.01-32.74,1.51c6.48-0.3,17.98-41.09,19.69-47.06c3.53-12.35,2.85-31.59,14.13-40.08
			c15.23-11.46,11.05,6.48,10.36,17.85C288.73,208.13,287.54,227.96,286.36,247.79z"/>
		<path  d="M287.81,134.21c1.7-0.83,2.67-2.93,2.2-4.76c-6.05-3.79-15.34,0.14-16.85,7.12
			c-1.5,6.98,5.36,14.38,12.43,13.41c7.08-0.97,11.7-9.93,8.38-16.26c-4.77-0.93-9.95,2.55-10.9,7.31c3.09-3,4.21-7.87,2.72-11.91
			c-3.87,0.83-4.36,7.14-0.98,9.2c3.38,2.07,8.2-0.09,9.81-3.71c1.61-3.62,0.55-7.97-1.69-11.23c-1.84-2.69-5.27-4.97-8.22-3.6
			c-2.4,1.11-3.26,4.07-3.48,6.71c-0.61,7.14,1.58,14.48,6,20.12c5.04-9.5,5.97-21.09,2.5-31.27c-0.86,4.22-1.68,8.76,0.02,12.71
			c1.7,3.96,7.05,6.6,10.47,3.99c3.18-2.42,2.57-7.67-0.06-10.68c-1.45,9.33-13.77,14.96-21.76,9.94c2.76-2.8,8.22-1.93,9.97,1.59
			c1.76,3.52-0.83,8.4-4.72,8.93c-0.62-0.86-1.24-1.73-1.86-2.59c1.21-0.8,3.02-0.46,3.86,0.72"/>
		<path  d="M273.12,176.78c3.91-3.54,9.08-5.66,14.35-5.88c-5.88,3.1-11.76,6.19-17.64,9.29
			c5.04-0.42,10.17,0.39,14.83,2.35c-3.9,1.07-7.5,3.25-10.25,6.22c4.26,0.07,8.52,0.14,12.78,0.21
			c-5.1-0.66-10.34-0.16-15.22,1.47c3.95,4.44,8.81,8.08,14.18,10.63c-5.01-0.14-9.98-1.68-14.19-4.41
			c3.23,6.02,8.23,11.08,14.22,14.37c-3.44-2.47-6.88-4.94-10.32-7.41c3.43,3.54,6.86,7.09,10.29,10.63
			c-4.33-2.98-8.67-5.97-13-8.95c2.71,3.97,5.42,7.93,8.13,11.9c-3.44-1.97-6.88-3.94-10.32-5.9c3.46,2.69,6.92,5.38,10.38,8.07
			c-4.05-2.27-8.09-4.54-12.14-6.82c3.91,4.65,8.94,8.35,14.55,10.68c-5.09-2.75-10.17-5.49-15.26-8.24
			c7.39,5.44,13.25,12.92,16.75,21.4c-8.36-3.64-16.12-8.67-22.87-14.81c8.52,5.74,15.84,13.25,21.36,21.91
			c-9.42-5.39-18.83-10.78-28.25-16.18c6.75,6.58,13.49,13.17,20.24,19.75c-4.98,1.7-10.82,0.58-14.82-2.84
			c2.72,3.39,5.44,6.78,8.16,10.17c-4.4-3.09-8.8-6.18-13.19-9.27c2.88,4.48,5.77,8.96,8.65,13.44c-3.88-1.62-7.76-3.24-11.64-4.86
			c1.08,0.74,2.15,1.48,3.23,2.21"/>
		<path  d="M318.22,75.56c0.46,65.91-7.26,131.88-22.92,195.9c8.57,1.27,17.14,2.53,25.71,3.8
			c10.86-70.98,21.71-141.96,32.57-212.93c-12.86,4.76-25.72,9.51-38.58,14.27c13.62-1.57,27.23-3.13,40.85-4.7
			c-10.84,3.29-21.69,6.58-32.53,9.88c7.08-0.48,14.16-0.96,21.24-1.44c-8.59,3.26-17.18,6.53-25.77,9.79
			c7.3,0.36,14.68-1.28,21.15-4.67c-5.21,3.97-10.42,7.94-15.63,11.9c3.54-0.02,7.07-0.04,10.61-0.06
			c-7.6,5.36-15.2,10.72-22.81,16.07c5.95-1.96,11.91-3.92,17.86-5.87c-3.98,3.16-7.96,6.31-11.94,9.47
			c4.92-0.37,9.84-0.74,14.76-1.12c-2.51,4.06-5.01,8.12-7.52,12.17c2.13,0.41,4.26,0.83,6.39,1.24
			c-2.75,6.03-5.5,12.06-8.25,18.09c2.36,0.14,4.71,0.27,7.07,0.41c-5.65,1.59-11.31,3.18-16.96,4.76
			c8.48,3.48,15.78,9.77,20.46,17.66c-3.61-1.4-7.21-2.79-10.82-4.19c3.6,3.64,7.19,7.28,10.79,10.92
			c-4.56-0.87-9.11-1.73-13.67-2.6c2.51,2.91,5.03,5.82,7.54,8.73c-4.49,0.01-8.99,0.02-13.48,0.03c2.03,1.95,4.06,3.9,6.09,5.84
			c-2.88,0.02-5.76,0.04-8.65,0.06c4.56,4.06,9.13,8.12,13.69,12.17c-3.31-0.74-6.62-1.49-9.93-2.23
			c3.49,4.27,6.99,8.53,10.48,12.8c-4.07-0.54-8.13-1.08-12.2-1.62c4.33,4.68,8.65,9.36,12.98,14.04
			c-5.51,0.88-11.33-0.4-15.96-3.52c5.63,5.76,11.27,11.52,16.9,17.28c-5.25-2.39-10.49-4.78-15.74-7.16
			c3.11,6.69,6.22,13.38,9.33,20.06c-3.07-2.49-6.13-4.97-9.2-7.46c6.87,4.81,12.55,11.31,16.39,18.77
			c-5.04-3.53-10.07-7.05-15.11-10.58c6.04,8.06,12.09,16.13,18.13,24.19c-3.54-1.33-7.08-2.67-10.61-4
			c1.95,1.28,3.9,2.56,5.84,3.84"/>
		<path  d="M352.34,183.9c-9.15,20.38-11.76,43.65-7.35,65.55c1.33,6.58,3.4,13.28,7.91,18.24
			c9.48,10.44,27.22,9.5,38.58,1.15c10.18-7.48,16.27-19.5,19.05-31.82c2.79-12.32,2.6-25.09,2.4-37.72
			c-0.08-5.38-0.63-11.66-5.14-14.59c-7-4.56-16.15,3.03-24.38,1.57c10.7,9.36,12.91,26.96,4.86,38.68
			c-2.45,3.56-5.82,6.64-9.93,7.98s-9.01,0.67-12.13-2.32c-3.51-3.37-4.12-8.74-3.86-13.6c0.54-9.94,3.89-19.7,9.57-27.87
			c-6.4-0.51-12.81-1.02-19.21-1.53c4.38,1.57,8.77,3.14,13.15,4.71c-6.12,1.62-12.25,3.23-18.37,4.85
			c4.39,0.92,8.79,1.83,13.18,2.75c-5.93,0.59-11.69,2.75-16.56,6.18c3.13,0.88,6.26,1.75,9.38,2.63
			c-3.51,2.23-7.02,4.46-10.52,6.7c3.88-0.75,7.76-1.51,11.64-2.26c-3.07,3.26-6.14,6.53-9.22,9.79c5.19-1.13,10.39-2.27,15.58-3.4
			c-5.16,6-10.33,11.99-15.49,17.99c3.89-1.11,7.79-2.23,11.68-3.34c0.21,5.77-2.18,11.58-6.38,15.55c2.93-3.19,5.87-6.38,8.8-9.57
			c0.5,6.4-1.11,12.95-4.52,18.39c2.92-6.72,7.47-12.72,13.15-17.35c-1.13,9.71-3.51,19.28-7.07,28.39
			c2.96-8.5,5.93-16.99,8.89-25.49c0.27,9.32,0.54,18.64,0.81,27.96c-0.98-9.43-0.53-19.01,1.32-28.31
			c2.6,7.16,5.21,14.32,7.81,21.48c-2.76-8.07-5.51-16.14-8.27-24.2c6,5.75,12.01,11.51,18.01,17.26
			c-6.74-7.47-12.49-15.84-17.05-24.82c6.69,6.49,13.39,12.99,20.08,19.48c-2.96-7.09-5.91-14.18-8.87-21.27
			c2.76,5.51,9.01,9.06,15.16,8.61c-3.15-6.12-6.3-12.24-9.45-18.35c3.58,5.77,9.28,10.2,15.76,12.23
			c-3.8-6.67-7.6-13.34-11.4-20.01c3.53,4.54,8.74,7.75,14.39,8.87c-2.38-7.02-7.74-12.98-14.47-16.1
			c2.7,2.48,6.44,3.81,10.11,3.57c2.56-1.07,4.01-4.26,3.13-6.89c-0.88-2.63-3.95-4.31-6.64-3.63c1.47-2.37,2.94-4.74,4.4-7.11
			c-1.87,0.77-3.75,1.55-5.62,2.32c2.22-0.46,4.23-1.84,5.44-3.75c-5.26,1.55-10.52,3.1-15.78,4.65c4.45-2.38,8.9-4.75,13.35-7.13
			c-5.23-0.27-10.47-0.55-15.7-0.82"/>
		<path  d="M402.97,110.76c3.4,12.26-7.01,26.31-19.73,26.62c9.86-3.11,21.48,5.57,21.28,15.91
			c1.04-12.05,8.68-23.33,19.49-28.76c-4.95,3.25-11.68,3.58-16.92,0.82c-5.24-2.76-8.78-8.49-8.89-14.42"/>
		<path  d="M455.82,239.45c-4.82-0.13-8.08-5.55-7.72-10.36s3.22-9.01,5.99-12.95c2.26-3.21,5.12-6.75,9.04-6.79
			c4.19-0.04,7.35,4.28,7.6,8.46c0.25,4.18-1.6,8.16-3.41,11.94c-1.37,2.87-2.8,5.81-5.18,7.93c-2.37,2.11-5.95,3.21-8.8,1.79
			c-5.01-2.49-4.18-9.9-1.9-15c1.84-4.11,5.05-8.56,9.55-8.37c5.41,0.22,8.07,7.52,5.87,12.47c-2.2,4.95-7.26,7.89-12,10.5
			c-4.52-8.85,1.46-21.25,11.2-23.22c-0.85,11.21-6.55,21.96-15.34,28.96c0.1-5.88,0.19-11.76,0.29-17.64
			c-10.21,13.2-20.42,26.4-30.62,39.6c3.06-2.26,4.88-6.11,4.66-9.91c-2.74,0.41-5.48,0.81-8.22,1.22
			c6.68-4.82,13.37-9.63,20.05-14.45c-5.73,1.91-11.46,3.82-17.18,5.73c6.11-5.52,13.27-9.86,20.99-12.72c-8,1.53-16,3.06-24,4.58
			c9.73-7.21,19.45-14.42,29.18-21.62c-9.02,4.64-18.05,9.27-27.07,13.91c7.84-5.86,15.67-11.72,23.51-17.58
			c-4.39,2.41-9.27,3.9-14.26,4.34c5.13-6.07,11.22-11.33,17.99-15.52c-4.17,1.36-8.68,1.68-13.01,0.93
			c2.73-1.95,5.45-3.91,8.18-5.86c-3.13-0.08-6.27-0.15-9.4-0.23c1.98-3.48,5.56-6.01,9.5-6.73c-4.74-0.2-9.48-0.41-14.22-0.61
			c3.2-2.66,6.4-5.33,9.6-7.99c-4.11,0.55-8.39-0.35-11.93-2.51c7.33-1.67,14.19-5.41,19.55-10.68c-5.3,0.98-10.59,1.95-15.89,2.93
			c4.34-3.52,8.68-7.03,13.02-10.55c-3.38,1.19-6.75,2.37-10.13,3.56c5.46-4.42,10.92-8.84,16.38-13.25
			c-10.79,4.99-15,5.76-17.92,16.61c-3.1,11.52-2.46,25.16-4.4,37.05c-1.18,7.23-13.44,72.44-20.69,71.85
			c12.6,1.01,25-9.46,26.12-22.05c-0.04,8.17,9.73,13.59,17.75,11.98c8.01-1.61,14.19-7.9,19.3-14.27
			c6.49-8.09,12.17-16.82,16.92-26.04c2.56-4.96,4.89-10.23,5.02-15.81s-2.44-11.54-7.47-13.96c-5.79-2.78-12.67-0.19-18.22,3.04
			c-5.55,3.22-11.13,7.22-17.54,7.33c2.24-0.04,1.45-48.38-1.22-52.85c-8.51-14.21-12.92-2.68-14.66,7.21"/>
		<path  d="M493.89,231.6c-4.66,7.36-9.32,14.71-13.97,22.07c-2.99,4.73-6.04,9.58-7.27,15.03
			c-1.24,5.46-0.33,11.74,3.69,15.63c5.94,5.74,15.98,4.05,22.95-0.38c10.17-6.45,16.78-17.45,20.29-28.97
			c3.5-11.52,4.22-23.68,4.87-35.7c-9.57,0.57-17.62,7.04-24.96,13.21c-4.69,3.95-9.85,10.07-6.85,15.42
			c1.85,3.3,6.79,4.33,9.8,2.05c3.02-2.28,3.38-7.31,0.71-9.99s-7.7-2.36-9.99,0.64c1.25,5.83,8.18,9.69,13.8,7.69
			c-2.34-5.61-8.27-9.52-14.35-9.46c-1.16,8.73,6.71,17.53,15.52,17.34c-4.43-5.5-11.13-9.12-18.16-9.81
			c1.94,8.57,8.9,15.8,17.39,18.06c-4.55-6.49-11.85-10.99-19.69-12.14c2.51,6.56,7.87,11.96,14.41,14.52
			c-2.8-5.09-8.59-8.39-14.4-8.19c-0.1,8.4,6.24,16.45,14.44,18.31c-5.52-7.47-11.99-14.24-19.21-20.08
			c-1.31,8.67,3.27,17.92,10.94,22.14c0.39-3.57-1.75-7.26-5.03-8.72c-2.4,3.32-0.95,8.7,2.8,10.36
			c7.06-1.55,12.68-7.17,15.99-13.6c3.31-6.43,4.67-13.65,5.98-20.76c0.26-1.38,0.49-2.87-0.14-4.12c-1.4-2.77-6.05-1.84-7.5,0.91
			c-1.45,2.75-0.7,6.09,0.18,9.07s1.87,6.19,0.8,9.11c8.04-1.24,14.85-9.45,13.1-17.4c-1.79-8.14-11.68-12.7-19.71-10.49
			s-13.84,9.58-16.32,17.53c-1.85,5.94-2.1,12.51,0.18,18.3s7.32,10.62,13.42,11.83c9.01,1.78,18.02-4.66,22.25-12.81
			c4.23-8.15,4.77-17.65,5.22-26.82c-1.88,0.24-3.76,0.49-5.65,0.73"/>
		<path  d="M466.99,139.43c-1.76,4.43-9.44,4.32-11.08-0.16c6.42-4.32,14.22-6.57,21.95-6.32
			c-3.18,4.56-6.35,9.12-9.53,13.68c20.14,7.31,43.35,5.64,62.25-4.47c18.89-10.11,33.16-28.49,38.26-49.3
			c-5.27,6.96-10.66,14.04-17.86,18.97c-7.2,4.93-16.65,7.42-24.79,4.28c-8.14-3.14-13.72-13.06-10.24-21.06
			c-1.46,2.13-2.93,4.26-4.39,6.39c-1.72-4.25-0.6-9.5,2.7-12.68c-3.92,0.83-7.84,1.67-11.75,2.5c0.02-7.87,2.81-15.71,7.76-21.84
			c-5.58,7.72-18.39,7.21-25.13,0.47c-6.73-6.73-8.01-17.49-5.63-26.71s7.83-17.3,13.2-25.17c-23.46,4.86-44.24,21.23-54.46,42.9
			c-8.8,18.66-9.4,42.01,2.09,59.15c9.23,13.77,25.11,22.08,41.41,25.09c16.3,3.01,33.11,1.23,49.42-1.73
			c10.18-1.85,22.08-3.7,29.66,3.33c4.98,4.62,6.48,11.78,7.72,18.45c4.75,25.54,9.5,51.07,14.25,76.61
			c0.45-3.37,0.9-6.73,1.35-10.1c-3.53,4.02-7.07,8.03-10.6,12.05c7.99-13.14,8.17-30.65,0.45-43.94
			c-9.55,12.25-13.7,28.55-11.19,43.87c9.05-13.29,9.31-31.99,0.63-45.53c-7.22,15.64-14.43,31.29-21.65,46.93
			c8.4-11.72,16.79-23.44,25.19-35.16c-11.09,9.45-22.18,18.91-33.27,28.36c6.62-6.89,13.24-13.79,19.85-20.68
			c-8.11,4.01-16.22,8.02-24.33,12.03c8.07-7.05,16.14-14.11,24.2-21.16c-8.08,3.62-16.16,7.24-24.24,10.86
			c6.51-6.03,13.02-12.06,19.53-18.09c-6.51,1.93-13.02,3.87-19.53,5.8c5.59-3.64,11.17-7.28,16.76-10.92
			c-6.3,2.11-12.6,4.21-18.9,6.32c5.11-3.62,10.23-7.23,15.34-10.85c-3.87,0.82-7.73,1.64-11.6,2.46
			c5.23-3.55,10.49-7.07,15.66-10.7c-16.89,8.59-18.89,12.01-17.19,31.82c1.1,12.89,4.63,25.37,6.04,38.19
			c0.24,2.16,0.5,4.4,1.63,6.26c2.4,3.98,8.31,4.82,12.34,2.51c4.04-2.3,6.3-6.95,6.88-11.56c0.58-4.61-0.27-9.27-1.12-13.84
			c9.11,1.99,15.89,11.54,14.76,20.8c6.48-2.48,11.12-8.48,13.51-14.99c2.39-6.51,2.82-13.56,3.03-20.5
			c0.22-7.09,0.22-14.4-2.42-20.98c-2.63-6.59-8.5-12.35-15.57-12.81c-7.08-0.45-14.35,6.17-12.9,13.11
			c-3.4-2.89-2.72-8.18-2.28-12.63c0.44-4.44-0.64-10.2-5.01-11.11c-10.35-2.16-15.64,3.11-17.96,11.79"/>
		<path  d="M456.01,82.95c3.59,1.78,8.19,1.26,11.29-1.27c3.1-2.53,4.53-6.94,3.51-10.81c1.65,2.04,1.29,5.4-0.76,7.05
			c3.64,1.17,7.94-0.06,10.4-3c-3.5,1.49-7,2.98-10.49,4.47c2.55,1.07,5.11,2.14,7.66,3.21c-3.34,0.91-6.98,0.64-10.15-0.76
			c1.75,1.23,3.5,2.46,5.25,3.69c-2.98-0.41-5.96-0.82-8.95-1.23c0.72,0.7,1.43,1.4,2.15,2.11"/>
	</g>
</svg>